<svg preserveAspectRatio="none" width="100%" height="100%" overflow="visible" style="display: block;" viewBox="0 0 231.903 400.773" fill="none" xmlns="http://www.w3.org/2000/svg">
<g id="&#227;&#130;&#176;&#227;&#131;&#171;&#227;&#131;&#188;&#227;&#131;&#151; 16">
<path id="&#227;&#131;&#145;&#227;&#130;&#185; 12" d="M207.661 220.07C207.531 219.436 207.466 218.791 207.467 218.144C207.469 216.305 208.004 214.506 209.006 212.965H206.612C206.017 212.992 205.423 212.898 204.865 212.688C204.307 212.479 203.798 212.159 203.367 211.747C202.937 211.335 202.594 210.841 202.36 210.293C202.126 209.745 202.005 209.155 202.005 208.56C202.005 207.964 202.126 207.374 202.36 206.827C202.594 206.279 202.937 205.784 203.367 205.372C203.798 204.961 204.307 204.64 204.865 204.431C205.423 204.222 206.017 204.127 206.612 204.154C206.017 204.181 205.423 204.086 204.865 203.877C204.307 203.668 203.798 203.347 203.367 202.936C202.937 202.524 202.594 202.029 202.36 201.482C202.126 200.934 202.005 200.344 202.005 199.748C202.005 199.153 202.126 198.563 202.36 198.015C202.594 197.468 202.937 196.973 203.367 196.561C203.798 196.149 204.307 195.829 204.865 195.62C205.423 195.41 206.017 195.316 206.612 195.343C205.701 195.348 204.811 195.07 204.065 194.547C203.319 194.023 202.755 193.281 202.45 192.422C202.145 191.563 202.116 190.631 202.365 189.755C202.614 188.878 203.13 188.101 203.84 187.531C202.48 187.759 201.088 187.702 199.751 187.365C198.414 187.027 197.162 186.416 196.074 185.569C194.985 184.723 194.084 183.66 193.428 182.447C192.772 181.234 192.374 179.899 192.26 178.525C192.146 177.151 192.319 175.768 192.767 174.464C193.215 173.16 193.929 171.963 194.864 170.949C195.798 169.935 196.933 169.126 198.196 168.574C199.459 168.021 200.823 167.736 202.202 167.737H202.454V120.155L184.501 102.201V207.769C189.073 207.766 193.576 208.886 197.615 211.031C201.653 213.176 205.103 216.28 207.661 220.07Z" fill="var(--fill-0, #DE474F)"/>
<path id="&#227;&#131;&#145;&#227;&#130;&#185; 13" d="M227.493 212.964H225.099C226.377 214.949 226.876 217.337 226.501 219.668C226.126 221.999 224.903 224.11 223.067 225.594C221.231 227.078 218.911 227.832 216.553 227.71C214.195 227.588 211.965 226.6 210.291 224.934C212.068 229.182 212.767 233.804 212.327 238.388C211.887 242.971 210.322 247.375 207.77 251.208C205.218 255.042 201.759 258.185 197.7 260.359C193.641 262.534 189.108 263.672 184.503 263.673V298.575L231.902 251.176V208.558C231.902 209.727 231.437 210.849 230.61 211.676C229.783 212.503 228.661 212.968 227.492 212.968" fill="var(--fill-0, #DE474F)"/>
<path id="&#227;&#131;&#145;&#227;&#130;&#185; 14" d="M227.493 204.153C228.663 204.153 229.784 204.617 230.611 205.444C231.438 206.271 231.903 207.393 231.903 208.563V199.753C231.871 200.912 231.396 202.016 230.576 202.836C229.756 203.656 228.653 204.131 227.493 204.163" fill="var(--fill-0, #DE474F)"/>
<path id="&#227;&#131;&#145;&#227;&#130;&#185; 15" d="M0 192.212C0 191.042 0.464624 189.92 1.29166 189.093C2.11869 188.266 3.2404 187.802 4.41 187.802H6.804C5.52608 185.816 5.02671 183.429 5.40179 181.098C5.77687 178.767 6.99996 176.656 8.83616 175.172C10.6724 173.687 12.9922 172.934 15.3502 173.056C17.7082 173.177 19.938 174.166 21.6115 175.832C19.8354 171.583 19.1361 166.962 19.576 162.378C20.0159 157.794 21.5812 153.39 24.133 149.557C26.6847 145.724 30.1437 142.581 34.2028 140.406C38.2618 138.232 42.7952 137.094 47.3999 137.093V102.191L0 149.595V192.212Z" fill="var(--fill-0, #DE474F)"/>
<path id="&#227;&#131;&#145;&#227;&#130;&#185; 16" d="M24.2374 180.7C24.3666 181.334 24.4316 181.98 24.4314 182.627C24.4291 184.466 23.8943 186.264 22.8917 187.805H25.2857C25.8819 187.777 26.4777 187.87 27.0369 188.078C27.5962 188.287 28.1073 188.607 28.5394 189.019C28.9714 189.43 29.3153 189.926 29.5503 190.474C29.7853 191.023 29.9065 191.614 29.9065 192.21C29.9065 192.807 29.7853 193.398 29.5503 193.947C29.3153 194.495 28.9714 194.991 28.5394 195.402C28.1073 195.814 27.5962 196.134 27.0369 196.343C26.4777 196.551 25.8819 196.644 25.2857 196.615C26.3412 196.617 27.3608 196.999 28.1579 197.691C28.9549 198.383 29.4762 199.339 29.6264 200.384C29.6635 200.595 29.6849 200.808 29.6906 201.022C29.6906 202.191 29.226 203.313 28.399 204.14C27.5719 204.967 26.4502 205.432 25.2806 205.432C26.1918 205.426 27.082 205.705 27.8278 206.228C28.5737 206.751 29.1381 207.494 29.4428 208.353C29.7475 209.211 29.7773 210.144 29.5282 211.02C29.2791 211.896 28.7634 212.674 28.0526 213.244C29.412 213.017 30.8037 213.074 32.1398 213.412C33.4758 213.751 34.7272 214.362 35.8148 215.209C36.9023 216.055 37.8025 217.118 38.4584 218.33C39.1143 219.543 39.5116 220.878 39.6253 222.251C39.7389 223.625 39.5664 225.007 39.1187 226.31C38.671 227.614 37.9578 228.81 37.0241 229.824C36.0905 230.838 34.9567 231.647 33.6944 232.2C32.4322 232.753 31.0688 233.039 29.6906 233.038H29.4386V280.626L47.3987 298.573V193C42.8263 193.003 38.3231 191.883 34.2849 189.738C30.2467 187.594 26.7956 184.49 24.2374 180.7Z" fill="var(--fill-0, #DE474F)"/>
<path id="&#227;&#131;&#145;&#227;&#130;&#185; 17" d="M227.493 177.722C228.663 177.722 229.784 178.186 230.611 179.013C231.438 179.84 231.903 180.962 231.903 182.132V177.722H227.493Z" fill="var(--fill-0, #DE474F)"/>
<path id="&#227;&#131;&#145;&#227;&#130;&#185; 18" d="M227.493 186.532C228.663 186.532 229.784 186.996 230.611 187.823C231.438 188.65 231.903 189.772 231.903 190.942V182.13C231.903 183.3 231.438 184.422 230.611 185.249C229.784 186.076 228.663 186.54 227.493 186.54" fill="var(--fill-0, #DE474F)"/>
<path id="&#227;&#131;&#145;&#227;&#130;&#185; 19" d="M227.493 195.339C228.663 195.339 229.784 195.804 230.611 196.631C231.438 197.458 231.903 198.579 231.903 199.749V190.938C231.903 192.107 231.438 193.229 230.611 194.056C229.784 194.883 228.663 195.348 227.493 195.348" fill="var(--fill-0, #DE474F)"/>
<path id="&#227;&#131;&#145;&#227;&#130;&#185; 20" d="M151.543 88.6171H122.544L109.546 77.7256L103.447 72.6151V39.4607H75.8608V68.6284C71.6367 70.0107 67.959 72.6956 65.3553 76.2977C62.7517 79.8998 61.356 84.2341 61.3684 88.6786C61.3809 93.1232 62.8009 97.4495 65.4247 101.037C68.0484 104.624 71.7411 107.289 75.973 108.647V194.988H91.975V130.457L83.281 109.612C88.7113 109.416 93.8524 107.116 97.617 103.197C101.381 99.2788 103.474 94.0496 103.452 88.6158C103.452 94.1965 105.669 99.5486 109.615 103.495C113.562 107.441 118.914 109.658 124.494 109.658H148.574L140.02 130.04L139.936 194.988H155.938V109.658H158.271V88.6158L151.543 88.6171ZM89.8128 130.673V192.829H78.1301V109.222C79.0641 109.407 80.0096 109.528 80.96 109.585L89.8128 130.673ZM90.7313 69.2962V88.6171C90.7287 90.5821 90.0302 92.4827 88.7598 93.9819C87.4894 95.4811 85.7292 96.4819 83.7913 96.8071C82.6328 97.0293 81.4393 96.9885 80.2987 96.6878C79.1582 96.3871 78.0997 95.834 77.2015 95.0695C76.7504 94.7048 76.3387 94.2939 75.973 93.8435C74.7681 92.4015 74.0987 90.5873 74.0783 88.7083C74.0578 86.8292 74.6876 85.0009 75.8608 83.533C76.3389 82.9111 76.9022 82.3597 77.5341 81.895C79.188 80.6742 81.2396 80.118 83.2836 80.3364C85.3277 80.5547 87.2155 81.5317 88.5742 83.0743V47.8888H90.7326L90.7313 69.2962ZM119.559 103.946L117.591 103.064L121.926 93.4265L123.895 94.3085L119.559 103.946ZM137.492 104.41H135.334V93.865H137.492V104.41ZM148.832 102.202V93.865H150.991V104.409H148.832V102.202ZM153.763 192.83H142.08V130.675L150.9 109.658H153.76L153.763 192.83Z" fill="var(--fill-0, #DE474F)"/>
<path id="&#227;&#131;&#145;&#227;&#130;&#185; 21" d="M82.4053 94.786C82.5829 94.786 82.7492 94.7482 82.9231 94.7344C84.4596 94.6075 85.8926 93.9088 86.9388 92.7763C87.9849 91.6438 88.5681 90.16 88.573 88.6183C88.5048 87.0281 87.8251 85.5257 86.6758 84.4247C85.5264 83.3236 83.9963 82.7088 82.4046 82.7088C80.813 82.7088 79.2828 83.3236 78.1335 84.4247C76.9842 85.5257 76.3045 87.0281 76.2363 88.6183C76.2363 90.2558 76.8868 91.8261 78.0446 92.984C79.2025 94.1418 80.7729 94.7923 82.4103 94.7923" fill="var(--fill-0, #DE474F)"/>
<path id="&#227;&#131;&#145;&#227;&#130;&#185; 22" d="M95.8407 30.4126L85.2314 24.9329L75.8596 30.4126H95.8407Z" fill="var(--fill-0, #546AB3)"/>
<path id="&#227;&#131;&#145;&#227;&#130;&#185; 23" d="M117.06 30.4126L106.451 24.9329L95.8419 30.4126H117.06Z" fill="var(--fill-0, #546AB3)"/>
<path id="&#227;&#131;&#145;&#227;&#130;&#185; 24" d="M138.28 30.4126L127.671 24.9329L117.062 30.4126H138.28Z" fill="var(--fill-0, #546AB3)"/>
<path id="&#227;&#131;&#145;&#227;&#130;&#185; 25" d="M158.253 30.4139H158.12L148.887 24.9341L138.277 30.4139H158.253Z" fill="var(--fill-0, #546AB3)"/>
<path id="&#227;&#131;&#145;&#227;&#130;&#185; 26" d="M4.41 223.048C3.2404 223.048 2.11869 222.583 1.29166 221.756C0.464624 220.929 0 219.807 0 218.638L0 223.048H4.41Z" fill="var(--fill-0, #DE474F)"/>
<path id="&#227;&#131;&#145;&#227;&#130;&#185; 27" d="M0 201.023C0.00570116 200.809 0.0271795 200.596 0.06426 200.385C0.214529 199.34 0.736543 198.383 1.53466 197.691C2.33278 196.999 3.35357 196.617 4.41 196.617C3.2404 196.617 2.11869 196.152 1.29166 195.325C0.464624 194.498 0 193.376 0 192.207L0 201.018V201.023Z" fill="var(--fill-0, #DE474F)"/>
<path id="&#227;&#131;&#145;&#227;&#130;&#185; 28" d="M4.41 205.427C3.2404 205.427 2.11869 204.962 1.29166 204.135C0.464624 203.308 0 202.186 0 201.017L0 209.827C0 208.657 0.464624 207.535 1.29166 206.708C2.11869 205.881 3.2404 205.417 4.41 205.417" fill="var(--fill-0, #DE474F)"/>
<path id="&#227;&#131;&#145;&#227;&#130;&#185; 29" d="M4.41 214.239C3.2404 214.239 2.11869 213.774 1.29166 212.947C0.464624 212.12 0 210.999 0 209.829L0 218.64C0 217.471 0.464624 216.349 1.29166 215.522C2.11869 214.695 3.2404 214.23 4.41 214.23" fill="var(--fill-0, #DE474F)"/>
<path id="&#227;&#131;&#145;&#227;&#130;&#185; 30" d="M109.357 312.152L122.355 323.044L128.453 328.154V312.152C128.453 309.389 127.909 306.653 126.851 304.1C125.794 301.547 124.244 299.227 122.29 297.273C120.336 295.32 118.017 293.77 115.464 292.712C112.911 291.655 110.174 291.11 107.411 291.11H83.3326L91.888 270.727L91.9725 205.779H75.9704V291.11H73.6369V312.152H109.355H109.357ZM112.34 296.823L114.31 297.705L109.973 307.343L108.005 306.461L112.34 296.823ZM94.4055 296.36H96.5639V306.903H94.4055V296.36ZM83.0655 296.36V306.903H80.8983V296.36H83.0567H83.0655ZM78.1263 207.939H89.809V270.095L80.989 291.112H78.1263V207.939Z" fill="var(--fill-0, #DE474F)"/>
<path id="&#227;&#131;&#145;&#227;&#130;&#185; 31" d="M161.322 294.753C159.658 293.622 157.841 292.736 155.925 292.122V205.781H139.923V270.312L148.617 291.156C143.187 291.352 138.046 293.653 134.281 297.571C130.517 301.49 128.424 306.719 128.446 312.152V361.309H156.03V332.141C159.761 330.913 163.075 328.665 165.595 325.651C168.116 322.638 169.743 318.98 170.293 315.09C170.843 311.2 170.293 307.234 168.707 303.64C167.12 300.046 164.559 296.968 161.314 294.753M142.078 270.095V207.939H153.76V291.548C152.826 291.363 151.881 291.241 150.93 291.185L142.078 270.095ZM143.317 352.877H141.159V312.152C141.14 310.184 141.811 308.271 143.057 306.747C144.303 305.222 146.044 304.183 147.977 303.81C149.91 303.438 151.913 303.754 153.636 304.706C155.36 305.658 156.695 307.184 157.409 309.018C158.123 310.853 158.171 312.88 157.545 314.746C156.919 316.612 155.658 318.2 153.981 319.232C152.305 320.265 150.32 320.676 148.371 320.396C146.423 320.115 144.634 319.16 143.317 317.696V352.882V352.877Z" fill="var(--fill-0, #DE474F)"/>
<path id="&#227;&#131;&#145;&#227;&#130;&#185; 32" d="M149.494 318.32C151.126 318.302 152.686 317.646 153.84 316.492C154.994 315.338 155.65 313.778 155.668 312.146C155.668 311.335 155.508 310.532 155.198 309.783C154.888 309.034 154.433 308.354 153.86 307.78C153.286 307.207 152.606 306.752 151.857 306.442C151.108 306.132 150.305 305.972 149.494 305.972C149.316 305.972 149.149 306.01 148.975 306.025C147.438 306.152 146.005 306.851 144.959 307.983C143.913 309.116 143.33 310.599 143.325 312.141C143.325 312.952 143.485 313.755 143.795 314.504C144.105 315.253 144.56 315.933 145.133 316.507C145.707 317.08 146.387 317.535 147.136 317.845C147.885 318.155 148.688 318.315 149.499 318.315" fill="var(--fill-0, #DE474F)"/>
<path id="&#227;&#131;&#145;&#227;&#130;&#185; 33" d="M136.057 370.275L146.667 375.837L156.038 370.275H136.057Z" fill="var(--fill-0, #546AB3)"/>
<path id="&#227;&#131;&#145;&#227;&#130;&#185; 34" d="M114.838 370.275L125.447 375.837L136.056 370.275H114.838Z" fill="var(--fill-0, #546AB3)"/>
<path id="&#227;&#131;&#145;&#227;&#130;&#185; 35" d="M104.228 370.275H93.6193L104.228 375.837L114.838 370.275H104.228Z" fill="var(--fill-0, #546AB3)"/>
<path id="&#227;&#131;&#145;&#227;&#130;&#185; 36" d="M73.6445 370.274H73.778L83.0113 375.835L93.6205 370.274H73.6445Z" fill="var(--fill-0, #546AB3)"/>
<path id="&#227;&#131;&#145;&#227;&#130;&#185; 37" d="M97.369 199.306H92.9704V201.464H107.299C107.154 200.752 107.154 200.018 107.299 199.306H97.369Z" fill="var(--fill-0, #DE474F)"/>
<path id="&#227;&#131;&#145;&#227;&#130;&#185; 38" d="M134.529 201.464H138.929V199.306H124.599C124.744 200.018 124.744 200.752 124.599 201.464H134.529Z" fill="var(--fill-0, #DE474F)"/>
<path id="&#227;&#131;&#145;&#227;&#130;&#185; 39" d="M103.445 72.6151L109.543 77.7256L122.541 88.6171H158.26V39.4607H103.45L103.445 72.6151ZM124.831 73.0485H141.776V75.2069H124.831V73.0485ZM148.604 44.7678L149.131 46.8632L140.883 48.9359L140.356 46.8405L148.604 44.7678ZM148.868 51.7117C148.868 52.9979 148.357 54.2314 147.447 55.1409C146.538 56.0505 145.304 56.5614 144.018 56.5614H140.616V51.7117H148.868ZM117.998 44.7678L126.244 46.8405L125.718 48.9359L117.471 46.8632L117.998 44.7678ZM125.981 51.7117V56.5614H122.579C121.293 56.5614 120.059 56.0505 119.15 55.1409C118.24 54.2314 117.729 52.9979 117.729 51.7117H125.981ZM113.655 63.1512H115.813V63.6804C115.812 64.6146 116.064 65.5316 116.541 66.3345C117.018 67.1375 117.704 67.7965 118.525 68.2418C119.346 68.6872 120.273 68.9024 121.206 68.8647C122.139 68.8269 123.045 68.5376 123.828 68.0274L131.001 63.3654C130.616 63.0374 130.306 62.6299 130.093 62.1711C129.88 61.7122 129.769 61.2127 129.767 60.7068V53.293H131.926V60.698C131.92 60.8816 131.952 61.0644 132.018 61.2357C132.084 61.407 132.185 61.5632 132.312 61.695C132.44 61.8268 132.593 61.9317 132.763 62.0032C132.932 62.0748 133.114 62.1117 133.297 62.1117C133.481 62.1117 133.663 62.0748 133.832 62.0032C134.001 61.9317 134.154 61.8268 134.282 61.695C134.41 61.5632 134.51 61.407 134.577 61.2357C134.643 61.0644 134.674 60.8816 134.669 60.698V53.293H136.827V60.698C136.826 61.2037 136.715 61.7032 136.502 62.1621C136.289 62.6209 135.98 63.0284 135.595 63.3566L142.767 68.0186C143.549 68.5287 144.455 68.8179 145.389 68.8556C146.322 68.8933 147.248 68.6781 148.07 68.2328C148.891 67.7875 149.577 67.1285 150.054 66.3256C150.532 65.5228 150.784 64.6058 150.783 63.6716V63.1424H152.941V63.6716C152.942 64.9945 152.585 66.2929 151.908 67.4297C151.231 68.5664 150.26 69.4993 149.097 70.1298C147.934 70.7603 146.622 71.0649 145.301 71.0116C143.979 70.9582 142.696 70.5489 141.587 69.8267L133.298 64.4301L125.006 69.8267C123.898 70.549 122.615 70.9584 121.293 71.0118C119.971 71.0652 118.659 70.7606 117.497 70.13C116.334 69.4995 115.363 68.5666 114.686 67.4297C114.01 66.2929 113.653 64.9945 113.653 63.6716L113.655 63.1512Z" fill="var(--fill-0, #EE9593)"/>
<path id="&#227;&#131;&#145;&#227;&#130;&#185; 40" d="M231.899 190.934C231.899 189.764 231.435 188.643 230.608 187.816C229.781 186.989 228.659 186.524 227.489 186.524C228.624 186.473 229.695 185.987 230.479 185.166C231.264 184.346 231.702 183.254 231.702 182.118C231.702 180.983 231.264 179.891 230.479 179.071C229.695 178.25 228.624 177.764 227.489 177.713H212.183C212.178 179.534 211.673 181.319 210.724 182.873C209.774 184.427 208.415 185.69 206.796 186.524C205.871 187.015 204.873 187.356 203.84 187.532C203.13 188.102 202.614 188.879 202.365 189.756C202.116 190.632 202.145 191.564 202.45 192.423C202.755 193.282 203.319 194.024 204.065 194.548C204.811 195.071 205.701 195.35 206.612 195.344C205.478 195.395 204.407 195.881 203.622 196.702C202.837 197.522 202.399 198.614 202.399 199.75C202.399 200.885 202.837 201.977 203.622 202.798C204.407 203.618 205.478 204.104 206.612 204.155C205.478 204.206 204.407 204.692 203.622 205.513C202.837 206.334 202.399 207.425 202.399 208.561C202.399 209.696 202.837 210.788 203.622 211.609C204.407 212.429 205.478 212.916 206.612 212.966H227.494C228.629 212.916 229.7 212.429 230.484 211.609C231.269 210.788 231.707 209.696 231.707 208.561C231.707 207.425 231.269 206.334 230.484 205.513C229.7 204.692 228.629 204.206 227.494 204.155C228.55 204.154 229.57 203.772 230.367 203.08C231.164 202.388 231.685 201.432 231.835 200.387C231.872 200.176 231.893 199.964 231.899 199.75C231.899 198.581 231.435 197.459 230.608 196.632C229.781 195.805 228.659 195.34 227.489 195.34C228.659 195.34 229.781 194.876 230.608 194.049C231.435 193.222 231.899 192.1 231.899 190.93" fill="var(--fill-0, #EE9593)"/>
<path id="&#227;&#131;&#145;&#227;&#130;&#185; 41" d="M109.357 312.152H73.6382V361.309H128.448V328.154L122.349 323.044L109.357 312.152ZM107.069 327.72H90.1215V325.561H107.069V327.72ZM83.2923 356L82.7656 353.905L91.0111 351.834L91.5378 353.929L83.2923 356ZM83.029 349.057C83.029 347.77 83.5399 346.537 84.4494 345.627C85.3589 344.718 86.5925 344.207 87.8787 344.207H91.2807V349.057H83.029ZM113.899 356L105.651 353.928L106.178 351.832L114.426 353.904L113.899 356ZM105.916 349.057V344.207H109.318C110.604 344.207 111.837 344.718 112.747 345.627C113.656 346.537 114.167 347.77 114.167 349.057H105.916ZM118.242 337.618H116.084V337.087C116.084 336.152 115.833 335.235 115.355 334.432C114.877 333.63 114.192 332.971 113.371 332.525C112.549 332.08 111.623 331.865 110.69 331.903C109.756 331.94 108.85 332.229 108.068 332.74L100.896 337.41C101.281 337.738 101.59 338.145 101.803 338.604C102.015 339.063 102.126 339.562 102.128 340.068V347.475H99.9697V340.068C99.9589 339.711 99.8096 339.373 99.5536 339.124C99.2976 338.876 98.9549 338.737 98.5981 338.737C98.2414 338.737 97.8988 338.876 97.6427 339.124C97.3867 339.373 97.2374 339.711 97.2266 340.068V347.475H95.0683V340.068C95.07 339.562 95.181 339.063 95.394 338.604C95.6069 338.145 95.9166 337.738 96.3018 337.41L89.1299 332.74C88.3473 332.229 87.4414 331.94 86.5079 331.903C85.5745 331.865 84.6482 332.08 83.827 332.525C83.0058 332.971 82.3201 333.63 81.8425 334.432C81.365 335.235 81.1132 336.152 81.1138 337.087V337.618H78.9554V337.087C78.9547 335.763 79.3115 334.465 79.988 333.328C80.6646 332.191 81.6358 331.258 82.7989 330.627C83.9621 329.996 85.274 329.692 86.596 329.746C87.918 329.799 89.2009 330.209 90.3093 330.931L98.6013 336.331L106.892 330.931C108 330.209 109.283 329.799 110.605 329.746C111.927 329.692 113.239 329.996 114.402 330.627C115.566 331.258 116.537 332.191 117.213 333.328C117.89 334.465 118.247 335.763 118.246 337.087L118.242 337.618Z" fill="var(--fill-0, #EE9593)"/>
<path id="&#227;&#131;&#145;&#227;&#130;&#185; 42" d="M29.6957 192.212C29.6957 191.042 29.2311 189.92 28.404 189.093C27.577 188.266 26.4553 187.802 25.2857 187.802H4.41C3.27818 187.856 2.21064 188.344 1.42879 189.164C0.646935 189.984 0.210778 191.074 0.210778 192.207C0.210778 193.34 0.646935 194.429 1.42879 195.25C2.21064 196.07 3.27818 196.557 4.41 196.612C3.27567 196.662 2.20463 197.149 1.41988 197.969C0.635139 198.79 0.197172 199.882 0.197172 201.017C0.197172 202.153 0.635139 203.244 1.41988 204.065C2.20463 204.886 3.27567 205.372 4.41 205.423C3.27567 205.474 2.20463 205.96 1.41988 206.781C0.635139 207.601 0.197172 208.693 0.197172 209.828C0.197172 210.964 0.635139 212.056 1.41988 212.876C2.20463 213.697 3.27567 214.183 4.41 214.234C3.27818 214.288 2.21064 214.776 1.42879 215.596C0.646935 216.416 0.210778 217.506 0.210778 218.639C0.210778 219.772 0.646935 220.862 1.42879 221.682C2.21064 222.502 3.27818 222.99 4.41 223.044H19.7165C19.7211 221.223 20.2259 219.438 21.1758 217.885C22.1257 216.331 23.4842 215.068 25.103 214.234C26.0283 213.743 27.0262 213.402 28.0589 213.226C28.7697 212.656 29.2854 211.879 29.5345 211.002C29.7837 210.126 29.7538 209.194 29.4491 208.335C29.1444 207.476 28.58 206.734 27.8341 206.21C27.0883 205.687 26.1981 205.409 25.2869 205.414C26.4565 205.414 27.5782 204.949 28.4053 204.122C29.2323 203.295 29.6969 202.174 29.6969 201.004C29.6912 200.79 29.6698 200.577 29.6327 200.366C29.4828 199.321 28.9616 198.365 28.1644 197.673C27.3673 196.981 26.3476 196.6 25.292 196.598C26.4616 196.598 27.5833 196.133 28.4103 195.306C29.2374 194.479 29.702 193.357 29.702 192.188" fill="var(--fill-0, #EE9593)"/>
<path id="&#227;&#131;&#145;&#227;&#130;&#185; 43" d="M19.4468 165.05C19.4435 168.754 20.179 172.422 21.6103 175.838C22.9455 177.165 23.8593 178.856 24.2374 180.7C26.7951 184.49 30.2444 187.594 34.2822 189.739C38.32 191.884 42.8228 193.004 47.3949 193.002V189.474C46.6809 189.474 45.9962 189.19 45.4914 188.685C44.9865 188.18 44.7029 187.496 44.7029 186.782C44.7029 186.068 44.9865 185.383 45.4914 184.878C45.9962 184.373 46.6809 184.09 47.3949 184.09V180.524C43.2921 180.524 39.3573 178.894 36.4562 175.993C33.5551 173.092 31.9252 169.157 31.9252 165.054C31.9252 160.952 33.5551 157.017 36.4562 154.116C39.3573 151.215 43.2921 149.585 47.3949 149.585V146.015C46.6809 146.015 45.9962 145.731 45.4914 145.227C44.9865 144.722 44.7029 144.037 44.7029 143.323C44.7029 142.609 44.9865 141.924 45.4914 141.42C45.9962 140.915 46.6809 140.631 47.3949 140.631V137.103C39.9819 137.103 32.8726 140.048 27.6309 145.29C22.3891 150.531 19.4443 157.641 19.4443 165.054M30.1329 147.779C30.5093 147.403 30.9889 147.146 31.5109 147.043C32.033 146.939 32.5741 146.992 33.0659 147.196C33.5576 147.4 33.9779 147.745 34.2736 148.187C34.5693 148.63 34.7272 149.15 34.7272 149.682C34.7272 150.215 34.5693 150.735 34.2736 151.178C33.9779 151.62 33.5576 151.965 33.0659 152.169C32.5741 152.372 32.033 152.426 31.5109 152.322C30.9889 152.218 30.5093 151.962 30.1329 151.586C29.8829 151.336 29.6847 151.039 29.5494 150.712C29.4141 150.386 29.3445 150.036 29.3445 149.682C29.3445 149.329 29.4141 148.979 29.5494 148.652C29.6847 148.326 29.8829 148.029 30.1329 147.779ZM30.1329 178.505C30.5093 178.129 30.9889 177.873 31.5109 177.769C32.033 177.665 32.5741 177.718 33.0659 177.922C33.5576 178.126 33.9779 178.471 34.2736 178.914C34.5693 179.356 34.7272 179.876 34.7272 180.409C34.7272 180.941 34.5693 181.461 34.2736 181.904C33.9779 182.346 33.5576 182.691 33.0659 182.895C32.5741 183.099 32.033 183.152 31.5109 183.048C30.9889 182.945 30.5093 182.688 30.1329 182.312C29.8829 182.062 29.6847 181.765 29.5494 181.439C29.4141 181.112 29.3445 180.762 29.3445 180.409C29.3445 180.055 29.4141 179.705 29.5494 179.379C29.6847 179.052 29.8829 178.755 30.1329 178.505ZM25.6725 167.738C25.1402 167.738 24.6198 167.58 24.1773 167.284C23.7347 166.988 23.3897 166.568 23.186 166.076C22.9823 165.584 22.929 165.043 23.0329 164.521C23.1367 163.999 23.393 163.519 23.7694 163.143C24.1458 162.767 24.6254 162.51 25.1474 162.407C25.6695 162.303 26.2107 162.356 26.7024 162.56C27.1942 162.763 27.6146 163.108 27.9103 163.551C28.206 163.994 28.3639 164.514 28.3639 165.046C28.3635 165.76 28.0799 166.444 27.5752 166.949C27.0705 167.454 26.3862 167.737 25.6725 167.738Z" fill="var(--fill-0, #FFEACE)"/>
<path id="&#227;&#131;&#145;&#227;&#130;&#185; 44" d="M115.949 131.17C115.256 131.17 114.578 131.375 114.002 131.76C113.426 132.145 112.977 132.693 112.712 133.333C112.446 133.973 112.377 134.678 112.512 135.357C112.647 136.037 112.981 136.662 113.471 137.152C113.961 137.642 114.586 137.975 115.265 138.111C115.945 138.246 116.65 138.176 117.29 137.911C117.93 137.646 118.477 137.197 118.863 136.621C119.248 136.044 119.453 135.367 119.453 134.674C119.452 133.745 119.082 132.854 118.425 132.198C117.768 131.541 116.878 131.171 115.949 131.17ZM115.949 136.021C115.683 136.021 115.423 135.942 115.201 135.794C114.98 135.646 114.808 135.436 114.706 135.19C114.604 134.945 114.577 134.674 114.629 134.413C114.681 134.152 114.809 133.912 114.997 133.724C115.185 133.536 115.425 133.407 115.686 133.355C115.947 133.303 116.217 133.33 116.463 133.431C116.709 133.533 116.919 133.705 117.067 133.927C117.215 134.148 117.294 134.408 117.295 134.674C117.294 135.031 117.152 135.373 116.9 135.625C116.648 135.878 116.306 136.02 115.949 136.021Z" fill="var(--fill-0, #FFEACE)"/>
<path id="&#233;&#149;&#183;&#230;&#150;&#185;&#229;&#189;&#162; 8" d="M126.578 122.518L122.897 126.199L124.423 127.725L128.104 124.044L126.578 122.518Z" fill="var(--fill-0, #FFEACE)"/>
<path id="&#233;&#149;&#183;&#230;&#150;&#185;&#229;&#189;&#162; 9" d="M107.476 141.621L103.794 145.303L105.32 146.829L109.002 143.147L107.476 141.621Z" fill="var(--fill-0, #FFEACE)"/>
<path id="&#233;&#149;&#183;&#230;&#150;&#185;&#229;&#189;&#162; 10" d="M124.423 141.621L122.897 143.147L126.578 146.83L128.105 145.304L124.423 141.621Z" fill="var(--fill-0, #FFEACE)"/>
<path id="&#233;&#149;&#183;&#230;&#150;&#185;&#229;&#189;&#162; 11" d="M105.32 122.518L103.794 124.044L107.475 127.726L109.001 126.2L105.32 122.518Z" fill="var(--fill-0, #FFEACE)"/>
<path id="&#227;&#131;&#145;&#227;&#130;&#185; 45" d="M88.573 68.4999V83.0743C87.2725 81.6482 85.514 80.722 83.6023 80.4564C81.6906 80.1908 79.7462 80.6024 78.1062 81.6199C76.4662 82.6374 75.2339 84.1968 74.6229 86.0276C74.0119 87.8583 74.0607 89.8452 74.7609 91.6438C75.4611 93.4423 76.7686 94.9392 78.4566 95.8749C80.1447 96.8106 82.1069 97.1262 84.0033 96.767C85.8996 96.4077 87.6104 95.3963 88.8393 93.908C90.0681 92.4197 90.7375 90.5484 90.7313 88.6183V47.8888H88.573V68.4999ZM82.9231 94.7331C82.7493 94.7482 82.5829 94.7848 82.4053 94.7848C80.7678 94.7848 79.1974 94.1343 78.0396 92.9764C76.8817 91.8186 76.2313 90.2482 76.2313 88.6108C76.1956 87.7785 76.3287 86.9476 76.6226 86.1681C76.9165 85.3886 77.3651 84.6767 77.9414 84.0751C78.5177 83.4736 79.2098 82.9949 79.9759 82.6678C80.7421 82.3408 81.5666 82.1722 82.3996 82.1722C83.2327 82.1722 84.0571 82.3408 84.8233 82.6678C85.5895 82.9949 86.2815 83.4736 86.8578 84.0751C87.4341 84.6767 87.8827 85.3886 88.1766 86.1681C88.4705 86.9476 88.6036 87.7785 88.568 88.6108C88.5631 90.1525 87.9799 91.6363 86.9337 92.7688C85.8876 93.9012 84.4546 94.6 82.9181 94.7268" fill="var(--fill-0, #FFEACE)"/>
<path id="&#227;&#131;&#145;&#227;&#130;&#185; 46" d="M150.996 104.409V93.8649H148.838V104.409H150.996Z" fill="var(--fill-0, #FFEACE)"/>
<path id="&#233;&#149;&#183;&#230;&#150;&#185;&#229;&#189;&#162; 12" d="M137.492 93.865H135.334V104.409H137.492V93.865Z" fill="var(--fill-0, #FFEACE)"/>
<path id="&#233;&#149;&#183;&#230;&#150;&#185;&#229;&#189;&#162; 13" d="M121.927 93.4232L117.591 103.06L119.559 103.946L123.895 94.3088L121.927 93.4232Z" fill="var(--fill-0, #FFEACE)"/>
<path id="&#227;&#131;&#145;&#227;&#130;&#185; 47" d="M217.177 22.6649L202.454 39.9332V167.743H231.899V39.9332L217.177 22.6649ZM218.257 167.741H216.099V38.7639H218.257V167.741Z" fill="var(--fill-0, #FFEACE)"/>
<path id="&#227;&#131;&#145;&#227;&#130;&#185; 48" d="M207.661 220.07C205.103 216.28 201.653 213.176 197.615 211.031C193.576 208.886 189.073 207.766 184.501 207.769V211.297C185.215 211.297 185.899 211.581 186.404 212.085C186.909 212.59 187.193 213.275 187.193 213.989C187.193 214.703 186.909 215.388 186.404 215.892C185.899 216.397 185.215 216.681 184.501 216.681V220.247C188.603 220.247 192.538 221.877 195.439 224.778C198.34 227.679 199.97 231.614 199.97 235.716C199.97 239.819 198.34 243.754 195.439 246.655C192.538 249.556 188.603 251.186 184.501 251.186V254.752C185.215 254.752 185.899 255.035 186.404 255.54C186.909 256.045 187.193 256.73 187.193 257.444C187.193 258.158 186.909 258.843 186.404 259.347C185.899 259.852 185.215 260.136 184.501 260.136V263.664C189.574 263.665 194.553 262.285 198.902 259.671C203.251 257.057 206.806 253.309 209.187 248.828C211.567 244.347 212.683 239.303 212.414 234.236C212.145 229.17 210.502 224.272 207.661 220.068M201.768 252.985C201.391 253.362 200.912 253.618 200.39 253.722C199.867 253.826 199.326 253.772 198.835 253.569C198.343 253.365 197.923 253.02 197.627 252.577C197.331 252.135 197.173 251.614 197.173 251.082C197.173 250.55 197.331 250.029 197.627 249.587C197.923 249.144 198.343 248.799 198.835 248.596C199.326 248.392 199.867 248.339 200.39 248.442C200.912 248.546 201.391 248.802 201.768 249.179C202.272 249.684 202.556 250.368 202.556 251.082C202.556 251.796 202.272 252.48 201.768 252.985ZM201.768 222.259C201.391 222.635 200.912 222.892 200.39 222.995C199.867 223.099 199.326 223.046 198.835 222.842C198.343 222.638 197.923 222.293 197.627 221.851C197.331 221.408 197.173 220.888 197.173 220.356C197.173 219.823 197.331 219.303 197.627 218.861C197.923 218.418 198.343 218.073 198.835 217.869C199.326 217.666 199.867 217.612 200.39 217.716C200.912 217.82 201.391 218.076 201.768 218.453C202.272 218.957 202.556 219.642 202.556 220.356C202.556 221.069 202.272 221.754 201.768 222.259ZM206.228 238.411C205.696 238.411 205.175 238.253 204.733 237.957C204.29 237.662 203.945 237.241 203.741 236.749C203.538 236.258 203.485 235.717 203.588 235.194C203.692 234.672 203.948 234.193 204.325 233.816C204.701 233.44 205.181 233.184 205.703 233.08C206.225 232.976 206.766 233.029 207.258 233.233C207.75 233.437 208.17 233.782 208.466 234.224C208.762 234.667 208.919 235.187 208.919 235.72C208.919 236.433 208.636 237.118 208.131 237.623C207.626 238.127 206.942 238.411 206.228 238.411Z" fill="var(--fill-0, #FFEACE)"/>
<path id="&#227;&#131;&#145;&#227;&#130;&#185; 49" d="M172.911 182.794L168.933 186.771C168.444 187.261 168.153 187.914 168.116 188.605C168.079 189.296 168.297 189.977 168.73 190.517C169.163 191.057 169.78 191.418 170.463 191.532C171.146 191.645 171.847 191.503 172.431 191.132L171.011 194.03H174.811L173.391 191.132C173.975 191.503 174.676 191.645 175.359 191.532C176.042 191.418 176.659 191.057 177.092 190.517C177.525 189.977 177.744 189.296 177.706 188.605C177.669 187.914 177.378 187.261 176.889 186.771L172.911 182.794Z" fill="var(--fill-0, #FFEACE)"/>
<path id="&#227;&#131;&#145;&#227;&#130;&#185; 50" d="M172.911 158.849L168.933 162.826C168.441 163.315 168.147 163.969 168.108 164.662C168.069 165.355 168.288 166.037 168.722 166.578C169.156 167.12 169.775 167.481 170.46 167.594C171.145 167.706 171.847 167.561 172.431 167.187L171.011 170.085H174.811L173.391 167.187C173.975 167.561 174.677 167.706 175.362 167.594C176.047 167.481 176.666 167.12 177.1 166.578C177.534 166.037 177.753 165.355 177.714 164.662C177.675 163.969 177.381 163.315 176.889 162.826L172.911 158.849Z" fill="var(--fill-0, #FFEACE)"/>
<path id="&#227;&#131;&#145;&#227;&#130;&#185; 51" d="M172.911 134.904L168.931 138.887C168.439 139.376 168.145 140.03 168.106 140.723C168.067 141.416 168.286 142.098 168.72 142.64C169.154 143.181 169.773 143.542 170.457 143.655C171.142 143.767 171.844 143.622 172.428 143.248L171.008 146.146H174.809L173.389 143.248C173.973 143.622 174.675 143.767 175.36 143.655C176.044 143.542 176.663 143.181 177.097 142.64C177.531 142.098 177.75 141.416 177.711 140.723C177.672 140.03 177.378 139.376 176.886 138.887L172.911 134.904Z" fill="var(--fill-0, #FFEACE)"/>
<path id="&#227;&#131;&#145;&#227;&#130;&#185; 52" d="M172.911 110.961L168.933 114.937C168.441 115.426 168.147 116.08 168.108 116.773C168.069 117.466 168.288 118.148 168.722 118.69C169.156 119.231 169.775 119.592 170.46 119.705C171.145 119.817 171.847 119.672 172.431 119.298L171.011 122.196H174.811L173.391 119.298C173.975 119.672 174.677 119.817 175.362 119.705C176.047 119.592 176.666 119.231 177.1 118.69C177.534 118.148 177.753 117.466 177.714 116.773C177.675 116.08 177.381 115.426 176.889 114.937L172.911 110.961Z" fill="var(--fill-0, #FFEACE)"/>
<path id="&#227;&#131;&#145;&#227;&#130;&#185; 53" d="M172.911 278.575L168.933 282.551C168.442 283.041 168.149 283.694 168.111 284.386C168.072 285.078 168.291 285.76 168.724 286.301C169.158 286.842 169.776 287.203 170.46 287.316C171.144 287.429 171.845 287.285 172.43 286.912L171.01 289.81H174.81L173.39 286.912C173.974 287.286 174.676 287.431 175.361 287.319C176.045 287.206 176.664 286.845 177.099 286.304C177.533 285.762 177.751 285.08 177.712 284.387C177.673 283.694 177.38 283.04 176.888 282.551L172.911 278.575Z" fill="var(--fill-0, #FFEACE)"/>
<path id="&#227;&#131;&#145;&#227;&#130;&#185; 54" d="M172.911 254.63L168.933 258.606C168.442 259.095 168.149 259.749 168.111 260.441C168.072 261.133 168.291 261.815 168.724 262.356C169.158 262.897 169.776 263.258 170.46 263.371C171.144 263.484 171.845 263.34 172.43 262.967L171.01 265.865H174.81L173.39 262.967C173.974 263.341 174.676 263.486 175.361 263.374C176.045 263.261 176.664 262.9 177.099 262.359C177.533 261.817 177.751 261.135 177.712 260.442C177.673 259.749 177.38 259.095 176.888 258.606L172.911 254.63Z" fill="var(--fill-0, #FFEACE)"/>
<path id="&#227;&#131;&#145;&#227;&#130;&#185; 55" d="M172.911 230.685L168.933 234.662C168.442 235.152 168.149 235.805 168.111 236.497C168.072 237.189 168.291 237.871 168.724 238.412C169.158 238.953 169.776 239.315 170.46 239.427C171.144 239.54 171.845 239.396 172.43 239.023L171.01 241.921H174.81L173.39 239.023C173.974 239.397 174.676 239.542 175.361 239.43C176.045 239.318 176.664 238.956 177.099 238.415C177.533 237.874 177.751 237.191 177.712 236.498C177.673 235.805 177.38 235.152 176.888 234.662L172.911 230.685Z" fill="var(--fill-0, #FFEACE)"/>
<path id="&#227;&#131;&#145;&#227;&#130;&#185; 56" d="M172.911 206.74L168.933 210.716C168.442 211.205 168.149 211.859 168.111 212.551C168.072 213.243 168.291 213.925 168.724 214.466C169.158 215.007 169.776 215.368 170.46 215.481C171.144 215.594 171.845 215.45 172.43 215.077L171.01 217.975H174.81L173.39 215.077C173.974 215.451 174.676 215.596 175.361 215.484C176.045 215.371 176.664 215.01 177.099 214.468C177.533 213.927 177.751 213.245 177.712 212.552C177.673 211.859 177.38 211.205 176.888 210.716L172.911 206.74Z" fill="var(--fill-0, #FFEACE)"/>
<path id="&#227;&#131;&#145;&#227;&#130;&#185; 57" d="M59.4682 113.859L60.8882 110.961H57.0818L58.5018 113.859C57.9175 113.484 57.2155 113.34 56.5308 113.452C55.8461 113.564 55.2272 113.926 54.7931 114.467C54.3589 115.008 54.1403 115.691 54.1793 116.384C54.2182 117.076 54.512 117.73 55.004 118.22L58.9806 122.196L62.9572 118.22C63.4492 117.73 63.743 117.076 63.7819 116.384C63.8209 115.691 63.6023 115.008 63.1681 114.467C62.734 113.926 62.1151 113.564 61.4304 113.452C60.7457 113.34 60.0437 113.484 59.4594 113.859" fill="var(--fill-0, #FFEACE)"/>
<path id="&#227;&#131;&#145;&#227;&#130;&#185; 58" d="M59.4682 137.802L60.8882 134.904H57.0818L58.5018 137.802C57.9174 137.432 57.2167 137.289 56.534 137.403C55.8512 137.516 55.2342 137.877 54.8012 138.417C54.3681 138.957 54.1494 139.638 54.1868 140.329C54.2242 141.02 54.5152 141.673 55.004 142.163L58.9806 146.14L62.9572 142.163C63.446 141.673 63.737 141.02 63.7744 140.329C63.8119 139.638 63.5931 138.957 63.1601 138.417C62.727 137.877 62.11 137.516 61.4272 137.403C60.7445 137.289 60.0438 137.432 59.4594 137.802" fill="var(--fill-0, #FFEACE)"/>
<path id="&#227;&#131;&#145;&#227;&#130;&#185; 59" d="M59.4682 161.747L60.8882 158.849H57.0818L58.5018 161.747C57.9175 161.373 57.2155 161.228 56.5308 161.341C55.8461 161.453 55.2272 161.815 54.7931 162.356C54.3589 162.897 54.1403 163.58 54.1793 164.273C54.2182 164.965 54.512 165.619 55.004 166.108L58.9806 170.085L62.9572 166.108C63.4492 165.619 63.743 164.965 63.7819 164.273C63.8209 163.58 63.6023 162.897 63.1681 162.356C62.734 161.815 62.1151 161.453 61.4304 161.341C60.7457 161.228 60.0437 161.373 59.4594 161.747" fill="var(--fill-0, #FFEACE)"/>
<path id="&#227;&#131;&#145;&#227;&#130;&#185; 60" d="M59.4682 185.693L60.8882 182.794H57.0818L58.5018 185.693C57.9175 185.318 57.2155 185.174 56.5308 185.286C55.8461 185.398 55.2272 185.76 54.7931 186.301C54.3589 186.842 54.1403 187.525 54.1793 188.218C54.2182 188.91 54.512 189.564 55.004 190.053L58.9806 194.03L62.9572 190.053C63.4492 189.564 63.743 188.91 63.7819 188.218C63.8209 187.525 63.6023 186.842 63.1681 186.301C62.734 185.76 62.1151 185.398 61.4304 185.286C60.7457 185.174 60.0437 185.318 59.4594 185.693" fill="var(--fill-0, #FFEACE)"/>
<path id="&#227;&#131;&#145;&#227;&#130;&#185; 61" d="M59.4682 209.638L60.8882 206.74H57.0818L58.5018 209.638C57.9176 209.265 57.2163 209.121 56.5325 209.233C55.8486 209.346 55.2305 209.707 54.7968 210.248C54.3631 210.789 54.1444 211.47 54.1827 212.162C54.2209 212.854 54.5134 213.508 55.004 213.997L58.9806 217.974L62.9572 213.997C63.4468 213.508 63.7385 212.854 63.7764 212.163C63.8143 211.472 63.5956 210.791 63.1624 210.251C62.7292 209.71 62.1119 209.349 61.4288 209.236C60.7457 209.123 60.0449 209.266 59.4607 209.638" fill="var(--fill-0, #FFEACE)"/>
<path id="&#227;&#131;&#145;&#227;&#130;&#185; 62" d="M59.4682 233.583L60.8882 230.685H57.0818L58.5018 233.583C57.9175 233.208 57.2155 233.064 56.5308 233.176C55.8461 233.288 55.2272 233.65 54.7931 234.191C54.3589 234.732 54.1403 235.415 54.1793 236.108C54.2182 236.8 54.512 237.454 55.004 237.943L58.9806 241.92L62.9572 237.943C63.4482 237.454 63.7411 236.801 63.7797 236.109C63.8183 235.416 63.5998 234.734 63.1662 234.194C62.7326 233.653 62.1144 233.291 61.4304 233.179C60.7465 233.066 60.045 233.21 59.4607 233.583" fill="var(--fill-0, #FFEACE)"/>
<path id="&#227;&#131;&#145;&#227;&#130;&#185; 63" d="M59.4682 257.521L60.8882 254.623H57.0818L58.5018 257.521C57.9175 257.147 57.2155 257.002 56.5308 257.115C55.8461 257.227 55.2272 257.589 54.7931 258.13C54.3589 258.671 54.1403 259.354 54.1793 260.046C54.2182 260.739 54.512 261.393 55.004 261.882L58.9806 265.859L62.9572 261.882C63.4482 261.393 63.7411 260.739 63.7797 260.047C63.8183 259.355 63.5998 258.673 63.1662 258.132C62.7326 257.592 62.1144 257.23 61.4304 257.117C60.7465 257.004 60.045 257.148 59.4607 257.521" fill="var(--fill-0, #FFEACE)"/>
<path id="&#227;&#131;&#145;&#227;&#130;&#185; 64" d="M59.4682 281.473L60.8882 278.575H57.0818L58.5018 281.473C57.9175 281.099 57.2155 280.954 56.5308 281.066C55.8461 281.178 55.2272 281.54 54.7931 282.081C54.3589 282.622 54.1403 283.305 54.1793 283.998C54.2182 284.69 54.512 285.344 55.004 285.834L58.9806 289.81L62.9572 285.834C63.4482 285.344 63.7411 284.691 63.7797 283.999C63.8183 283.307 63.5998 282.625 63.1662 282.084C62.7326 281.543 62.1144 281.181 61.4304 281.069C60.7465 280.956 60.045 281.1 59.4607 281.473" fill="var(--fill-0, #FFEACE)"/>
<path id="&#227;&#131;&#145;&#227;&#130;&#185; 65" d="M115.949 262.595C115.256 262.596 114.579 262.801 114.003 263.186C113.427 263.571 112.979 264.118 112.714 264.759C112.449 265.399 112.38 266.103 112.515 266.782C112.65 267.462 112.984 268.086 113.474 268.575C113.964 269.065 114.588 269.399 115.267 269.534C115.947 269.669 116.651 269.599 117.291 269.334C117.931 269.069 118.478 268.62 118.863 268.044C119.248 267.468 119.453 266.791 119.453 266.098C119.451 265.169 119.082 264.279 118.425 263.623C117.768 262.966 116.878 262.597 115.949 262.595ZM115.949 267.444C115.683 267.444 115.423 267.365 115.202 267.217C114.981 267.069 114.809 266.859 114.708 266.613C114.606 266.367 114.58 266.097 114.632 265.836C114.684 265.576 114.812 265.336 115 265.148C115.188 264.96 115.428 264.832 115.688 264.781C115.949 264.729 116.219 264.756 116.465 264.857C116.711 264.959 116.92 265.131 117.068 265.353C117.216 265.574 117.295 265.834 117.295 266.099C117.294 266.456 117.152 266.798 116.9 267.05C116.647 267.302 116.306 267.443 115.949 267.444Z" fill="var(--fill-0, #FFEACE)"/>
<path id="&#233;&#149;&#183;&#230;&#150;&#185;&#229;&#189;&#162; 14" d="M107.476 273.043L103.794 276.726L105.32 278.252L109.002 274.569L107.476 273.043Z" fill="var(--fill-0, #FFEACE)"/>
<path id="&#233;&#149;&#183;&#230;&#150;&#185;&#229;&#189;&#162; 15" d="M126.578 253.941L122.897 257.622L124.423 259.148L128.104 255.467L126.578 253.941Z" fill="var(--fill-0, #FFEACE)"/>
<path id="&#233;&#149;&#183;&#230;&#150;&#185;&#229;&#189;&#162; 16" d="M105.32 253.941L103.794 255.468L107.475 259.149L109.001 257.623L105.32 253.941Z" fill="var(--fill-0, #FFEACE)"/>
<path id="&#233;&#149;&#183;&#230;&#150;&#185;&#229;&#189;&#162; 17" d="M124.423 273.044L122.897 274.57L126.578 278.253L128.105 276.727L124.423 273.044Z" fill="var(--fill-0, #FFEACE)"/>
<path id="&#227;&#131;&#145;&#227;&#130;&#185; 66" d="M154.696 305.703C153.478 304.715 152.005 304.094 150.447 303.909C148.89 303.724 147.312 303.985 145.897 304.659C144.481 305.334 143.286 306.396 142.449 307.722C141.612 309.048 141.167 310.584 141.167 312.152V352.881H143.325V317.694C144.684 319.236 146.571 320.213 148.615 320.432C150.659 320.651 152.711 320.095 154.365 318.875C154.997 318.41 155.56 317.858 156.038 317.236C157.212 315.768 157.842 313.94 157.821 312.061C157.801 310.181 157.131 308.367 155.926 306.925C155.56 306.475 155.149 306.064 154.698 305.699M155.663 312.149C155.595 313.739 154.915 315.241 153.766 316.342C152.616 317.443 151.086 318.058 149.495 318.058C147.903 318.058 146.373 317.443 145.223 316.342C144.074 315.241 143.394 313.739 143.326 312.149C143.331 310.607 143.914 309.123 144.96 307.991C146.007 306.858 147.44 306.159 148.976 306.033C149.15 306.017 149.318 305.98 149.494 305.98C151.131 305.98 152.702 306.63 153.86 307.788C155.018 308.946 155.668 310.516 155.668 312.154L155.663 312.149Z" fill="var(--fill-0, #FFEACE)"/>
<path id="&#227;&#131;&#145;&#227;&#130;&#185; 67" d="M80.9033 296.36V306.903H83.0655V296.36H80.9071H80.9033Z" fill="var(--fill-0, #FFEACE)"/>
<path id="&#233;&#149;&#183;&#230;&#150;&#185;&#229;&#189;&#162; 18" d="M96.5639 296.36H94.4055V306.903H96.5639V296.36Z" fill="var(--fill-0, #FFEACE)"/>
<path id="&#233;&#149;&#183;&#230;&#150;&#185;&#229;&#189;&#162; 19" d="M112.338 296.823L108.005 306.462L109.973 307.347L114.306 297.708L112.338 296.823Z" fill="var(--fill-0, #FFEACE)"/>
<path id="&#227;&#131;&#145;&#227;&#130;&#185; 68" d="M15.8017 266.971V361.999H13.6433V233.028H0V360.836L14.7218 378.105L29.4437 360.836V233.028H15.8017V266.971Z" fill="var(--fill-0, #FFEACE)"/>
<path id="&#227;&#131;&#145;&#227;&#130;&#185; 69" d="M209.006 212.964C208.004 214.505 207.469 216.304 207.467 218.143C207.466 218.79 207.531 219.435 207.661 220.069C208.695 221.599 209.576 223.228 210.289 224.931C211.962 226.597 214.192 227.586 216.55 227.708C218.908 227.829 221.228 227.076 223.064 225.591C224.901 224.107 226.124 221.997 226.499 219.665C226.874 217.334 226.374 214.947 225.096 212.961L209.006 212.964Z" fill="var(--fill-0, #FFC94A)"/>
<path id="&#227;&#131;&#145;&#227;&#130;&#185; 70" d="M80.9613 109.585C80.0109 109.528 79.0654 109.407 78.1314 109.222V192.829H89.8141V130.671L80.9613 109.585Z" fill="var(--fill-0, #FFC94A)"/>
<path id="&#227;&#131;&#145;&#227;&#130;&#185; 71" d="M70.5764 106.016V200.39V298.575H73.6382V291.118H75.978V205.781H91.98L91.8956 270.729L83.3402 291.112H89.1942L89.7536 289.779L97.3766 271.617V201.461H92.9779V199.303H97.3766V129.153L88.7796 108.671C86.9964 109.229 85.1468 109.545 83.2797 109.614L91.9737 130.458V194.989H75.978V108.647C74.0626 108.034 72.2455 107.148 70.5827 106.016" fill="var(--fill-0, #FFC94A)"/>
<path id="&#227;&#131;&#145;&#227;&#130;&#185; 72" d="M153.768 192.829V109.658H150.908L142.088 130.675V192.83L153.768 192.829Z" fill="var(--fill-0, #FFC94A)"/>
<path id="&#227;&#131;&#145;&#227;&#130;&#185; 73" d="M122.318 182.762V170.774C122.318 169.085 121.647 167.465 120.453 166.27C119.258 165.076 117.638 164.405 115.949 164.405C114.26 164.405 112.64 165.076 111.445 166.27C110.251 167.465 109.58 169.085 109.58 170.774V182.762H111.738V170.774C111.738 169.657 112.182 168.586 112.971 167.797C113.761 167.007 114.832 166.563 115.949 166.563C117.066 166.563 118.137 167.007 118.927 167.797C119.716 168.586 120.16 169.657 120.16 170.774V182.762H122.318Z" fill="var(--fill-0, #FFC94A)"/>
<path id="&#227;&#131;&#145;&#227;&#130;&#185; 74" d="M115.955 133.328C115.689 133.328 115.429 133.407 115.208 133.555C114.986 133.703 114.814 133.913 114.712 134.159C114.61 134.405 114.584 134.676 114.636 134.937C114.688 135.198 114.816 135.438 115.004 135.626C115.193 135.814 115.432 135.942 115.694 135.994C115.955 136.046 116.225 136.019 116.471 135.917C116.717 135.815 116.927 135.642 117.075 135.421C117.222 135.199 117.301 134.939 117.301 134.673C117.3 134.316 117.158 133.974 116.906 133.722C116.654 133.47 116.312 133.328 115.955 133.328Z" fill="var(--fill-0, #FFC94A)"/>
<path id="&#227;&#131;&#145;&#227;&#130;&#185; 75" d="M115.949 124.798C115.388 124.798 114.833 124.908 114.316 125.123C113.798 125.337 113.327 125.652 112.931 126.048C112.535 126.445 112.22 126.915 112.006 127.433C111.791 127.951 111.681 128.506 111.681 129.067V130.406H110.342C109.775 130.396 109.212 130.5 108.686 130.71C108.16 130.92 107.68 131.233 107.276 131.63C106.872 132.027 106.551 132.501 106.332 133.024C106.113 133.547 106 134.108 106 134.674C106 135.241 106.113 135.802 106.332 136.325C106.551 136.848 106.872 137.322 107.276 137.719C107.68 138.116 108.16 138.429 108.686 138.639C109.212 138.849 109.775 138.952 110.342 138.943H111.681V140.282C111.681 141.414 112.131 142.5 112.932 143.3C113.732 144.101 114.818 144.55 115.95 144.55C117.082 144.55 118.167 144.101 118.968 143.3C119.768 142.5 120.218 141.414 120.218 140.282V138.943H121.557C122.124 138.952 122.687 138.849 123.213 138.639C123.74 138.429 124.219 138.116 124.623 137.719C125.027 137.322 125.348 136.848 125.567 136.325C125.787 135.802 125.899 135.241 125.899 134.674C125.899 134.108 125.787 133.547 125.567 133.024C125.348 132.501 125.027 132.027 124.623 131.63C124.219 131.233 123.74 130.92 123.213 130.71C122.687 130.5 122.124 130.396 121.557 130.406H120.218V129.067C120.218 127.935 119.768 126.849 118.968 126.049C118.168 125.248 117.082 124.798 115.95 124.798M115.95 138.179C115.257 138.179 114.58 137.974 114.004 137.589C113.427 137.204 112.978 136.657 112.713 136.016C112.448 135.376 112.378 134.672 112.513 133.992C112.649 133.312 112.982 132.688 113.472 132.198C113.962 131.708 114.586 131.374 115.266 131.239C115.946 131.103 116.65 131.172 117.29 131.437C117.931 131.702 118.478 132.151 118.863 132.727C119.248 133.304 119.454 133.981 119.454 134.674C119.453 135.603 119.084 136.494 118.427 137.151C117.77 137.808 116.879 138.178 115.95 138.179Z" fill="var(--fill-0, #FFC94A)"/>
<path id="&#227;&#131;&#145;&#227;&#130;&#185; 76" d="M75.8621 30.4126L85.234 24.9329L95.8432 30.4126L106.452 24.9329L117.062 30.4126L127.671 24.9329L138.28 30.4126L148.889 24.9329L158.122 30.4126H158.261L172.406 0H61.7148L75.8621 30.4126ZM148.888 12.348C149.829 12.348 150.749 12.6271 151.532 13.15C152.314 13.673 152.924 14.4162 153.285 15.2858C153.645 16.1554 153.739 17.1123 153.555 18.0355C153.372 18.9586 152.919 19.8066 152.253 20.4722C151.587 21.1377 150.739 21.591 149.816 21.7746C148.893 21.9582 147.936 21.864 147.067 21.5038C146.197 21.1436 145.454 20.5336 144.931 19.751C144.408 18.9684 144.129 18.0483 144.129 17.107C144.129 15.8448 144.63 14.6344 145.523 13.7419C146.415 12.8494 147.626 12.348 148.888 12.348ZM127.669 12.348C128.611 12.348 129.531 12.6271 130.313 13.15C131.096 13.673 131.706 14.4162 132.066 15.2858C132.426 16.1554 132.521 17.1123 132.337 18.0355C132.153 18.9586 131.7 19.8066 131.035 20.4722C130.369 21.1377 129.521 21.591 128.598 21.7746C127.675 21.9582 126.718 21.864 125.848 21.5038C124.979 21.1436 124.235 20.5336 123.712 19.751C123.19 18.9684 122.91 18.0483 122.91 17.107C122.91 15.8448 123.412 14.6344 124.304 13.7419C125.197 12.8494 126.407 12.348 127.669 12.348ZM106.451 12.348C107.392 12.348 108.312 12.6271 109.095 13.15C109.878 13.673 110.488 14.4162 110.848 15.2858C111.208 16.1554 111.302 17.1123 111.119 18.0355C110.935 18.9586 110.482 19.8066 109.816 20.4722C109.151 21.1377 108.303 21.591 107.38 21.7746C106.456 21.9582 105.499 21.864 104.63 21.5038C103.76 21.1436 103.017 20.5336 102.494 19.751C101.971 18.9684 101.692 18.0483 101.692 17.107C101.692 15.8448 102.193 14.6344 103.086 13.7419C103.978 12.8494 105.189 12.348 106.451 12.348ZM85.2327 12.348C86.1739 12.348 87.0941 12.6271 87.8767 13.15C88.6593 13.673 89.2693 14.4162 89.6295 15.2858C89.9897 16.1554 90.0839 17.1123 89.9003 18.0355C89.7166 18.9586 89.2634 19.8066 88.5978 20.4722C87.9323 21.1377 87.0843 21.591 86.1611 21.7746C85.238 21.9582 84.2811 21.864 83.4115 21.5038C82.5419 21.1436 81.7986 20.5336 81.2757 19.751C80.7528 18.9684 80.4737 18.0483 80.4737 17.107C80.4737 15.8448 80.9751 14.6344 81.8676 13.7419C82.7601 12.8494 83.9705 12.348 85.2327 12.348Z" fill="var(--fill-0, #FFC94A)"/>
<path id="&#227;&#131;&#145;&#227;&#130;&#185; 77" d="M202.453 167.741H202.201C200.805 167.715 199.42 167.982 198.133 168.525C196.847 169.067 195.689 169.874 194.734 170.892C193.779 171.91 193.048 173.117 192.588 174.435C192.129 175.753 191.951 177.153 192.066 178.544C192.181 179.936 192.587 181.287 193.257 182.512C193.927 183.737 194.846 184.807 195.956 185.655C197.065 186.502 198.34 187.107 199.698 187.431C201.056 187.755 202.467 187.79 203.839 187.535C204.872 187.358 205.87 187.018 206.795 186.527C208.414 185.692 209.772 184.429 210.722 182.875C211.672 181.322 212.177 179.537 212.181 177.715H231.898V167.736L202.453 167.741Z" fill="var(--fill-0, #FFC94A)"/>
<path id="&#227;&#131;&#145;&#227;&#130;&#185; 78" d="M22.8917 187.807C23.8288 186.36 24.3583 184.687 24.4244 182.964C24.4904 181.241 24.0906 179.532 23.267 178.018C22.4434 176.503 21.2265 175.239 19.7446 174.358C18.2627 173.477 16.5706 173.012 14.8466 173.012C13.1226 173.012 11.4304 173.477 9.94853 174.358C8.46662 175.239 7.24976 176.503 6.42617 178.018C5.60258 179.532 5.20275 181.241 5.2688 182.964C5.33485 184.687 5.86434 186.36 6.80148 187.807H22.8917Z" fill="var(--fill-0, #FFC94A)"/>
<path id="&#227;&#131;&#145;&#227;&#130;&#185; 79" d="M150.937 291.185C151.887 291.241 152.833 291.363 153.767 291.548V207.939H142.084V270.094L150.937 291.185Z" fill="var(--fill-0, #FFC94A)"/>
<path id="&#227;&#131;&#145;&#227;&#130;&#185; 80" d="M138.929 201.464H134.529V271.617L143.126 292.098C144.909 291.541 146.759 291.224 148.626 291.156L139.932 270.312V205.781H155.934V292.122C157.849 292.736 159.666 293.622 161.329 294.753V200.379V102.201H158.267V109.653H155.92V194.982H139.918L140.002 130.035L148.558 109.653H142.704L142.144 110.986L134.521 129.147V199.299H138.921V201.458L138.929 201.464Z" fill="var(--fill-0, #FFC94A)"/>
<path id="&#227;&#131;&#145;&#227;&#130;&#185; 81" d="M78.1313 207.939V291.112H80.9915L89.8115 270.095V207.939H78.1313Z" fill="var(--fill-0, #FFC94A)"/>
<path id="&#227;&#131;&#145;&#227;&#130;&#185; 82" d="M109.58 218.008V229.998C109.58 231.687 110.251 233.307 111.445 234.502C112.64 235.696 114.26 236.367 115.949 236.367C117.638 236.367 119.258 235.696 120.453 234.502C121.647 233.307 122.318 231.687 122.318 229.998V218.008H120.16V229.998C120.16 231.115 119.716 232.186 118.927 232.975C118.137 233.765 117.066 234.209 115.949 234.209C114.832 234.209 113.761 233.765 112.971 232.975C112.182 232.186 111.738 231.115 111.738 229.998V218.008H109.58Z" fill="var(--fill-0, #FFC94A)"/>
<path id="&#227;&#131;&#145;&#227;&#130;&#185; 83" d="M115.955 267.441C116.221 267.441 116.481 267.362 116.702 267.214C116.923 267.066 117.095 266.856 117.196 266.61C117.298 266.365 117.324 266.094 117.272 265.834C117.22 265.573 117.092 265.334 116.904 265.146C116.716 264.958 116.477 264.83 116.216 264.778C115.955 264.726 115.685 264.753 115.439 264.855C115.194 264.957 114.984 265.129 114.836 265.35C114.688 265.571 114.61 265.831 114.61 266.097C114.61 266.453 114.752 266.795 115.005 267.047C115.257 267.299 115.599 267.441 115.955 267.441Z" fill="var(--fill-0, #FFC94A)"/>
<path id="&#227;&#131;&#145;&#227;&#130;&#185; 84" d="M110.342 270.362H111.681V271.701C111.681 272.833 112.131 273.919 112.932 274.719C113.732 275.52 114.818 275.97 115.95 275.97C117.082 275.97 118.167 275.52 118.968 274.719C119.768 273.919 120.218 272.833 120.218 271.701V270.362H121.557C122.677 270.343 123.744 269.885 124.528 269.086C125.313 268.288 125.753 267.213 125.753 266.094C125.753 264.974 125.313 263.9 124.528 263.101C123.744 262.303 122.677 261.845 121.557 261.825H120.218V260.486C120.218 259.354 119.768 258.268 118.968 257.468C118.167 256.668 117.082 256.218 115.95 256.218C114.818 256.218 113.732 256.668 112.932 257.468C112.131 258.268 111.681 259.354 111.681 260.486V261.825H110.342C109.775 261.816 109.212 261.919 108.686 262.129C108.16 262.339 107.68 262.652 107.276 263.049C106.872 263.447 106.551 263.921 106.332 264.443C106.113 264.966 106 265.527 106 266.094C106 266.661 106.113 267.222 106.332 267.744C106.551 268.267 106.872 268.741 107.276 269.138C107.68 269.535 108.16 269.848 108.686 270.058C109.212 270.269 109.775 270.372 110.342 270.362ZM115.949 262.59C116.642 262.591 117.319 262.796 117.895 263.181C118.47 263.566 118.919 264.113 119.184 264.753C119.449 265.393 119.518 266.097 119.383 266.777C119.248 267.456 118.914 268.08 118.425 268.57C117.935 269.06 117.311 269.393 116.631 269.529C115.952 269.664 115.248 269.594 114.608 269.329C113.968 269.065 113.421 268.616 113.036 268.04C112.651 267.464 112.445 266.787 112.445 266.094C112.446 265.165 112.816 264.275 113.473 263.618C114.13 262.961 115.02 262.592 115.949 262.59Z" fill="var(--fill-0, #FFC94A)"/>
<path id="&#227;&#131;&#145;&#227;&#130;&#185; 85" d="M146.667 375.843L136.057 370.281L125.448 375.843L114.839 370.281L104.23 375.843L93.6205 370.281L83.0113 375.843L73.778 370.281H73.6394L59.4934 400.773H170.184L156.038 370.281L146.667 375.843ZM83.01 388.434C82.0688 388.434 81.1487 388.155 80.3661 387.632C79.5835 387.109 78.9735 386.366 78.6133 385.496C78.2531 384.627 78.1589 383.67 78.3425 382.747C78.5261 381.823 78.9794 380.976 79.6449 380.31C80.3105 379.644 81.1585 379.191 82.0816 379.008C83.0048 378.824 83.9617 378.918 84.8313 379.278C85.7009 379.638 86.4441 380.248 86.967 381.031C87.49 381.814 87.7691 382.734 87.7691 383.675C87.7691 384.937 87.2677 386.148 86.3752 387.04C85.4827 387.933 84.2722 388.434 83.01 388.434ZM104.228 388.434C103.287 388.434 102.367 388.155 101.584 387.632C100.802 387.109 100.192 386.366 99.8317 385.496C99.4715 384.627 99.3772 383.67 99.5609 382.747C99.7445 381.823 100.198 380.976 100.863 380.31C101.529 379.644 102.377 379.191 103.3 379.008C104.223 378.824 105.18 378.918 106.05 379.278C106.919 379.638 107.663 380.248 108.185 381.031C108.708 381.814 108.987 382.734 108.987 383.675C108.987 384.937 108.486 386.148 107.594 387.04C106.701 387.933 105.491 388.434 104.228 388.434ZM125.447 388.434C124.506 388.434 123.586 388.155 122.803 387.632C122.02 387.109 121.41 386.366 121.05 385.496C120.69 384.627 120.596 383.67 120.779 382.747C120.963 381.823 121.416 380.976 122.082 380.31C122.747 379.644 123.595 379.191 124.518 379.008C125.442 378.824 126.398 378.918 127.268 379.278C128.138 379.638 128.881 380.248 129.404 381.031C129.927 381.814 130.206 382.734 130.206 383.675C130.206 384.937 129.704 386.148 128.812 387.04C127.92 387.933 126.709 388.434 125.447 388.434ZM146.665 388.434C145.724 388.434 144.804 388.155 144.021 387.632C143.239 387.109 142.629 386.366 142.268 385.496C141.908 384.627 141.814 383.67 141.998 382.747C142.181 381.823 142.635 380.976 143.3 380.31C143.966 379.644 144.814 379.191 145.737 379.008C146.66 378.824 147.617 378.918 148.486 379.278C149.356 379.638 150.099 380.248 150.622 381.031C151.145 381.814 151.424 382.734 151.424 383.675C151.424 384.937 150.923 386.148 150.03 387.04C149.138 387.933 147.927 388.434 146.665 388.434Z" fill="var(--fill-0, #FFC94A)"/>
<path id="&#227;&#131;&#145;&#227;&#130;&#185; 86" d="M124.708 200.385C124.695 200.023 124.658 199.663 124.599 199.306C124.346 197.189 123.325 195.24 121.731 193.825C120.137 192.41 118.08 191.629 115.949 191.629C113.818 191.629 111.761 192.41 110.167 193.825C108.573 195.24 107.552 197.189 107.299 199.306C107.154 200.018 107.154 200.752 107.299 201.464C107.652 203.606 108.788 205.541 110.486 206.894C112.184 208.247 114.323 208.922 116.49 208.788C118.657 208.654 120.697 207.72 122.215 206.168C123.733 204.615 124.623 202.555 124.708 200.385Z" fill="var(--fill-0, #FFC94A)"/>
<path id="&#227;&#131;&#145;&#227;&#130;&#185; 87" d="M29.6957 213.068C27.0593 213.101 24.5402 214.163 22.6758 216.028C20.8114 217.892 19.7495 220.411 19.7165 223.048H0V233.028H29.6957C32.3425 233.028 34.8809 231.977 36.7525 230.105C38.6241 228.234 39.6755 225.695 39.6755 223.048C39.6755 220.402 38.6241 217.863 36.7525 215.992C34.8809 214.12 32.3425 213.068 29.6957 213.068Z" fill="var(--fill-0, #FFC94A)"/>
<g id="&#227;&#131;&#145;&#227;&#130;&#185; 88">
</g>
<g id="&#227;&#131;&#145;&#227;&#130;&#185; 89">
</g>
<path id="&#227;&#131;&#145;&#227;&#130;&#185; 90" d="M31.9284 165.05C31.9281 167.082 32.3279 169.093 33.1052 170.97C33.8824 172.847 35.0218 174.553 36.4583 175.99C37.8947 177.426 39.6002 178.566 41.4771 179.344C43.3541 180.121 45.3658 180.521 47.3974 180.521V149.58C43.2947 149.58 39.3601 151.21 36.4591 154.111C33.5581 157.012 31.9284 160.947 31.9284 165.05Z" fill="var(--fill-0, #546AB3)"/>
<path id="&#227;&#131;&#145;&#227;&#130;&#185; 91" d="M44.7124 143.322C44.7127 144.036 44.9963 144.721 45.501 145.225C46.0057 145.73 46.69 146.014 47.4037 146.014V140.637C46.69 140.638 46.0057 140.921 45.501 141.426C44.9963 141.931 44.7127 142.615 44.7124 143.329" fill="var(--fill-0, #546AB3)"/>
<path id="&#227;&#131;&#145;&#227;&#130;&#185; 92" d="M44.7124 186.776C44.7124 187.49 44.9959 188.174 45.5006 188.679C46.0054 189.184 46.6899 189.467 47.4037 189.467V184.08C46.69 184.08 46.0057 184.364 45.501 184.868C44.9963 185.373 44.7127 186.057 44.7124 186.771" fill="var(--fill-0, #546AB3)"/>
<path id="&#227;&#131;&#145;&#227;&#130;&#185; 93" d="M25.6712 162.357C25.1389 162.357 24.6186 162.515 24.176 162.811C23.7334 163.107 23.3884 163.527 23.1847 164.019C22.981 164.511 22.9277 165.052 23.0316 165.574C23.1354 166.096 23.3918 166.575 23.7682 166.952C24.1446 167.328 24.6241 167.584 25.1462 167.688C25.6683 167.792 26.2094 167.739 26.7012 167.535C27.193 167.331 27.6133 166.986 27.909 166.544C28.2048 166.101 28.3626 165.581 28.3626 165.049C28.3623 164.335 28.0786 163.651 27.5739 163.146C27.0693 162.641 26.3849 162.358 25.6712 162.357Z" fill="var(--fill-0, #546AB3)"/>
<path id="&#227;&#131;&#145;&#227;&#130;&#185; 94" d="M33.9381 151.591C34.3144 151.214 34.5707 150.735 34.6745 150.213C34.7784 149.69 34.725 149.149 34.5213 148.658C34.3176 148.166 33.9726 147.746 33.5301 147.45C33.0875 147.154 32.5672 146.996 32.0349 146.996C31.5026 146.996 30.9822 147.154 30.5397 147.45C30.0971 147.746 29.7521 148.166 29.5484 148.658C29.3447 149.149 29.2914 149.69 29.3952 150.213C29.499 150.735 29.7553 151.214 30.1316 151.591C30.6365 152.095 31.3211 152.378 32.0349 152.378C32.7486 152.378 33.4332 152.095 33.9381 151.591Z" fill="var(--fill-0, #546AB3)"/>
<path id="&#227;&#131;&#145;&#227;&#130;&#185; 95" d="M30.1316 178.511C29.7553 178.887 29.499 179.366 29.3952 179.888C29.2914 180.411 29.3447 180.952 29.5484 181.443C29.7521 181.935 30.0971 182.356 30.5397 182.651C30.9822 182.947 31.5026 183.105 32.0349 183.105C32.5672 183.105 33.0875 182.947 33.5301 182.651C33.9726 182.356 34.3176 181.935 34.5213 181.443C34.725 180.952 34.7784 180.411 34.6745 179.888C34.5707 179.366 34.3144 178.887 33.9381 178.511C33.4332 178.006 32.7486 177.723 32.0349 177.723C31.3211 177.723 30.6365 178.006 30.1316 178.511Z" fill="var(--fill-0, #546AB3)"/>
<path id="&#227;&#131;&#145;&#227;&#130;&#185; 96" d="M218.256 135.957V38.7626H216.098V167.74H218.256V135.957Z" fill="var(--fill-0, #546AB3)"/>
<path id="&#227;&#131;&#145;&#227;&#130;&#185; 97" d="M199.97 235.721C199.97 231.618 198.34 227.683 195.439 224.782C192.538 221.881 188.603 220.251 184.501 220.25V251.19C186.532 251.19 188.543 250.79 190.42 250.012C192.297 249.235 194.002 248.095 195.439 246.659C196.875 245.223 198.015 243.517 198.792 241.641C199.569 239.764 199.97 237.752 199.97 235.721Z" fill="var(--fill-0, #546AB3)"/>
<path id="&#227;&#131;&#145;&#227;&#130;&#185; 98" d="M187.197 257.447C187.197 256.733 186.913 256.049 186.408 255.544C185.904 255.04 185.219 254.756 184.506 254.756V260.14C185.219 260.139 185.904 259.856 186.408 259.351C186.913 258.846 187.197 258.161 187.197 257.447Z" fill="var(--fill-0, #546AB3)"/>
<path id="&#227;&#131;&#145;&#227;&#130;&#185; 99" d="M187.197 213.992C187.197 213.278 186.913 212.594 186.408 212.089C185.904 211.585 185.219 211.301 184.506 211.301V216.685C185.219 216.684 185.904 216.401 186.408 215.896C186.913 215.391 187.197 214.707 187.197 213.993" fill="var(--fill-0, #546AB3)"/>
<path id="&#227;&#131;&#145;&#227;&#130;&#185; 100" d="M206.227 238.412C206.759 238.412 207.279 238.254 207.722 237.959C208.165 237.663 208.51 237.243 208.713 236.751C208.917 236.259 208.97 235.718 208.866 235.196C208.763 234.674 208.506 234.194 208.13 233.818C207.753 233.441 207.274 233.185 206.752 233.081C206.23 232.977 205.689 233.031 205.197 233.234C204.705 233.438 204.285 233.783 203.989 234.226C203.693 234.668 203.535 235.189 203.535 235.721C203.536 236.434 203.819 237.119 204.324 237.623C204.829 238.128 205.513 238.412 206.227 238.412Z" fill="var(--fill-0, #546AB3)"/>
<path id="&#227;&#131;&#145;&#227;&#130;&#185; 101" d="M197.96 249.18C197.584 249.557 197.328 250.036 197.224 250.558C197.12 251.08 197.174 251.621 197.377 252.113C197.581 252.605 197.926 253.025 198.369 253.32C198.811 253.616 199.332 253.774 199.864 253.774C200.396 253.774 200.916 253.616 201.359 253.32C201.801 253.025 202.146 252.605 202.35 252.113C202.554 251.621 202.607 251.08 202.504 250.558C202.4 250.036 202.144 249.557 201.768 249.18C201.518 248.93 201.221 248.732 200.894 248.596C200.568 248.461 200.217 248.391 199.864 248.391C199.51 248.391 199.16 248.461 198.833 248.596C198.507 248.732 198.21 248.93 197.96 249.18Z" fill="var(--fill-0, #546AB3)"/>
<path id="&#227;&#131;&#145;&#227;&#130;&#185; 102" d="M201.768 222.26C202.144 221.884 202.4 221.404 202.504 220.882C202.608 220.36 202.555 219.819 202.351 219.327C202.147 218.836 201.802 218.415 201.36 218.119C200.917 217.824 200.397 217.666 199.864 217.666C199.332 217.666 198.812 217.824 198.369 218.119C197.927 218.415 197.582 218.836 197.378 219.327C197.174 219.819 197.121 220.36 197.225 220.882C197.329 221.404 197.585 221.884 197.961 222.26C198.211 222.51 198.508 222.708 198.834 222.844C199.161 222.979 199.511 223.049 199.864 223.049C200.218 223.049 200.568 222.979 200.894 222.844C201.221 222.708 201.518 222.51 201.768 222.26Z" fill="var(--fill-0, #546AB3)"/>
<path id="&#227;&#131;&#145;&#227;&#130;&#185; 103" d="M13.6433 264.813V362H15.8017V233.028H13.6433V264.813Z" fill="var(--fill-0, #546AB3)"/>
<path id="&#227;&#131;&#145;&#227;&#130;&#185; 104" d="M66.3516 102.201H47.3987V298.568H70.5827V200.385V106.011C69.0085 104.936 67.587 103.652 66.3567 102.196M62.971 285.827L58.9945 289.805L55.0179 285.827C54.5258 285.338 54.2321 284.684 54.1931 283.991C54.1542 283.299 54.3728 282.616 54.8069 282.075C55.241 281.534 55.86 281.172 56.5447 281.06C57.2293 280.947 57.9314 281.092 58.5157 281.466L57.0956 278.568H60.8958L59.4758 281.466C60.0601 281.092 60.7621 280.947 61.4468 281.06C62.1315 281.172 62.7504 281.534 63.1845 282.075C63.6186 282.616 63.8373 283.299 63.7983 283.991C63.7594 284.684 63.4656 285.338 62.9735 285.827M62.9735 261.887L58.997 265.864L55.0204 261.887C54.5284 261.398 54.2346 260.744 54.1957 260.051C54.1567 259.359 54.3753 258.676 54.8095 258.135C55.2436 257.594 55.8625 257.232 56.5472 257.12C57.2319 257.007 57.9339 257.152 58.5182 257.526L57.0982 254.628H60.8983L59.4783 257.526C60.0626 257.152 60.7646 257.007 61.4493 257.12C62.134 257.232 62.7529 257.594 63.187 258.135C63.6212 258.676 63.8398 259.359 63.8008 260.051C63.7619 260.744 63.4681 261.398 62.9761 261.887M62.9761 237.947L58.9995 241.924L55.0229 237.947C54.5309 237.458 54.2371 236.804 54.1982 236.111C54.1592 235.419 54.3779 234.736 54.812 234.195C55.2461 233.654 55.865 233.292 56.5497 233.18C57.2344 233.067 57.9364 233.212 58.5207 233.586L57.1007 230.688H60.9008L59.4808 233.586C60.0651 233.212 60.7672 233.067 61.4518 233.18C62.1365 233.292 62.7554 233.654 63.1896 234.195C63.6237 234.736 63.8423 235.419 63.8034 236.111C63.7644 236.804 63.4706 237.458 62.9786 237.947M62.9786 214.007L59.002 217.984L55.0255 214.007C54.5334 213.518 54.2396 212.864 54.2007 212.171C54.1617 211.479 54.3804 210.796 54.8145 210.255C55.2486 209.714 55.8675 209.352 56.5522 209.24C57.2369 209.127 57.9389 209.272 58.5232 209.646L57.1032 206.748H60.9034L59.4833 209.646C60.0676 209.272 60.7697 209.127 61.4543 209.24C62.139 209.352 62.758 209.714 63.1921 210.255C63.6262 210.796 63.8448 211.479 63.8059 212.171C63.7669 212.864 63.4732 213.518 62.9811 214.007M55.0267 114.251C55.4797 113.799 56.0729 113.516 56.7086 113.447C57.3442 113.378 57.9843 113.528 58.5232 113.872L57.1032 110.975H60.9034L59.4833 113.872C60.0676 113.498 60.7697 113.353 61.4543 113.466C62.139 113.578 62.758 113.94 63.1921 114.481C63.6262 115.022 63.8448 115.705 63.8059 116.398C63.7669 117.09 63.4732 117.744 62.9811 118.233L59.0045 122.21L55.028 118.233C54.7667 117.972 54.5595 117.662 54.4181 117.321C54.2767 116.98 54.204 116.614 54.204 116.244C54.204 115.875 54.2767 115.509 54.4181 115.168C54.5595 114.827 54.7667 114.517 55.028 114.256M55.028 138.196C55.481 137.745 56.0743 137.461 56.7099 137.393C57.3454 137.324 57.9855 137.474 58.5245 137.818L57.1045 134.92H60.9046L59.4846 137.818C60.0689 137.443 60.7709 137.299 61.4556 137.411C62.1403 137.523 62.7592 137.885 63.1933 138.426C63.6275 138.967 63.8461 139.65 63.8071 140.343C63.7682 141.035 63.4744 141.689 62.9824 142.178L59.0058 146.156L55.0292 142.178C54.502 141.651 54.2059 140.936 54.2059 140.19C54.2059 139.444 54.502 138.729 55.0292 138.202M55.0292 162.142C55.4822 161.691 56.0754 161.407 56.7111 161.339C57.3467 161.27 57.9868 161.42 58.5257 161.764L57.1057 158.866H60.9059L59.4859 161.764C60.0702 161.39 60.7722 161.245 61.4569 161.357C62.1415 161.469 62.7605 161.831 63.1946 162.372C63.6287 162.914 63.8473 163.596 63.8084 164.289C63.7694 164.982 63.4757 165.636 62.9836 166.125L59.0071 170.101L55.0305 166.125C54.5033 165.597 54.2071 164.882 54.2071 164.136C54.2071 163.391 54.5033 162.676 55.0305 162.148M55.0305 186.088C55.4836 185.637 56.0768 185.354 56.7124 185.285C57.348 185.216 57.988 185.366 58.527 185.71L57.107 182.812H60.9071L59.4871 185.71C60.0714 185.336 60.7734 185.191 61.4581 185.303C62.1428 185.416 62.7617 185.777 63.1959 186.319C63.63 186.86 63.8486 187.543 63.8096 188.235C63.7707 188.928 63.4769 189.582 62.9849 190.071L59.0083 194.048L55.0318 190.071C54.5046 189.544 54.2084 188.828 54.2084 188.083C54.2084 187.337 54.5046 186.622 55.0318 186.094" fill="var(--fill-0, #353442)"/>
<path id="&#227;&#131;&#145;&#227;&#130;&#185; 105" d="M103.446 88.6108C103.446 93.0781 102.024 97.4296 99.386 101.035C96.7481 104.64 93.0311 107.313 88.7733 108.665L97.3703 129.147V199.299H107.3C107.554 197.183 108.574 195.233 110.168 193.819C111.762 192.404 113.819 191.623 115.95 191.623C118.081 191.623 120.139 192.404 121.733 193.819C123.327 195.233 124.347 197.183 124.6 199.299H134.53V129.153L142.153 110.991L142.713 109.658H124.485C118.905 109.658 113.553 107.441 109.607 103.495C105.66 99.5486 103.443 94.1965 103.443 88.6158L103.446 88.6108ZM122.32 182.755H120.161V170.768C120.161 169.651 119.718 168.58 118.928 167.79C118.138 167.001 117.067 166.557 115.95 166.557C114.833 166.557 113.762 167.001 112.973 167.79C112.183 168.58 111.739 169.651 111.739 170.768V182.755H109.581V170.768C109.581 169.079 110.252 167.458 111.446 166.264C112.641 165.07 114.261 164.399 115.95 164.399C117.639 164.399 119.26 165.07 120.454 166.264C121.649 167.458 122.32 169.079 122.32 170.768V182.755ZM126.58 146.823L122.898 143.14L124.424 141.614L128.105 145.297L126.58 146.823ZM126.58 122.511L128.105 124.037L124.424 127.717L122.898 126.192L126.58 122.511ZM110.343 130.397H111.683V129.058C111.683 127.926 112.132 126.84 112.933 126.04C113.733 125.239 114.819 124.79 115.951 124.79C117.083 124.79 118.169 125.239 118.969 126.04C119.769 126.84 120.219 127.926 120.219 129.058V130.397H121.558C122.678 130.417 123.745 130.875 124.53 131.673C125.314 132.471 125.754 133.546 125.754 134.666C125.754 135.785 125.314 136.86 124.53 137.658C123.745 138.457 122.678 138.915 121.558 138.934H120.219V140.273C120.219 141.405 119.769 142.491 118.969 143.291C118.169 144.092 117.083 144.542 115.951 144.542C114.819 144.542 113.733 144.092 112.933 143.291C112.132 142.491 111.683 141.405 111.683 140.273V138.934H110.343C109.777 138.944 109.214 138.84 108.687 138.63C108.161 138.42 107.682 138.107 107.277 137.71C106.873 137.313 106.552 136.839 106.333 136.316C106.114 135.794 106.001 135.232 106.001 134.666C106.001 134.099 106.114 133.538 106.333 133.015C106.552 132.492 106.873 132.019 107.277 131.621C107.682 131.224 108.161 130.911 108.687 130.701C109.214 130.491 109.777 130.388 110.343 130.397ZM105.321 122.511L108.998 126.199L107.472 127.725L103.79 124.044L105.321 122.511ZM107.477 141.614L108.998 143.147L105.316 146.83L103.79 145.304L107.477 141.614Z" fill="var(--fill-0, #353442)"/>
<path id="&#227;&#131;&#145;&#227;&#130;&#185; 106" d="M75.8608 39.4607H158.265V30.4126H75.8608V39.4607Z" fill="var(--fill-0, #353442)"/>
<path id="&#227;&#131;&#145;&#227;&#130;&#185; 107" d="M85.2327 21.8597C86.174 21.8597 87.0941 21.5806 87.8767 21.0577C88.6593 20.5348 89.2693 19.7915 89.6295 18.9219C89.9897 18.0523 90.0839 17.0954 89.9003 16.1723C89.7166 15.2491 89.2634 14.4011 88.5978 13.7356C87.9323 13.07 87.0843 12.6168 86.1611 12.4331C85.238 12.2495 84.2811 12.3438 83.4115 12.704C82.5419 13.0642 81.7986 13.6741 81.2757 14.4568C80.7528 15.2394 80.4737 16.1595 80.4737 17.1007C80.4737 18.3629 80.9751 19.5734 81.8676 20.4659C82.7601 21.3583 83.9705 21.8597 85.2327 21.8597Z" fill="var(--fill-0, #353442)"/>
<path id="&#227;&#131;&#145;&#227;&#130;&#185; 108" d="M106.451 21.8597C107.392 21.8597 108.312 21.5806 109.095 21.0577C109.878 20.5348 110.488 19.7915 110.848 18.9219C111.208 18.0523 111.302 17.0954 111.119 16.1723C110.935 15.2491 110.482 14.4011 109.816 13.7356C109.151 13.07 108.303 12.6168 107.38 12.4331C106.456 12.2495 105.499 12.3438 104.63 12.704C103.76 13.0642 103.017 13.6741 102.494 14.4568C101.971 15.2394 101.692 16.1595 101.692 17.1007C101.692 18.3629 102.193 19.5734 103.086 20.4659C103.978 21.3583 105.189 21.8597 106.451 21.8597Z" fill="var(--fill-0, #353442)"/>
<path id="&#227;&#131;&#145;&#227;&#130;&#185; 109" d="M127.664 21.8597C128.606 21.8597 129.526 21.5806 130.308 21.0577C131.091 20.5348 131.701 19.7915 132.061 18.9219C132.421 18.0523 132.516 17.0954 132.332 16.1723C132.148 15.2491 131.695 14.4011 131.03 13.7356C130.364 13.07 129.516 12.6168 128.593 12.4331C127.67 12.2495 126.713 12.3438 125.843 12.704C124.974 13.0642 124.23 13.6741 123.707 14.4568C123.185 15.2394 122.905 16.1595 122.905 17.1007C122.905 18.3629 123.407 19.5734 124.299 20.4659C125.192 21.3583 126.402 21.8597 127.664 21.8597Z" fill="var(--fill-0, #353442)"/>
<path id="&#227;&#131;&#145;&#227;&#130;&#185; 110" d="M148.888 21.8597C149.829 21.8597 150.749 21.5806 151.532 21.0577C152.315 20.5348 152.924 19.7915 153.285 18.9219C153.645 18.0523 153.739 17.0954 153.555 16.1723C153.372 15.2491 152.919 14.4011 152.253 13.7356C151.587 13.07 150.74 12.6168 149.816 12.4331C148.893 12.2495 147.936 12.3438 147.067 12.704C146.197 13.0642 145.454 13.6741 144.931 14.4568C144.408 15.2394 144.129 16.1595 144.129 17.1007C144.129 18.3629 144.63 19.5734 145.523 20.4659C146.415 21.3583 147.626 21.8597 148.888 21.8597Z" fill="var(--fill-0, #353442)"/>
<path id="&#227;&#131;&#145;&#227;&#130;&#185; 111" d="M113.66 63.1474V63.6766C113.659 64.9995 114.016 66.2979 114.692 67.4348C115.369 68.5716 116.34 69.5045 117.503 70.1351C118.666 70.7656 119.977 71.0702 121.299 71.0168C122.621 70.9635 123.904 70.554 125.012 69.8317L133.303 64.4351L141.592 69.8317C142.701 70.5542 143.984 70.9639 145.306 71.0174C146.628 71.0709 147.94 70.7663 149.103 70.1358C150.266 69.5053 151.238 68.5723 151.914 67.4353C152.591 66.2984 152.948 64.9997 152.948 63.6766V63.1474H150.789V63.6766C150.79 64.6108 150.538 65.5278 150.06 66.3307C149.583 67.1336 148.897 67.7925 148.076 68.2378C147.255 68.6832 146.328 68.8983 145.395 68.8606C144.462 68.8229 143.556 68.5337 142.773 68.0236L135.601 63.3616C135.986 63.0335 136.295 62.626 136.508 62.1671C136.721 61.7082 136.832 61.2088 136.834 60.703V53.298H134.673V60.703C134.678 60.8866 134.647 61.0695 134.58 61.2408C134.514 61.412 134.414 61.5682 134.286 61.7C134.158 61.8319 134.005 61.9367 133.836 62.0083C133.667 62.0799 133.485 62.1167 133.301 62.1167C133.117 62.1167 132.936 62.0799 132.766 62.0083C132.597 61.9367 132.444 61.8319 132.316 61.7C132.188 61.5682 132.088 61.412 132.022 61.2408C131.955 61.0695 131.924 60.8866 131.93 60.703V53.298H129.771V60.703C129.773 61.2089 129.884 61.7084 130.097 62.1673C130.31 62.6262 130.62 63.0336 131.005 63.3616L123.832 68.0236C123.049 68.5338 122.143 68.8231 121.21 68.8609C120.276 68.8986 119.35 68.6834 118.529 68.2381C117.708 67.7927 117.022 67.1337 116.545 66.3308C116.067 65.5278 115.816 64.6108 115.817 63.6766V63.1474H113.66Z" fill="var(--fill-0, #353442)"/>
<path id="&#233;&#149;&#183;&#230;&#150;&#185;&#229;&#189;&#162; 20" d="M141.776 73.0485H124.831V75.2069H141.776V73.0485Z" fill="var(--fill-0, #353442)"/>
<path id="&#227;&#131;&#145;&#227;&#130;&#185; 112" d="M140.621 56.5627H144.023C145.309 56.5627 146.543 56.0517 147.452 55.1422C148.362 54.2327 148.873 52.9992 148.873 51.7129H140.626L140.621 56.5627Z" fill="var(--fill-0, #353442)"/>
<path id="&#227;&#131;&#145;&#227;&#130;&#185; 113" d="M122.589 56.5627H125.991V51.7129H117.744C117.744 52.9992 118.255 54.2327 119.165 55.1422C120.074 56.0517 121.308 56.5627 122.594 56.5627" fill="var(--fill-0, #353442)"/>
<path id="&#233;&#149;&#183;&#230;&#150;&#185;&#229;&#189;&#162; 21" d="M148.606 44.7656L140.358 46.8405L140.885 48.9366L149.134 46.8617L148.606 44.7656Z" fill="var(--fill-0, #353442)"/>
<path id="&#233;&#149;&#183;&#230;&#150;&#185;&#229;&#189;&#162; 22" d="M118.003 44.7676L117.476 46.8632L125.722 48.9372L126.249 46.8416L118.003 44.7676Z" fill="var(--fill-0, #353442)"/>
<path id="&#227;&#131;&#145;&#227;&#130;&#185; 114" d="M184.501 263.671V102.201H161.317V294.748C162.891 295.823 164.312 297.107 165.543 298.563H184.495L184.501 263.671ZM168.933 114.937L172.911 110.959L176.888 114.937C177.38 115.426 177.673 116.08 177.712 116.773C177.751 117.466 177.533 118.148 177.099 118.69C176.664 119.231 176.046 119.592 175.361 119.705C174.676 119.817 173.974 119.672 173.39 119.298L174.81 122.196H171.011L172.431 119.298C171.847 119.672 171.145 119.817 170.46 119.705C169.775 119.592 169.156 119.231 168.722 118.69C168.288 118.148 168.07 117.466 168.108 116.773C168.147 116.08 168.441 115.426 168.933 114.937ZM168.933 138.877L172.911 134.901L176.888 138.877C177.38 139.366 177.673 140.02 177.712 140.713C177.751 141.406 177.533 142.088 177.099 142.63C176.664 143.171 176.046 143.532 175.361 143.645C174.676 143.757 173.974 143.612 173.39 143.238L174.81 146.136H171.011L172.431 143.238C171.847 143.612 171.145 143.757 170.46 143.645C169.775 143.532 169.156 143.171 168.722 142.63C168.288 142.088 168.07 141.406 168.108 140.713C168.147 140.02 168.441 139.366 168.933 138.877ZM168.933 162.817L172.911 158.841L176.888 162.817C177.38 163.306 177.673 163.96 177.712 164.653C177.751 165.346 177.533 166.028 177.099 166.57C176.664 167.111 176.046 167.472 175.361 167.585C174.676 167.697 173.974 167.552 173.39 167.178L174.81 170.076H171.011L172.431 167.178C171.847 167.552 171.145 167.697 170.46 167.585C169.775 167.472 169.156 167.111 168.722 166.57C168.288 166.028 168.07 165.346 168.108 164.653C168.147 163.96 168.441 163.306 168.933 162.817ZM168.933 186.757L172.911 182.781L176.888 186.757C177.376 187.247 177.667 187.9 177.705 188.591C177.742 189.283 177.524 189.963 177.091 190.503C176.657 191.043 176.04 191.404 175.358 191.518C174.675 191.631 173.974 191.489 173.39 191.118L174.81 194.016H171.011L172.431 191.118C171.847 191.489 171.146 191.631 170.463 191.518C169.78 191.404 169.163 191.043 168.73 190.503C168.297 189.963 168.079 189.283 168.116 188.591C168.153 187.9 168.444 187.247 168.933 186.757ZM176.888 286.514C176.434 286.965 175.841 287.249 175.205 287.317C174.569 287.386 173.929 287.236 173.39 286.892L174.81 289.79H171.011L172.431 286.892C171.847 287.266 171.145 287.411 170.46 287.299C169.775 287.186 169.156 286.825 168.722 286.283C168.288 285.742 168.07 285.06 168.108 284.367C168.147 283.674 168.441 283.02 168.933 282.531L172.911 278.553L176.888 282.531C177.415 283.058 177.711 283.774 177.711 284.519C177.711 285.265 177.415 285.98 176.888 286.508M176.888 262.568C176.434 263.019 175.841 263.302 175.205 263.371C174.569 263.44 173.929 263.29 173.39 262.946L174.81 265.844H171.011L172.431 262.946C171.847 263.316 171.146 263.459 170.463 263.345C169.78 263.232 169.163 262.871 168.73 262.331C168.297 261.791 168.079 261.11 168.116 260.419C168.153 259.728 168.444 259.075 168.933 258.585L172.911 254.608L176.888 258.585C177.415 259.112 177.711 259.828 177.711 260.574C177.711 261.32 177.415 262.035 176.888 262.563M176.888 238.623C176.434 239.074 175.841 239.357 175.205 239.426C174.569 239.495 173.929 239.345 173.39 239.001L174.81 241.899H171.011L172.431 239.001C171.847 239.375 171.145 239.52 170.46 239.407C169.775 239.295 169.156 238.933 168.722 238.392C168.288 237.851 168.07 237.168 168.108 236.475C168.147 235.783 168.441 235.129 168.933 234.64L172.911 230.662L176.888 234.64C177.149 234.901 177.356 235.211 177.497 235.552C177.639 235.893 177.712 236.259 177.712 236.628C177.712 236.997 177.639 237.363 177.497 237.704C177.356 238.045 177.149 238.355 176.888 238.616M176.888 214.676C176.435 215.128 175.841 215.411 175.205 215.48C174.569 215.549 173.929 215.399 173.39 215.054L174.81 217.952H171.011L172.431 215.054C171.847 215.428 171.145 215.573 170.46 215.461C169.775 215.349 169.156 214.987 168.722 214.446C168.288 213.905 168.07 213.222 168.108 212.529C168.147 211.836 168.441 211.183 168.933 210.693L172.911 206.717L176.888 210.693C177.415 211.221 177.711 211.936 177.711 212.682C177.711 213.427 177.415 214.143 176.888 214.67" fill="var(--fill-0, #353442)"/>
<path id="&#227;&#131;&#145;&#227;&#130;&#185; 115" d="M128.453 312.152C128.454 307.685 129.876 303.334 132.514 299.729C135.152 296.124 138.868 293.452 143.126 292.1L134.529 271.618V201.464H124.599C124.346 203.58 123.325 205.53 121.731 206.944C120.137 208.359 118.08 209.14 115.949 209.14C113.818 209.14 111.761 208.359 110.167 206.944C108.573 205.53 107.552 203.58 107.299 201.464H97.369V271.617L89.746 289.779L89.1866 291.112H107.412C112.993 291.112 118.345 293.329 122.291 297.275C126.238 301.221 128.454 306.573 128.454 312.154L128.453 312.152ZM109.58 218.008H111.741V229.998C111.741 231.115 112.184 232.186 112.974 232.975C113.764 233.765 114.835 234.209 115.952 234.209C117.068 234.209 118.139 233.765 118.929 232.975C119.719 232.186 120.162 231.115 120.162 229.998V218.008H122.321V229.998C122.321 231.687 121.65 233.307 120.455 234.502C119.261 235.696 117.641 236.367 115.952 236.367C114.262 236.367 112.642 235.696 111.448 234.502C110.253 233.307 109.582 231.687 109.582 229.998L109.58 218.008ZM105.315 253.942L108.996 257.622L107.47 259.148L103.789 255.468L105.315 253.942ZM105.315 278.253L103.789 276.728L107.47 273.044L108.996 274.57L105.315 278.253ZM121.552 270.366H120.213V271.705C120.213 272.837 119.763 273.923 118.963 274.723C118.162 275.524 117.077 275.973 115.945 275.973C114.813 275.973 113.727 275.524 112.926 274.723C112.126 273.923 111.676 272.837 111.676 271.705V270.366H110.337C109.218 270.347 108.151 269.888 107.366 269.09C106.581 268.292 106.141 267.217 106.141 266.097C106.141 264.978 106.581 263.903 107.366 263.105C108.151 262.307 109.218 261.848 110.337 261.829H111.676V260.49C111.676 259.358 112.126 258.272 112.926 257.472C113.727 256.671 114.813 256.222 115.945 256.222C117.077 256.222 118.162 256.671 118.963 257.472C119.763 258.272 120.213 259.358 120.213 260.49V261.829H121.552C122.119 261.819 122.682 261.923 123.208 262.133C123.735 262.343 124.214 262.656 124.618 263.053C125.022 263.45 125.343 263.924 125.562 264.447C125.782 264.97 125.894 265.531 125.894 266.097C125.894 266.664 125.782 267.225 125.562 267.748C125.343 268.271 125.022 268.745 124.618 269.142C124.214 269.539 123.735 269.852 123.208 270.062C122.682 270.272 122.119 270.376 121.552 270.366ZM126.573 278.253L122.892 274.57L124.417 273.044L128.099 276.728L126.573 278.253ZM124.417 259.149L122.892 257.623L126.573 253.943L128.099 255.469L124.417 259.149Z" fill="var(--fill-0, #353442)"/>
<path id="&#227;&#131;&#145;&#227;&#130;&#185; 116" d="M73.6382 361.309V370.275H156.042V361.309H73.6382Z" fill="var(--fill-0, #353442)"/>
<path id="&#227;&#131;&#145;&#227;&#130;&#185; 117" d="M146.667 378.911C145.725 378.911 144.805 379.19 144.023 379.713C143.24 380.236 142.63 380.979 142.27 381.849C141.91 382.718 141.815 383.675 141.999 384.598C142.183 385.522 142.636 386.37 143.301 387.035C143.967 387.701 144.815 388.154 145.738 388.338C146.661 388.521 147.618 388.427 148.488 388.067C149.357 387.706 150.101 387.097 150.624 386.314C151.146 385.531 151.426 384.611 151.426 383.67C151.426 383.045 151.302 382.426 151.063 381.849C150.824 381.271 150.474 380.747 150.032 380.305C149.59 379.863 149.065 379.512 148.488 379.273C147.91 379.034 147.291 378.911 146.667 378.911Z" fill="var(--fill-0, #353442)"/>
<path id="&#227;&#131;&#145;&#227;&#130;&#185; 118" d="M125.448 378.911C124.507 378.911 123.587 379.19 122.804 379.713C122.022 380.236 121.412 380.979 121.051 381.849C120.691 382.718 120.597 383.675 120.781 384.598C120.964 385.522 121.417 386.37 122.083 387.035C122.749 387.701 123.597 388.154 124.52 388.338C125.443 388.521 126.4 388.427 127.269 388.067C128.139 387.706 128.882 387.097 129.405 386.314C129.928 385.531 130.207 384.611 130.207 383.67C130.207 383.045 130.084 382.426 129.845 381.849C129.606 381.271 129.255 380.747 128.813 380.305C128.371 379.863 127.847 379.512 127.269 379.273C126.692 379.034 126.073 378.911 125.448 378.911Z" fill="var(--fill-0, #353442)"/>
<path id="&#227;&#131;&#145;&#227;&#130;&#185; 119" d="M104.234 378.911C103.292 378.911 102.372 379.19 101.59 379.713C100.807 380.236 100.197 380.979 99.8368 381.849C99.4766 382.718 99.3823 383.675 99.5659 384.598C99.7496 385.522 100.203 386.37 100.868 387.035C101.534 387.701 102.382 388.154 103.305 388.338C104.228 388.521 105.185 388.427 106.055 388.067C106.924 387.706 107.668 387.097 108.19 386.314C108.713 385.531 108.993 384.611 108.993 383.67C108.993 383.045 108.869 382.426 108.63 381.849C108.391 381.271 108.041 380.747 107.599 380.305C107.157 379.863 106.632 379.512 106.055 379.273C105.477 379.034 104.858 378.911 104.234 378.911Z" fill="var(--fill-0, #353442)"/>
<path id="&#227;&#131;&#145;&#227;&#130;&#185; 120" d="M83.0101 378.911C82.0688 378.911 81.1487 379.19 80.3661 379.713C79.5835 380.236 78.9735 380.979 78.6133 381.849C78.2531 382.718 78.1589 383.675 78.3425 384.598C78.5261 385.522 78.9794 386.37 79.6449 387.035C80.3105 387.701 81.1584 388.154 82.0816 388.338C83.0048 388.521 83.9616 388.427 84.8312 388.067C85.7008 387.706 86.4441 387.097 86.967 386.314C87.49 385.531 87.7691 384.611 87.7691 383.67C87.7691 383.045 87.646 382.426 87.4068 381.849C87.1676 381.271 86.8171 380.747 86.3752 380.305C85.9333 379.863 85.4086 379.512 84.8312 379.273C84.2539 379.034 83.635 378.911 83.0101 378.911Z" fill="var(--fill-0, #353442)"/>
<path id="&#227;&#131;&#145;&#227;&#130;&#185; 121" d="M78.9503 337.088V337.62H81.1087V337.088C81.1086 336.154 81.3606 335.237 81.8383 334.434C82.316 333.632 83.0015 332.973 83.8226 332.528C84.6437 332.083 85.5698 331.867 86.503 331.905C87.4363 331.942 88.3422 332.231 89.1249 332.741L96.298 337.41C95.9129 337.738 95.6033 338.145 95.3903 338.604C95.1774 339.063 95.0662 339.562 95.0645 340.068V347.475H97.2229V340.069C97.2337 339.712 97.3829 339.374 97.6389 339.126C97.895 338.877 98.2377 338.738 98.5944 338.738C98.9511 338.738 99.2938 338.877 99.5498 339.126C99.8058 339.374 99.9551 339.712 99.9659 340.069V347.476H102.124V340.069C102.123 339.563 102.012 339.064 101.799 338.605C101.586 338.147 101.277 337.739 100.892 337.412L108.064 332.742C108.847 332.232 109.753 331.943 110.686 331.905C111.62 331.868 112.546 332.083 113.367 332.528C114.188 332.973 114.874 333.632 115.352 334.435C115.83 335.238 116.082 336.155 116.081 337.089V337.621H118.24V337.089C118.24 335.766 117.884 334.467 117.207 333.33C116.53 332.193 115.559 331.26 114.396 330.63C113.233 329.999 111.921 329.694 110.599 329.748C109.277 329.802 107.994 330.211 106.886 330.934L98.595 336.332L90.303 330.934C89.1946 330.211 87.9117 329.802 86.5897 329.748C85.2677 329.694 83.9558 329.999 82.7926 330.63C81.6295 331.26 80.6583 332.193 79.9817 333.33C79.3052 334.467 78.9484 335.766 78.9491 337.089" fill="var(--fill-0, #353442)"/>
<path id="&#233;&#149;&#183;&#230;&#150;&#185;&#229;&#189;&#162; 23" d="M107.069 325.561H90.1215V327.72H107.069V325.561Z" fill="var(--fill-0, #353442)"/>
<path id="&#227;&#131;&#145;&#227;&#130;&#185; 122" d="M91.2782 344.208H87.8762C86.59 344.208 85.3564 344.719 84.4469 345.629C83.5374 346.538 83.0264 347.771 83.0264 349.058H91.2731L91.2782 344.208Z" fill="var(--fill-0, #353442)"/>
<path id="&#227;&#131;&#145;&#227;&#130;&#185; 123" d="M109.309 344.208H105.907V349.058H114.153C114.153 347.771 113.643 346.538 112.733 345.629C111.824 344.719 110.59 344.208 109.304 344.208" fill="var(--fill-0, #353442)"/>
<path id="&#233;&#149;&#183;&#230;&#150;&#185;&#229;&#189;&#162; 24" d="M91.0155 351.83L82.7681 353.905L83.2954 356.001L91.5428 353.926L91.0155 351.83Z" fill="var(--fill-0, #353442)"/>
<path id="&#233;&#149;&#183;&#230;&#150;&#185;&#229;&#189;&#162; 25" d="M106.176 351.832L105.648 353.928L113.895 356.002L114.422 353.906L106.176 351.832Z" fill="var(--fill-0, #353442)"/>
</g>
</svg>
