<svg preserveAspectRatio="none" width="100%" height="100%" overflow="visible" style="display: block;" viewBox="0 0 232.028 400.766" fill="none" xmlns="http://www.w3.org/2000/svg">
<g id="&#227;&#130;&#176;&#227;&#131;&#171;&#227;&#131;&#188;&#227;&#131;&#151; 18">
<path id="&#227;&#131;&#145;&#227;&#130;&#185; 124" d="M38.6681 123.276C38.6681 122.106 38.2035 120.985 37.3765 120.158C36.5494 119.331 35.4277 118.866 34.2581 118.866H13.3812C12.785 118.837 12.1892 118.93 11.6299 119.139C11.0707 119.347 10.5595 119.667 10.1275 120.079C9.69549 120.491 9.35156 120.986 9.11657 121.535C8.88158 122.083 8.76042 122.674 8.76042 123.271C8.76042 123.868 8.88158 124.458 9.11657 125.007C9.35156 125.556 9.69549 126.051 10.1275 126.463C10.5595 126.875 11.0707 127.195 11.6299 127.403C12.1892 127.612 12.785 127.704 13.3812 127.676C12.2469 127.727 11.1758 128.213 10.3911 129.034C9.60634 129.854 9.16837 130.946 9.16837 132.081C9.16837 133.217 9.60634 134.309 10.3911 135.129C11.1758 135.95 12.2469 136.436 13.3812 136.487C12.2469 136.538 11.1758 137.024 10.3911 137.845C9.60634 138.665 9.16837 139.757 9.16837 140.893C9.16837 142.028 9.60634 143.12 10.3911 143.94C11.1758 144.761 12.2469 145.247 13.3812 145.298C12.785 145.27 12.1892 145.362 11.6299 145.571C11.0707 145.779 10.5595 146.099 10.1275 146.511C9.69549 146.923 9.35156 147.418 9.11657 147.967C8.88158 148.516 8.76042 149.106 8.76042 149.703C8.76042 150.3 8.88158 150.891 9.11657 151.439C9.35156 151.988 9.69549 152.483 10.1275 152.895C10.5595 153.307 11.0707 153.627 11.6299 153.835C12.1892 154.044 12.785 154.137 13.3812 154.108H26.3201L29.4701 150.958L30.996 149.432L35.0519 145.376C34.7936 145.326 34.5313 145.3 34.2682 145.297C34.5988 145.294 34.9281 145.255 35.2498 145.178L36.1532 144.275L38.5623 141.853C38.7112 141.209 38.7124 140.539 38.5657 139.895C38.419 139.25 38.1282 138.647 37.7152 138.13C37.3022 137.614 36.7777 137.198 36.1809 136.913C35.5842 136.628 34.9307 136.482 34.2695 136.486C34.8646 136.512 35.459 136.418 36.0167 136.209C36.5744 135.999 37.0839 135.679 37.5145 135.267C37.945 134.856 38.2877 134.361 38.5218 133.813C38.7559 133.265 38.8766 132.676 38.8766 132.08C38.8766 131.484 38.7559 130.895 38.5218 130.347C38.2877 129.799 37.945 129.305 37.5145 128.893C37.0839 128.481 36.5744 128.161 36.0167 127.952C35.459 127.742 34.8646 127.648 34.2695 127.675C35.4391 127.675 36.5608 127.21 37.3878 126.383C38.2149 125.556 38.6795 124.434 38.6795 123.265" fill="var(--fill-0, #EE9593)"/>
<path id="&#227;&#131;&#145;&#227;&#130;&#185; 125" d="M111.354 91.3286L122.258 82.1923L130.448 75.3266V42.3322L130.404 42.1709H123.242C119.005 42.1688 114.856 40.9619 111.279 38.691C107.701 36.4201 104.844 33.1789 103.039 29.3454C101.234 33.1789 98.3766 36.4201 94.7995 38.691C91.2224 40.9619 87.0733 42.1688 82.8362 42.1709H75.6302V91.3273H111.349L111.354 91.3286ZM107.909 47.4503H116.156V49.6087H107.909V47.4503ZM107.909 54.4257H111.311C112.597 54.4257 113.83 54.9365 114.74 55.8457C115.649 56.7549 116.16 57.9882 116.161 59.2742H107.914L107.909 54.4257ZM95.4866 53.303H97.645V67.4843H103.044V69.6427H96.5664C96.4246 69.6429 96.2843 69.6151 96.1533 69.561C96.0223 69.5069 95.9032 69.4274 95.8029 69.3273C95.7026 69.2271 95.6231 69.1081 95.5688 68.9772C95.5145 68.8463 95.4866 68.7059 95.4866 68.5642V53.3005V53.303ZM89.8771 54.4257H93.2791V59.2742H85.0324C85.0327 57.9882 85.5438 56.7549 86.4533 55.8457C87.3627 54.9365 88.5961 54.4257 89.8821 54.4257M85.0324 47.4503H93.2791V49.6087H85.0324V47.4503ZM92.1236 77.9184V75.76H109.064V77.9184H92.1186H92.1236Z" fill="var(--fill-0, #EE9593)"/>
<path id="&#227;&#131;&#145;&#227;&#130;&#185; 126" d="M223.048 259.864C222.453 259.89 221.858 259.796 221.301 259.587C220.743 259.377 220.233 259.057 219.803 258.645C219.372 258.234 219.03 257.739 218.795 257.191C218.561 256.643 218.441 256.054 218.441 255.458C218.441 254.862 218.561 254.273 218.795 253.725C219.03 253.177 219.372 252.682 219.803 252.271C220.233 251.859 220.743 251.539 221.301 251.329C221.858 251.12 222.453 251.026 223.048 251.052C223.048 249.883 222.583 248.761 221.756 247.934C220.929 247.107 219.807 246.642 218.638 246.642H205.705L202.555 249.792L201.029 251.318L196.973 255.374C197.106 255.29 197.265 255.258 197.42 255.284C197.574 255.31 197.714 255.392 197.812 255.515C197.91 255.637 197.959 255.792 197.951 255.948C197.942 256.105 197.876 256.253 197.765 256.364C197.654 256.475 197.506 256.541 197.349 256.55C197.193 256.558 197.038 256.509 196.916 256.411C196.793 256.313 196.711 256.173 196.685 256.018C196.659 255.864 196.692 255.705 196.775 255.572L195.872 256.476C195.746 256.35 195.631 256.224 195.507 256.091C196.51 256.913 197.278 257.986 197.731 259.201C198.185 260.416 198.309 261.73 198.09 263.009C197.87 264.287 197.316 265.484 196.484 266.479C195.652 267.474 194.571 268.23 193.351 268.671C193.947 268.643 194.543 268.735 195.102 268.944C195.661 269.152 196.172 269.472 196.604 269.884C197.037 270.296 197.38 270.791 197.615 271.34C197.85 271.888 197.972 272.479 197.972 273.076C197.972 273.673 197.85 274.264 197.615 274.812C197.38 275.361 197.037 275.856 196.604 276.268C196.172 276.68 195.661 277 195.102 277.208C194.543 277.417 193.947 277.51 193.351 277.481C193.351 278.651 193.815 279.772 194.642 280.599C195.469 281.426 196.591 281.891 197.761 281.891H218.645C218.067 280.734 217.722 279.474 217.63 278.183C217.539 276.893 217.703 275.597 218.112 274.369C218.522 273.142 219.169 272.007 220.017 271.03C220.865 270.053 221.898 269.253 223.055 268.675C222.46 268.701 221.866 268.607 221.308 268.398C220.75 268.188 220.241 267.868 219.81 267.457C219.38 267.045 219.037 266.55 218.803 266.002C218.569 265.455 218.448 264.865 218.448 264.269C218.448 263.673 218.569 263.084 218.803 262.536C219.037 261.988 219.38 261.494 219.81 261.082C220.241 260.67 220.75 260.35 221.308 260.141C221.866 259.931 222.46 259.837 223.055 259.864" fill="var(--fill-0, #EE9593)"/>
<path id="&#227;&#131;&#145;&#227;&#130;&#185; 127" d="M121.529 309.427H120.67L109.766 318.563L101.616 325.429V358.422C101.632 358.476 101.601 358.53 101.616 358.583H108.778C113.015 358.585 117.164 359.792 120.741 362.063C124.318 364.334 127.176 367.574 128.981 371.408C130.786 367.574 133.644 364.334 137.221 362.063C140.798 359.792 144.947 358.585 149.184 358.583H156.39V309.427H121.529ZM142.147 346.331H138.745V341.481H146.992C146.992 342.768 146.481 344.001 145.571 344.911C144.662 345.82 143.428 346.331 142.142 346.331M139.9 322.835V324.993H122.96V322.835H139.905H139.9ZM124.11 353.305H115.863V351.147H124.11V353.305ZM124.11 346.331H120.708C119.422 346.331 118.188 345.82 117.279 344.911C116.369 344.001 115.858 342.768 115.858 341.481H124.105L124.11 346.331ZM136.532 347.454H134.374V333.269H128.976V331.11H135.453C135.594 331.11 135.735 331.138 135.866 331.192C135.997 331.246 136.116 331.326 136.216 331.426C136.317 331.527 136.396 331.646 136.45 331.777C136.505 331.908 136.533 332.048 136.532 332.19V347.454ZM146.99 353.305H138.744V351.147H146.99V353.305Z" fill="var(--fill-0, #EE9593)"/>
<path id="&#227;&#131;&#145;&#227;&#130;&#185; 128" d="M59.5602 91.3273C59.5612 86.2275 61.0943 81.2456 63.9606 77.0275C66.8269 72.8094 70.8942 69.5497 75.6353 67.6708V54.1636C68.8291 55.8721 62.6231 59.4174 57.6945 64.4126C52.766 69.4078 49.3043 75.6609 47.6874 82.4894C46.0706 89.3179 46.3606 96.4594 48.5259 103.134C50.6912 109.809 54.6485 115.761 59.9659 120.34L69.1135 111.192C66.1314 108.812 63.7241 105.79 62.0702 102.351C60.4163 98.9118 59.5584 95.1432 59.5602 91.3273Z" fill="var(--fill-0, #FFEACE)"/>
<path id="&#227;&#131;&#145;&#227;&#130;&#185; 129" d="M161.312 56.3447C161.729 56.3447 162.137 56.3107 162.548 56.2817L160.398 54.1321C155.16 53.8984 150.199 51.7127 146.491 48.005C142.783 44.2974 140.598 39.3363 140.364 34.0981L138.214 31.9473C138.187 32.3581 138.151 32.7663 138.151 33.1834C138.16 39.3233 140.602 45.2095 144.944 49.5512C149.285 53.893 155.172 56.336 161.312 56.3447Z" fill="var(--fill-0, #FFEACE)"/>
<path id="&#227;&#131;&#145;&#227;&#130;&#185; 130" d="M201.503 96.5361C201.92 96.5361 202.33 96.5021 202.739 96.4732L200.589 94.3236C195.35 94.0895 190.389 91.9028 186.681 88.1939C182.973 84.485 180.788 79.5225 180.556 74.2833L178.405 72.1338C178.377 72.5433 178.342 72.9527 178.342 73.3698C178.349 79.5117 180.792 85.4001 185.135 89.7431C189.478 94.0862 195.366 96.5291 201.508 96.5361" fill="var(--fill-0, #FFEACE)"/>
<path id="&#227;&#131;&#145;&#227;&#130;&#185; 131" d="M82.5741 34.8881C85.7927 34.847 88.9428 33.9527 91.7029 32.2965C94.463 30.6403 96.7343 28.2815 98.285 25.4608L98.411 25.2227V25.0034H96.0422C94.667 27.3551 92.7001 29.3057 90.337 30.6612C87.9739 32.0167 85.2971 32.7299 82.5728 32.7298H75.634V34.8881H82.5728H82.5741Z" fill="var(--fill-0, #FFEACE)"/>
<path id="&#227;&#131;&#145;&#227;&#130;&#185; 132" d="M109.882 28.476C111.55 30.4732 113.634 32.0817 115.989 33.1891C118.344 34.2964 120.912 34.8759 123.514 34.8869H130.453V32.7285H123.514C120.79 32.7288 118.113 32.0156 115.75 30.6601C113.387 29.3046 111.42 27.3539 110.045 25.0022H107.676V25.2189L107.802 25.457C108.389 26.531 109.086 27.5414 109.881 28.4722" fill="var(--fill-0, #FFEACE)"/>
<path id="&#227;&#131;&#145;&#227;&#130;&#185; 133" d="M220.747 114.481C220.747 114.383 220.722 114.29 220.718 114.191L218.602 112.076C218.602 112.159 218.596 112.242 218.59 112.328C218.562 112.738 218.527 113.147 218.527 113.565C218.534 117.992 219.809 122.324 222.201 126.05C224.592 129.775 228.001 132.738 232.023 134.588V132.163C228.757 130.463 225.997 127.935 224.017 124.831C222.038 121.727 220.91 118.157 220.747 114.48" fill="var(--fill-0, #FFEACE)"/>
<path id="&#227;&#131;&#145;&#227;&#130;&#185; 134" d="M172.058 280.419L162.91 289.567C166.391 292.35 169.08 295.998 170.707 300.147C172.335 304.295 172.844 308.799 172.183 313.206C171.523 317.613 169.716 321.77 166.944 325.259C164.172 328.748 160.532 331.448 156.389 333.089V346.596C163.195 344.887 169.401 341.342 174.33 336.347C179.258 331.352 182.72 325.099 184.337 318.27C185.953 311.442 185.663 304.3 183.498 297.625C181.333 290.95 177.375 284.998 172.058 280.419Z" fill="var(--fill-0, #FFEACE)"/>
<path id="&#227;&#131;&#145;&#227;&#130;&#185; 135" d="M70.7112 344.416C70.2941 344.416 69.8859 344.45 69.4751 344.479L71.6247 346.628C76.8628 346.862 81.8237 349.048 85.5313 352.756C89.2389 356.463 91.4247 361.424 91.6587 366.662L93.8082 368.812C93.836 368.403 93.8712 367.993 93.8712 367.576C93.8642 361.434 91.4213 355.546 87.0782 351.203C82.7352 346.86 76.8468 344.417 70.7049 344.41" fill="var(--fill-0, #FFEACE)"/>
<path id="&#227;&#131;&#145;&#227;&#130;&#185; 136" d="M30.5197 304.223C30.1027 304.223 29.6932 304.257 29.2837 304.286L31.4332 306.436C36.6735 306.668 41.6368 308.854 45.3459 312.564C49.0549 316.273 51.241 321.236 51.4735 326.476L53.6243 328.626C53.652 328.215 53.6873 327.807 53.6873 327.39C53.6803 321.248 51.2373 315.359 46.8943 311.016C42.5513 306.673 36.6617 304.23 30.5197 304.223Z" fill="var(--fill-0, #FFEACE)"/>
<path id="&#227;&#131;&#145;&#227;&#130;&#185; 137" d="M144.254 366.669C139.772 368.092 136.009 371.182 133.74 375.3L133.614 375.538V375.757H135.983C137.358 373.406 139.325 371.455 141.688 370.1C144.051 368.745 146.727 368.032 149.451 368.032H156.39V365.874H149.451C147.689 365.88 145.938 366.149 144.255 366.67" fill="var(--fill-0, #FFEACE)"/>
<path id="&#227;&#131;&#145;&#227;&#130;&#185; 138" d="M122.141 372.283C120.473 370.286 118.389 368.678 116.035 367.571C113.681 366.463 111.113 365.884 108.511 365.873H101.572V368.031H108.511C111.235 368.031 113.912 368.744 116.274 370.099C118.637 371.454 120.604 373.405 121.979 375.756H124.348V375.537L124.222 375.299C123.634 374.224 122.937 373.213 122.142 372.282" fill="var(--fill-0, #FFEACE)"/>
<path id="&#227;&#131;&#145;&#227;&#130;&#185; 139" d="M1.2207e-06 266.175V268.597C3.26548 270.296 6.02652 272.824 8.00593 275.928C9.98534 279.031 11.1134 282.601 11.277 286.278C11.277 286.377 11.3035 286.47 11.306 286.568L13.4215 288.684C13.4215 288.601 13.4291 288.517 13.4341 288.432C13.4618 288.022 13.4971 287.613 13.4971 287.196C13.489 282.769 12.2136 278.437 9.82184 274.712C7.43006 270.987 4.02183 268.025 1.2207e-06 266.175Z" fill="var(--fill-0, #FFEACE)"/>
<path id="&#227;&#131;&#145;&#227;&#130;&#185; 140" d="M156.109 150.963H136.387L135.44 159.187H155.163L156.109 150.963Z" fill="var(--fill-0, #FFEACE)"/>
<path id="&#227;&#131;&#145;&#227;&#130;&#185; 141" d="M86.3276 159.188H105L105.947 150.963H87.2752L86.3276 159.188Z" fill="var(--fill-0, #FFEACE)"/>
<path id="&#227;&#131;&#145;&#227;&#130;&#185; 142" d="M75.915 249.569H95.6365L96.584 241.344H76.8625L75.915 249.569Z" fill="var(--fill-0, #FFEACE)"/>
<path id="&#227;&#131;&#145;&#227;&#130;&#185; 143" d="M145.696 241.345H127.018L126.071 249.571H144.748L145.696 241.345Z" fill="var(--fill-0, #FFEACE)"/>
<path id="&#227;&#131;&#145;&#227;&#130;&#185; 144" d="M32.3807 154.112C31.4483 153.04 30.4907 151.982 29.4676 150.962L26.3176 154.112L24.7363 155.693L25.1483 155.281C35.463 165.619 41.2557 179.627 41.2557 194.231C41.2557 208.835 35.463 222.842 25.1483 233.181L29.4664 237.5C40.3966 226.54 46.7728 211.848 47.3132 196.379C47.8536 180.909 42.5195 165.808 32.3807 154.112Z" fill="var(--fill-0, #FFEACE)"/>
<g id="&#227;&#131;&#145;&#227;&#130;&#185; 145">
</g>
<path id="&#227;&#131;&#145;&#227;&#130;&#185; 146" d="M36.1507 144.281L35.2472 145.183L35.0494 145.381L30.9935 149.437C32.4677 150.911 33.8537 152.44 35.1515 154.024C45.1161 166.188 50.2081 181.62 49.4398 197.326C48.6716 213.032 42.0978 227.893 30.9935 239.027L36.1494 244.183C47.65 232.714 54.8269 217.618 56.4618 201.459C56.4984 201.1 56.5299 200.741 56.5614 200.38C56.5929 200.021 56.613 199.661 56.6382 199.302C57.3714 189.287 55.9551 179.231 52.4845 169.808C49.0138 160.386 43.5689 151.814 36.5148 144.667C36.3888 144.541 36.2754 144.407 36.1494 144.283" fill="var(--fill-0, #FFEACE)"/>
<g id="&#227;&#131;&#145;&#227;&#130;&#185; 147">
</g>
<path id="&#227;&#131;&#145;&#227;&#130;&#185; 148" d="M206.874 167.577L207.252 167.955L202.553 163.256C191.599 174.203 185.206 188.899 184.666 204.376C184.125 219.853 189.476 234.959 199.639 246.644C200.572 247.716 201.529 248.773 202.553 249.794L205.703 246.644L206.872 245.474C196.557 235.136 190.764 221.129 190.764 206.525C190.764 191.921 196.557 177.913 206.872 167.575" fill="var(--fill-0, #FFEACE)"/>
<path id="&#227;&#131;&#145;&#227;&#130;&#185; 149" d="M192.021 239.944C184.494 227.799 181.288 213.467 182.923 199.272C184.558 185.077 190.939 171.85 201.031 161.734L195.875 156.576C184.374 168.045 177.197 183.141 175.562 199.301C175.526 199.66 175.494 200.02 175.463 200.379C175.431 200.738 175.411 201.098 175.386 201.458C174.653 211.472 176.069 221.528 179.54 230.951C183.01 240.374 188.455 248.946 195.509 256.092C195.635 256.218 195.75 256.351 195.875 256.478L196.778 255.575L196.976 255.378L201.032 251.322C199.558 249.847 198.172 248.318 196.874 246.736C195.107 244.582 193.485 242.313 192.019 239.944" fill="var(--fill-0, #FFEACE)"/>
<path id="&#227;&#131;&#145;&#227;&#130;&#185; 150" d="M159.66 120.364L159.631 120.392L156.103 150.964L155.155 159.19L152.761 180.015L150.54 199.302H175.56C177.194 183.141 184.371 168.043 195.872 156.573L159.66 120.359V120.364Z" fill="var(--fill-0, #546AB3)"/>
<path id="&#227;&#131;&#145;&#227;&#130;&#185; 151" d="M36.516 144.664C43.5701 151.811 49.0149 160.383 52.4856 169.806C55.9563 179.229 57.3725 189.284 56.6395 199.299H81.706L83.9273 180.012L86.3213 159.187L87.2689 150.962L88.7809 137.807C77.8903 134.422 67.9887 128.434 59.9332 120.362L38.5497 141.857L36.1406 144.279C36.2666 144.405 36.3812 144.531 36.506 144.663" fill="var(--fill-0, #546AB3)"/>
<path id="&#227;&#131;&#145;&#227;&#130;&#185; 152" d="M96.0422 25.0034H75.6302V32.7298H82.5691C85.2933 32.7299 87.9701 32.0167 90.3332 30.6612C92.6962 29.3057 94.6633 27.3551 96.0385 25.0034" fill="var(--fill-0, #546AB3)"/>
<path id="&#227;&#131;&#145;&#227;&#130;&#185; 153" d="M82.8412 42.1709C87.0783 42.169 91.2275 40.9621 94.8046 38.6912C98.3818 36.4203 101.239 33.179 103.044 29.3454C104.849 33.179 107.706 36.4203 111.283 38.6912C114.861 40.9621 119.01 42.169 123.247 42.1709H130.409L130.453 42.3322C130.512 42.5452 130.564 42.7606 130.627 42.9723C132.076 47.9287 134.746 52.4418 138.393 56.0977C146.738 64.4427 158.841 67.0093 170.355 64.0874L162.549 56.2817C162.138 56.3107 161.73 56.3447 161.313 56.3447C155.171 56.3377 149.282 53.8947 144.939 49.5517C140.596 45.2087 138.153 39.3203 138.146 33.1783C138.146 32.7613 138.18 32.353 138.209 31.9423L131.271 25.0034H110.045C111.42 27.3551 113.387 29.3057 115.75 30.6612C118.113 32.0167 120.79 32.7299 123.514 32.7298H130.453V34.8881H123.514C120.295 34.847 117.145 33.9527 114.385 32.2965C111.625 30.6403 109.354 28.2815 107.803 25.4608L107.677 25.2227V25.0034H98.411V25.2189L98.285 25.457C96.7537 28.294 94.4868 30.6664 91.7224 32.3252C88.958 33.984 85.798 34.868 82.5741 34.8844H75.6353V42.1684H82.8412V42.1709Z" fill="var(--fill-0, #546AB3)"/>
<path id="&#227;&#131;&#145;&#227;&#130;&#185; 154" d="M160.399 54.1321L140.365 34.0981C140.599 39.3363 142.785 44.2974 146.492 48.005C150.2 51.7127 155.161 53.8984 160.399 54.1321Z" fill="var(--fill-0, #546AB3)"/>
<path id="&#227;&#131;&#145;&#227;&#130;&#185; 155" d="M178.584 96.2892C186.929 104.634 199.032 107.201 210.545 104.279L202.739 96.4732C202.328 96.5022 201.92 96.5362 201.503 96.5362C195.361 96.5292 189.473 94.0862 185.13 89.7432C180.787 85.4002 178.344 79.5117 178.337 73.3698C178.337 72.9527 178.371 72.5432 178.4 72.1337L170.594 64.328C167.672 75.8419 170.239 87.9442 178.584 96.2892Z" fill="var(--fill-0, #546AB3)"/>
<path id="&#227;&#131;&#145;&#227;&#130;&#185; 156" d="M200.597 94.3236L180.55 74.2833C180.783 79.5246 182.97 84.4888 186.68 88.198C190.391 91.9072 195.356 94.0926 200.597 94.3236Z" fill="var(--fill-0, #546AB3)"/>
<path id="&#227;&#131;&#145;&#227;&#130;&#185; 157" d="M218.529 113.561C218.529 113.143 218.563 112.735 218.592 112.324C218.592 112.241 218.6 112.158 218.605 112.072L210.836 104.303C210.817 104.373 210.806 104.445 210.787 104.516C207.865 116.03 210.431 128.133 218.776 136.478C222.464 140.155 227.021 142.838 232.025 144.279V134.582C228.003 132.732 224.595 129.769 222.203 126.044C219.812 122.318 218.537 117.986 218.529 113.559" fill="var(--fill-0, #546AB3)"/>
<path id="&#227;&#131;&#145;&#227;&#130;&#185; 158" d="M220.719 114.191C220.719 114.29 220.743 114.383 220.748 114.481C220.913 118.158 222.042 121.727 224.022 124.829C226.002 127.932 228.763 130.459 232.028 132.158V125.491L220.719 114.191Z" fill="var(--fill-0, #546AB3)"/>
<path id="&#227;&#131;&#145;&#227;&#130;&#185; 159" d="M76.8625 241.344L79.2565 220.519L81.4527 201.459H56.4631C54.8295 217.618 47.6543 232.713 36.1557 244.183L72.3693 280.395L75.9213 249.568L76.8625 241.344Z" fill="var(--fill-0, #546AB3)"/>
<path id="&#227;&#131;&#145;&#227;&#130;&#185; 160" d="M175.388 201.459H150.292L148.097 220.519L145.703 241.344L144.755 249.569L143.214 262.942C154.114 266.326 164.024 272.317 172.086 280.397L193.469 258.901C193.601 258.319 193.85 257.77 194.201 257.288C194.553 256.805 194.998 256.399 195.512 256.095C188.457 248.948 183.012 240.376 179.542 230.953C176.071 221.53 174.655 211.474 175.388 201.459Z" fill="var(--fill-0, #546AB3)"/>
<path id="&#227;&#131;&#145;&#227;&#130;&#185; 161" d="M149.184 358.588C144.947 358.59 140.798 359.797 137.221 362.068C133.644 364.339 130.786 367.579 128.981 371.413C127.176 367.579 124.319 364.338 120.742 362.068C117.164 359.797 113.015 358.59 108.778 358.588H101.616C101.603 358.536 101.632 358.481 101.616 358.427C101.559 358.214 101.679 357.999 101.616 357.787C100.086 352.817 97.3418 348.307 93.6319 344.663C85.2869 336.318 73.1833 333.751 61.6707 336.673L69.4764 344.479C69.8872 344.451 70.2954 344.416 70.7125 344.416C76.8544 344.423 82.7428 346.866 87.0858 351.209C91.4288 355.552 93.8718 361.44 93.8788 367.582C93.8788 367.999 93.8448 368.408 93.8158 368.818L100.755 375.757H121.979C120.604 373.406 118.637 371.456 116.274 370.1C113.912 368.745 111.235 368.032 108.511 368.032H101.571V365.873H108.511C111.73 365.914 114.879 366.808 117.639 368.464C120.399 370.121 122.67 372.479 124.221 375.3L124.347 375.538V375.757H133.613V375.538L133.739 375.3C135.27 372.463 137.536 370.09 140.301 368.431C143.065 366.772 146.225 365.889 149.449 365.873H156.387V368.031H149.449C146.725 368.03 144.048 368.743 141.685 370.099C139.322 371.454 137.355 373.404 135.98 375.756H156.392V358.587H149.187L149.184 358.588Z" fill="var(--fill-0, #546AB3)"/>
<path id="&#227;&#131;&#145;&#227;&#130;&#185; 162" d="M71.626 346.627L91.66 366.661C91.426 361.423 89.2402 356.462 85.5326 352.755C81.825 349.047 76.8641 346.861 71.626 346.627Z" fill="var(--fill-0, #546AB3)"/>
<path id="&#227;&#131;&#145;&#227;&#130;&#185; 163" d="M53.4391 304.471C45.0941 296.126 32.9906 293.56 21.478 296.482L29.2837 304.294C29.6944 304.265 30.1027 304.231 30.5197 304.231C36.6617 304.238 42.5501 306.681 46.8931 311.024C51.2361 315.367 53.6791 321.255 53.6861 327.397C53.6861 327.814 53.6521 328.222 53.6231 328.633L61.4288 336.438C64.3507 324.925 61.7841 312.821 53.4391 304.476" fill="var(--fill-0, #546AB3)"/>
<path id="&#227;&#131;&#145;&#227;&#130;&#185; 164" d="M31.4345 306.436L51.4748 326.476C51.2422 321.236 49.0562 316.273 45.3471 312.564C41.6381 308.854 36.6747 306.668 31.4345 306.436Z" fill="var(--fill-0, #546AB3)"/>
<path id="&#227;&#131;&#145;&#227;&#130;&#185; 165" d="M13.2489 264.272C9.561 260.598 5.00321 257.917 1.2207e-06 256.478L1.2207e-06 266.18C4.02218 268.03 7.43054 270.993 9.82213 274.719C12.2137 278.445 13.4885 282.777 13.4959 287.204C13.4959 287.621 13.4618 288.031 13.4329 288.44C13.4329 288.524 13.4253 288.607 13.4203 288.692L21.1894 296.462C21.2071 296.39 21.2197 296.319 21.2386 296.249C24.1605 284.735 21.5939 272.631 13.2489 264.288" fill="var(--fill-0, #546AB3)"/>
<path id="&#227;&#131;&#145;&#227;&#130;&#185; 166" d="M1.2207e-06 268.597V275.263L11.3047 286.569C11.3047 286.471 11.2808 286.378 11.2757 286.278C11.1123 282.601 9.98439 279.031 8.00521 275.928C6.02603 272.824 3.26525 270.296 1.2207e-06 268.597Z" fill="var(--fill-0, #546AB3)"/>
<path id="&#227;&#131;&#145;&#227;&#130;&#185; 167" d="M24.386 230.811V232.418L24.764 232.796L25.142 233.174C35.4567 222.836 41.2494 208.828 41.2494 194.225C41.2494 179.621 35.4567 165.613 25.142 155.275L24.73 155.687L24.3785 156.038V157.646C24.5045 157.772 24.6065 157.92 24.73 158.051C33.9843 167.923 39.1052 180.966 39.0401 194.497C38.9749 208.029 33.7287 221.021 24.3797 230.804" fill="var(--fill-0, #546AB3)"/>
<path id="&#227;&#131;&#145;&#227;&#130;&#185; 168" d="M207.638 169.948V168.339L207.26 167.961L206.882 167.583C196.567 177.921 190.775 191.928 190.775 206.532C190.775 221.136 196.567 235.144 206.882 245.482L207.293 245.07L207.644 244.718V243.111C207.518 242.985 207.416 242.837 207.293 242.706C198.039 232.834 192.918 219.791 192.984 206.26C193.049 192.729 198.296 179.737 207.644 169.954" fill="var(--fill-0, #546AB3)"/>
<path id="&#227;&#131;&#145;&#227;&#130;&#185; 169" d="M210.787 104.52L210.546 104.279C199.032 107.201 186.929 104.634 178.585 96.2892C170.241 87.9442 167.673 75.8419 170.595 64.328L170.355 64.0874C158.841 67.0093 146.738 64.4427 138.393 56.0977C134.746 52.4419 132.076 47.9287 130.627 42.9723V75.3253H130.453L122.263 82.1911L111.359 91.3273H89.1513V91.4848C94.6935 96.9228 102.156 99.956 109.921 99.9265C117.685 99.897 125.125 96.8072 130.625 91.3273L132.641 93.3433L159.435 120.137L159.639 120.34L201.033 161.734C189.927 172.867 183.353 187.728 182.584 203.435C181.816 219.141 186.909 234.573 196.875 246.737C198.174 248.315 199.56 249.844 201.033 251.323L202.559 249.798C201.538 248.777 200.579 247.721 199.646 246.648C189.511 234.949 184.178 219.85 184.718 204.381C185.258 188.913 191.632 174.222 202.559 163.259L218.441 179.143C218.812 178.781 219.309 178.578 219.827 178.579C219.875 178.579 219.915 178.602 219.962 178.605C220.452 178.638 220.914 178.848 221.262 179.195C221.609 179.543 221.819 180.005 221.852 180.495C221.852 180.543 221.88 180.583 221.88 180.631V181.276H222.525C222.573 181.276 222.613 181.301 222.661 181.304C223.151 181.336 223.614 181.546 223.961 181.894C224.309 182.241 224.518 182.703 224.551 183.194C224.551 183.241 224.579 183.282 224.579 183.329C224.578 183.611 224.519 183.891 224.405 184.149C224.308 184.36 224.176 184.554 224.015 184.721C223.826 184.929 223.595 185.096 223.338 185.211C223.081 185.325 222.803 185.385 222.521 185.386H221.876V186.031C221.876 186.577 221.659 187.1 221.273 187.486C220.887 187.872 220.364 188.089 219.818 188.089C219.273 188.089 218.749 187.872 218.363 187.486C217.978 187.1 217.761 186.577 217.761 186.031V185.398H217.116C216.57 185.398 216.047 185.181 215.661 184.795C215.275 184.409 215.058 183.886 215.058 183.34C215.058 182.794 215.275 182.271 215.661 181.885C216.047 181.499 216.57 181.282 217.116 181.282H217.761V180.637C217.762 180.356 217.822 180.078 217.936 179.82C218.051 179.563 218.218 179.332 218.426 179.143L211.942 172.659V234.293L227.692 218.543V188.41L232.009 192.728V144.283C227.005 142.842 222.447 140.158 218.76 136.482C210.415 128.137 207.848 116.033 210.772 104.52M218.906 195.63L219.68 194.856L220.453 195.63C220.917 196.094 221.178 196.723 221.178 197.379C221.178 198.035 220.917 198.664 220.453 199.128L219.68 199.902L218.906 199.128C218.442 198.664 218.182 198.035 218.182 197.379C218.182 196.723 218.442 196.094 218.906 195.63ZM224.401 212.239C224.242 212.607 223.979 212.919 223.644 213.139C223.31 213.359 222.919 213.476 222.519 213.477H221.873V214.123C221.873 214.669 221.657 215.192 221.271 215.578C220.885 215.964 220.362 216.181 219.816 216.181C219.27 216.181 218.747 215.964 218.361 215.578C217.975 215.192 217.758 214.669 217.758 214.123V213.477H217.113C216.567 213.477 216.044 213.26 215.658 212.874C215.272 212.488 215.056 211.965 215.056 211.419C215.056 210.873 215.272 210.35 215.658 209.964C216.044 209.578 216.567 209.362 217.113 209.362H217.758V208.716C217.762 208.172 217.979 207.65 218.365 207.265C218.75 206.88 219.271 206.662 219.816 206.659C219.864 206.659 219.904 206.683 219.951 206.687C220.441 206.719 220.903 206.929 221.251 207.277C221.598 207.624 221.808 208.086 221.841 208.577C221.841 208.625 221.868 208.664 221.868 208.713V209.358H222.513C222.561 209.358 222.602 209.382 222.65 209.386C223.14 209.418 223.602 209.628 223.95 209.976C224.297 210.323 224.507 210.785 224.54 211.276C224.54 211.322 224.567 211.362 224.567 211.41C224.567 211.693 224.508 211.972 224.393 212.231" fill="var(--fill-0, #353442)"/>
<path id="&#227;&#131;&#145;&#227;&#130;&#185; 170" d="M92.1186 77.9184H109.066V75.76H92.1186V77.9184Z" fill="var(--fill-0, #353442)"/>
<path id="&#227;&#131;&#145;&#227;&#130;&#185; 171" d="M107.909 59.2742H116.156C116.156 57.9879 115.645 56.7544 114.735 55.8449C113.826 54.9354 112.592 54.4244 111.306 54.4244H107.904L107.909 59.2742Z" fill="var(--fill-0, #353442)"/>
<path id="&#227;&#131;&#145;&#227;&#130;&#185; 172" d="M93.274 54.4244H89.872C88.5858 54.4244 87.3522 54.9354 86.4427 55.8449C85.5332 56.7544 85.0223 57.9879 85.0223 59.2742H93.269L93.274 54.4244Z" fill="var(--fill-0, #353442)"/>
<path id="&#233;&#149;&#183;&#230;&#150;&#185;&#229;&#189;&#162; 27" d="M93.274 47.4491H85.0273V49.6075H93.274V47.4491Z" fill="var(--fill-0, #353442)"/>
<path id="&#233;&#149;&#183;&#230;&#150;&#185;&#229;&#189;&#162; 28" d="M116.156 47.4491H107.909V49.6075H116.156V47.4491Z" fill="var(--fill-0, #353442)"/>
<path id="&#227;&#131;&#145;&#227;&#130;&#185; 173" d="M97.645 53.3018H95.4866V68.5654C95.4866 68.8515 95.6002 69.1258 95.8025 69.3281C96.0048 69.5303 96.2791 69.644 96.5651 69.644H103.043V67.4856H97.6437L97.645 53.3018Z" fill="var(--fill-0, #353442)"/>
<path id="&#227;&#131;&#145;&#227;&#130;&#185; 174" d="M158.783 28.8477C159.392 28.8477 159.988 28.6669 160.495 28.3283C161.002 27.9896 161.397 27.5083 161.63 26.9452C161.863 26.382 161.924 25.7623 161.805 25.1645C161.687 24.5666 161.393 24.0175 160.962 23.5865C160.531 23.1555 159.982 22.8619 159.384 22.743C158.786 22.6241 158.166 22.6851 157.603 22.9184C157.04 23.1517 156.559 23.5467 156.22 24.0535C155.881 24.5603 155.701 25.1562 155.701 25.7657C155.701 26.5831 156.025 27.367 156.603 27.945C157.181 28.523 157.965 28.8477 158.783 28.8477Z" fill="var(--fill-0, #353442)"/>
<path id="&#227;&#131;&#145;&#227;&#130;&#185; 175" d="M143.769 13.8335C144.378 13.8335 144.974 13.6528 145.481 13.3141C145.988 12.9755 146.383 12.4942 146.616 11.931C146.849 11.3678 146.91 10.7482 146.791 10.1503C146.672 9.55248 146.379 9.00332 145.948 8.5723C145.517 8.14128 144.968 7.84776 144.37 7.72884C143.772 7.60992 143.152 7.67095 142.589 7.90422C142.026 8.13749 141.545 8.53251 141.206 9.03933C140.867 9.54616 140.687 10.142 140.687 10.7516C140.687 11.569 141.011 12.3529 141.589 12.9309C142.167 13.5088 142.951 13.8335 143.769 13.8335Z" fill="var(--fill-0, #353442)"/>
<path id="&#227;&#131;&#145;&#227;&#130;&#185; 176" d="M125.023 9.65916C125.633 9.65916 126.229 9.47841 126.736 9.13976C127.243 8.80111 127.638 8.31977 127.871 7.75662C128.104 7.19346 128.165 6.57378 128.046 5.97594C127.927 5.3781 127.634 4.82895 127.203 4.39793C126.772 3.96691 126.223 3.67338 125.625 3.55446C125.027 3.43554 124.407 3.49657 123.844 3.72984C123.281 3.96311 122.8 4.35813 122.461 4.86495C122.122 5.37178 121.942 5.96765 121.942 6.5772C121.942 7.39459 122.266 8.1785 122.844 8.75647C123.422 9.33445 124.206 9.65916 125.023 9.65916Z" fill="var(--fill-0, #353442)"/>
<path id="&#227;&#131;&#145;&#227;&#130;&#185; 177" d="M106.563 9.65916C107.173 9.65916 107.769 9.47841 108.275 9.13976C108.782 8.80111 109.177 8.31977 109.411 7.75662C109.644 7.19346 109.705 6.57378 109.586 5.97594C109.467 5.3781 109.174 4.82895 108.743 4.39793C108.312 3.96691 107.762 3.67338 107.164 3.55446C106.567 3.43554 105.947 3.49657 105.384 3.72984C104.821 3.96311 104.339 4.35813 104.001 4.86495C103.662 5.37178 103.481 5.96765 103.481 6.5772C103.481 7.39459 103.806 8.1785 104.384 8.75647C104.962 9.33445 105.746 9.65916 106.563 9.65916Z" fill="var(--fill-0, #353442)"/>
<path id="&#227;&#131;&#145;&#227;&#130;&#185; 178" d="M88.1093 9.65916C88.7188 9.65916 89.3147 9.47841 89.8215 9.13976C90.3284 8.80111 90.7234 8.31977 90.9566 7.75662C91.1899 7.19346 91.2509 6.57378 91.132 5.97594C91.0131 5.3781 90.7195 4.82895 90.2885 4.39793C89.8575 3.96691 89.3084 3.67338 88.7105 3.55446C88.1127 3.43554 87.493 3.49657 86.9298 3.72984C86.3667 3.96311 85.8854 4.35813 85.5467 4.86495C85.2081 5.37178 85.0273 5.96765 85.0273 6.5772C85.0273 7.39459 85.352 8.1785 85.93 8.75647C86.508 9.33445 87.2919 9.65916 88.1093 9.65916Z" fill="var(--fill-0, #353442)"/>
<path id="&#227;&#131;&#145;&#227;&#130;&#185; 179" d="M162.704 41.4742L135.662 14.4333H75.634V18.5296H133.951L156.896 41.4742L232.024 116.602V110.794L162.704 41.4742Z" fill="var(--fill-0, #353442)"/>
<path id="&#227;&#131;&#145;&#227;&#130;&#185; 180" d="M21.2386 296.241L21.4792 296.482C32.9931 293.56 45.0967 296.126 53.4404 304.471C61.7841 312.816 64.352 324.919 61.43 336.433L61.6707 336.673C73.1846 333.751 85.2869 336.318 93.6319 344.663C97.3419 348.307 100.086 352.817 101.616 357.787V325.44L109.767 318.573L120.671 309.437H142.874V309.28C137.332 303.841 129.869 300.808 122.104 300.837C114.34 300.867 106.9 303.957 101.4 309.437L92.232 300.267L30.996 239.031C38.0104 232.013 43.2767 223.444 46.37 214.016C49.4633 204.589 50.2969 194.566 48.8036 184.756C47.8384 178.331 45.8886 172.092 43.0227 166.261C40.8811 161.891 38.2392 157.786 35.1502 154.026C33.8516 152.448 32.4656 150.919 30.9922 149.44L29.4664 150.966C30.487 151.985 31.4458 153.042 32.3795 154.116C42.5182 165.812 47.8536 180.913 47.3132 196.382C46.7728 211.852 40.3966 226.543 29.4664 237.504L13.5853 221.616C13.2148 221.978 12.7173 222.181 12.1993 222.181C12.1514 222.181 12.1111 222.157 12.0645 222.154C11.574 222.122 11.1121 221.912 10.7645 221.564C10.4169 221.217 10.2073 220.755 10.1745 220.264C10.1745 220.218 10.1468 220.177 10.1468 220.13V219.474H9.49032C9.44244 219.474 9.40212 219.449 9.35424 219.447C8.86377 219.414 8.40185 219.204 8.05426 218.857C7.70666 218.509 7.49702 218.047 7.46424 217.557C7.46424 217.509 7.43652 217.47 7.43652 217.421C7.44654 216.878 7.66653 216.36 8.05026 215.977C8.43398 215.593 8.95153 215.373 9.4941 215.363H10.1392V214.718C10.1392 214.172 10.356 213.649 10.7419 213.263C11.1277 212.877 11.6511 212.66 12.1968 212.66C12.7425 212.66 13.2659 212.877 13.6517 213.263C14.0376 213.649 14.2544 214.172 14.2544 214.718V215.363H14.8995C15.4452 215.363 15.9686 215.58 16.3544 215.966C16.7403 216.351 16.9571 216.875 16.9571 217.421C16.9571 217.966 16.7403 218.49 16.3544 218.876C15.9686 219.261 15.4452 219.478 14.8995 219.478H14.2506V220.123C14.2493 220.405 14.1894 220.683 14.0749 220.94C13.9604 221.197 13.7936 221.427 13.5853 221.616L20.0693 228.1V166.467L4.31928 182.217V212.348L1.2207e-06 208.034V256.479C5.00377 257.92 9.56156 260.603 13.2489 264.28C21.5939 272.625 24.1605 284.728 21.2386 296.241ZM13.104 205.13L12.3316 205.903L11.558 205.13C11.0941 204.666 10.8335 204.037 10.8335 203.381C10.8335 202.725 11.0941 202.096 11.558 201.632L12.3316 200.859L13.104 201.632C13.5679 202.096 13.8285 202.725 13.8285 203.381C13.8285 204.037 13.5679 204.666 13.104 205.13ZM7.60788 188.52C7.76711 188.153 8.03006 187.84 8.36446 187.62C8.69886 187.401 9.09016 187.283 9.49032 187.283H10.1354V186.637C10.1354 186.092 10.3522 185.568 10.7381 185.183C11.124 184.797 11.6473 184.58 12.193 184.58C12.7387 184.58 13.2621 184.797 13.6479 185.183C14.0338 185.568 14.2506 186.092 14.2506 186.637V187.283H14.8957C15.4414 187.283 15.9648 187.499 16.3507 187.885C16.7365 188.271 16.9533 188.794 16.9533 189.34C16.9533 189.886 16.7365 190.409 16.3507 190.795C15.9648 191.181 15.4414 191.398 14.8957 191.398H14.2506V192.043C14.2476 192.588 14.0299 193.109 13.6447 193.495C13.2594 193.88 12.7378 194.098 12.193 194.1C12.1451 194.1 12.1048 194.077 12.0582 194.074C11.5678 194.041 11.106 193.831 10.7585 193.484C10.411 193.136 10.2012 192.674 10.1682 192.184C10.1682 192.137 10.1405 192.097 10.1405 192.048V191.403H9.49032C9.44244 191.403 9.40212 191.378 9.35424 191.375C8.86377 191.342 8.40185 191.133 8.05426 190.785C7.70666 190.437 7.49702 189.976 7.46424 189.485C7.46424 189.437 7.43652 189.397 7.43652 189.349C7.43709 189.067 7.4963 188.787 7.6104 188.529" fill="var(--fill-0, #353442)"/>
<path id="&#227;&#131;&#145;&#227;&#130;&#185; 181" d="M139.905 322.84H122.958V324.998H139.905V322.84Z" fill="var(--fill-0, #353442)"/>
<path id="&#227;&#131;&#145;&#227;&#130;&#185; 182" d="M124.119 341.486H115.872C115.872 342.773 116.383 344.006 117.293 344.916C118.202 345.825 119.436 346.336 120.722 346.336H124.124L124.119 341.486Z" fill="var(--fill-0, #353442)"/>
<path id="&#227;&#131;&#145;&#227;&#130;&#185; 183" d="M138.75 341.486V346.336H142.152C143.438 346.336 144.672 345.825 145.581 344.916C146.491 344.006 147.002 342.773 147.002 341.486H138.75Z" fill="var(--fill-0, #353442)"/>
<path id="&#233;&#149;&#183;&#230;&#150;&#185;&#229;&#189;&#162; 29" d="M146.997 351.152H138.75V353.31H146.997V351.152Z" fill="var(--fill-0, #353442)"/>
<path id="&#233;&#149;&#183;&#230;&#150;&#185;&#229;&#189;&#162; 30" d="M124.115 351.152H115.868V353.31H124.115V351.152Z" fill="var(--fill-0, #353442)"/>
<path id="&#227;&#131;&#145;&#227;&#130;&#185; 184" d="M134.379 347.46H136.537V332.196C136.537 331.91 136.424 331.636 136.222 331.434C136.019 331.231 135.745 331.118 135.459 331.118H128.982V333.276H134.38V347.461L134.379 347.46Z" fill="var(--fill-0, #353442)"/>
<path id="&#227;&#131;&#145;&#227;&#130;&#185; 185" d="M73.2413 371.913C72.6317 371.913 72.0359 372.094 71.529 372.432C71.0222 372.771 70.6272 373.252 70.3939 373.815C70.1607 374.379 70.0996 374.998 70.2186 375.596C70.3375 376.194 70.631 376.743 71.062 377.174C71.493 377.605 72.0422 377.899 72.64 378.018C73.2378 378.137 73.8575 378.076 74.4207 377.842C74.9838 377.609 75.4652 377.214 75.8038 376.707C76.1425 376.2 76.3233 375.604 76.3233 374.995C76.3233 374.178 75.9985 373.394 75.4206 372.816C74.8426 372.238 74.0587 371.913 73.2413 371.913Z" fill="var(--fill-0, #353442)"/>
<path id="&#227;&#131;&#145;&#227;&#130;&#185; 186" d="M88.2554 386.927C87.6459 386.927 87.0501 387.108 86.5433 387.446C86.0365 387.785 85.6415 388.266 85.4082 388.829C85.1749 389.392 85.1137 390.012 85.2326 390.61C85.3514 391.208 85.6448 391.757 86.0757 392.188C86.5066 392.619 87.0556 392.913 87.6534 393.032C88.2511 393.151 88.8708 393.09 89.434 392.857C89.9971 392.624 90.4785 392.229 90.8173 391.722C91.1561 391.216 91.3371 390.62 91.3374 390.01C91.3374 389.193 91.0127 388.409 90.4347 387.831C89.8568 387.252 89.0729 386.927 88.2554 386.927Z" fill="var(--fill-0, #353442)"/>
<path id="&#227;&#131;&#145;&#227;&#130;&#185; 187" d="M106.999 391.103C106.39 391.103 105.794 391.283 105.287 391.622C104.78 391.961 104.385 392.442 104.152 393.005C103.919 393.568 103.858 394.188 103.976 394.786C104.095 395.384 104.389 395.933 104.82 396.364C105.251 396.795 105.8 397.088 106.398 397.207C106.996 397.326 107.615 397.265 108.179 397.032C108.742 396.799 109.223 396.404 109.562 395.897C109.9 395.39 110.081 394.794 110.081 394.185C110.081 393.367 109.756 392.583 109.178 392.005C108.6 391.427 107.817 391.103 106.999 391.103Z" fill="var(--fill-0, #353442)"/>
<path id="&#227;&#131;&#145;&#227;&#130;&#185; 188" d="M125.457 391.103C124.847 391.103 124.251 391.283 123.745 391.622C123.238 391.961 122.843 392.442 122.61 393.005C122.376 393.568 122.315 394.188 122.434 394.786C122.553 395.384 122.847 395.933 123.278 396.364C123.709 396.795 124.258 397.088 124.856 397.207C125.454 397.326 126.073 397.265 126.636 397.032C127.2 396.799 127.681 396.404 128.019 395.897C128.358 395.39 128.539 394.794 128.539 394.185C128.539 393.367 128.214 392.583 127.636 392.005C127.058 391.427 126.274 391.103 125.457 391.103Z" fill="var(--fill-0, #353442)"/>
<path id="&#227;&#131;&#145;&#227;&#130;&#185; 189" d="M143.913 391.103C143.304 391.103 142.708 391.283 142.201 391.622C141.694 391.961 141.299 392.442 141.066 393.005C140.833 393.568 140.772 394.188 140.891 394.786C141.01 395.384 141.303 395.933 141.734 396.364C142.165 396.795 142.714 397.088 143.312 397.207C143.91 397.326 144.53 397.265 145.093 397.032C145.656 396.799 146.137 396.404 146.476 395.897C146.815 395.39 146.995 394.794 146.995 394.185C146.995 393.367 146.671 392.583 146.093 392.005C145.515 391.427 144.731 391.103 143.913 391.103Z" fill="var(--fill-0, #353442)"/>
<path id="&#227;&#131;&#145;&#227;&#130;&#185; 190" d="M98.0734 382.232L75.1275 359.287L1.2207e-06 284.16V289.968L69.3202 359.288L96.361 386.33H156.389V382.234H98.0734V382.232Z" fill="var(--fill-0, #353442)"/>
<path id="&#227;&#131;&#145;&#227;&#130;&#185; 191" d="M136.386 150.963H156.108L159.636 120.39C150.539 129.479 139.13 135.906 126.644 138.977C114.157 142.047 101.068 141.643 88.7947 137.809L87.2827 150.963H105.96L105.012 159.188L102.618 180.014H83.9273L81.711 199.304H150.545L152.766 180.017H133.04L135.434 159.192L136.386 150.963ZM128.715 164.564L128.36 167.644C128.224 168.825 127.857 169.968 127.279 171.007C126.701 172.046 125.925 172.962 124.993 173.701C124.062 174.44 122.994 174.988 121.851 175.314C120.708 175.64 119.511 175.738 118.33 175.602C117.149 175.466 116.007 175.099 114.967 174.521C113.928 173.944 113.013 173.167 112.274 172.236C111.535 171.304 110.987 170.237 110.66 169.093C110.334 167.95 110.236 166.754 110.372 165.573L110.728 162.492C111.002 160.107 112.214 157.928 114.095 156.436C115.976 154.944 118.372 154.26 120.758 154.535C123.143 154.809 125.322 156.021 126.814 157.902C128.306 159.783 128.99 162.179 128.715 164.565" fill="var(--fill-0, #353442)"/>
<path id="&#227;&#131;&#145;&#227;&#130;&#185; 192" d="M129.418 220.519H148.095L150.292 201.459H81.4578L79.2616 220.519H98.9831L96.5891 241.344L95.6416 249.569H75.915L72.3643 280.397C81.457 271.301 92.8649 264.866 105.353 261.79C117.84 258.713 130.932 259.111 143.209 262.942L144.75 249.568H126.072L127.019 241.343L129.418 220.519ZM112.301 246.058C111.027 246.052 109.767 245.778 108.605 245.255C107.443 244.731 106.405 243.968 105.556 243.017C104.708 242.065 104.07 240.946 103.682 239.731C103.295 238.517 103.167 237.235 103.307 235.968L103.663 232.887C103.938 230.502 105.149 228.323 107.03 226.831C108.911 225.339 111.308 224.655 113.693 224.93C116.078 225.204 118.257 226.416 119.749 228.297C121.241 230.178 121.925 232.574 121.65 234.96L121.295 238.041C121.033 240.244 119.973 242.276 118.317 243.752C116.66 245.229 114.521 246.049 112.301 246.058Z" fill="var(--fill-0, #353442)"/>
<path id="&#227;&#131;&#145;&#227;&#130;&#185; 193" d="M89.2937 109.309C89.1041 109.519 88.9508 109.76 88.8401 110.021C88.7297 110.281 88.6715 110.561 88.6687 110.843C88.6687 111.416 88.8961 111.965 89.3009 112.37C89.7057 112.774 90.2547 113.002 90.8271 113.002C91.3996 113.002 91.9486 112.774 92.3533 112.37C92.7581 111.965 92.9855 111.416 92.9855 110.843C92.9824 110.561 92.9237 110.281 92.8129 110.021C92.7021 109.76 92.5488 109.519 92.3593 109.309C91.9409 108.925 91.394 108.712 90.8265 108.712C90.2589 108.712 89.712 108.925 89.2937 109.309Z" fill="var(--fill-0, #353442)"/>
<path id="&#227;&#131;&#145;&#227;&#130;&#185; 194" d="M115.996 112.464C115.714 112.501 115.443 112.595 115.198 112.738C114.953 112.882 114.738 113.072 114.568 113.299C114.397 113.526 114.273 113.785 114.203 114.06C114.133 114.336 114.119 114.622 114.161 114.903C114.221 115.236 114.357 115.55 114.559 115.82C114.752 116.106 115.01 116.34 115.313 116.504C115.616 116.667 115.954 116.755 116.298 116.759C116.406 116.763 116.515 116.755 116.622 116.738C116.871 116.697 117.11 116.612 117.329 116.486C117.621 116.321 117.87 116.09 118.056 115.812C118.243 115.533 118.361 115.214 118.402 114.882C118.444 114.556 118.41 114.224 118.304 113.913C118.198 113.602 118.022 113.319 117.79 113.086C117.557 112.853 117.275 112.677 116.964 112.57C116.653 112.463 116.322 112.428 115.996 112.469" fill="var(--fill-0, #353442)"/>
<path id="&#227;&#131;&#145;&#227;&#130;&#185; 195" d="M101.145 114.276C101.132 114.469 101.145 114.662 101.184 114.852C101.226 115.19 101.346 115.513 101.536 115.796C101.725 116.079 101.979 116.314 102.275 116.481C102.493 116.606 102.732 116.692 102.98 116.733C103.079 116.75 103.18 116.757 103.281 116.754C103.694 116.753 104.098 116.633 104.445 116.409C104.792 116.185 105.068 115.866 105.24 115.49C105.411 115.115 105.471 114.697 105.412 114.288C105.354 113.879 105.179 113.496 104.909 113.183C104.639 112.87 104.285 112.642 103.889 112.524C103.493 112.407 103.072 112.405 102.675 112.52C102.278 112.635 101.922 112.861 101.65 113.172C101.378 113.482 101.2 113.865 101.139 114.273" fill="var(--fill-0, #353442)"/>
<path id="&#227;&#131;&#145;&#227;&#130;&#185; 196" d="M127.953 108.856C127.685 108.953 127.442 109.108 127.241 109.31C127.039 109.511 126.885 109.754 126.787 110.022C126.677 110.282 126.618 110.561 126.615 110.843C126.621 111.416 126.846 111.964 127.245 112.376C127.547 112.68 127.932 112.887 128.353 112.972C128.773 113.056 129.209 113.013 129.605 112.849C130 112.684 130.339 112.406 130.576 112.049C130.813 111.692 130.938 111.272 130.935 110.843C130.943 110.56 130.884 110.279 130.764 110.022C130.654 109.761 130.5 109.52 130.31 109.31C130.007 109.011 129.621 108.808 129.203 108.727C128.784 108.647 128.351 108.692 127.958 108.856" fill="var(--fill-0, #353442)"/>
<path id="&#227;&#131;&#145;&#227;&#130;&#185; 197" d="M135.292 120.427C135.502 120.624 135.742 120.784 136.004 120.901C136.532 121.102 137.115 121.102 137.642 120.901C137.905 120.784 138.145 120.624 138.354 120.427C138.59 120.109 138.771 119.754 138.889 119.376C138.937 119.219 138.968 119.057 138.981 118.894C138.978 118.612 138.919 118.333 138.809 118.073C138.712 117.806 138.557 117.563 138.355 117.362C138.154 117.16 137.911 117.005 137.644 116.908C137.249 116.753 136.818 116.713 136.401 116.793C135.984 116.874 135.599 117.071 135.29 117.361C135.099 117.571 134.946 117.812 134.836 118.073C134.726 118.333 134.667 118.612 134.664 118.894C134.676 118.99 134.694 119.085 134.718 119.178C134.818 119.63 135.013 120.055 135.29 120.426" fill="var(--fill-0, #353442)"/>
<path id="&#227;&#131;&#145;&#227;&#130;&#185; 198" d="M123.227 122.05C122.717 122.181 122.273 122.493 121.978 122.928C121.682 123.364 121.556 123.892 121.622 124.413C121.688 124.935 121.943 125.415 122.337 125.762C122.732 126.11 123.24 126.302 123.766 126.301C123.948 126.301 124.129 126.28 124.305 126.238C124.58 126.167 124.839 126.043 125.066 125.872C125.293 125.701 125.484 125.488 125.628 125.243C125.772 124.998 125.867 124.728 125.907 124.447C125.946 124.165 125.93 123.879 125.86 123.604C125.789 123.329 125.664 123.071 125.493 122.844C125.323 122.617 125.109 122.426 124.864 122.282C124.62 122.137 124.349 122.042 124.068 122.003C123.787 121.963 123.5 121.979 123.225 122.05" fill="var(--fill-0, #353442)"/>
<path id="&#227;&#131;&#145;&#227;&#130;&#185; 199" d="M93.7591 123.6C93.6174 124.155 93.7012 124.744 93.9923 125.238C94.2834 125.731 94.7582 126.09 95.3127 126.234C95.4895 126.276 95.6704 126.297 95.852 126.297C96.3852 126.315 96.9058 126.133 97.312 125.787C97.7182 125.442 97.9807 124.957 98.0482 124.427C98.1156 123.898 97.9832 123.363 97.6767 122.926C97.3703 122.489 96.9119 122.183 96.3913 122.066V122.045C95.8363 121.908 95.2497 121.993 94.7573 122.284C94.2649 122.574 93.9061 123.046 93.7579 123.598" fill="var(--fill-0, #353442)"/>
<path id="&#227;&#131;&#145;&#227;&#130;&#185; 200" d="M109.8 123.751C109.411 123.753 109.03 123.862 108.698 124.066C108.366 124.27 108.096 124.56 107.918 124.906C107.743 125.214 107.648 125.56 107.642 125.914C107.642 126.49 107.87 127.042 108.277 127.449C108.684 127.855 109.236 128.084 109.812 128.084C110.387 128.084 110.939 127.855 111.346 127.449C111.753 127.042 111.981 126.49 111.981 125.914C111.974 125.556 111.875 125.206 111.694 124.896C111.512 124.553 111.239 124.266 110.907 124.065C110.574 123.864 110.193 123.757 109.804 123.756" fill="var(--fill-0, #353442)"/>
<path id="&#227;&#131;&#145;&#227;&#130;&#185; 201" d="M81.9542 120.902C82.4816 121.104 83.0648 121.104 83.5922 120.902C83.8542 120.785 84.0948 120.625 84.3041 120.428C84.6291 120.088 84.8301 119.649 84.8749 119.181C84.8993 119.087 84.9174 118.992 84.929 118.896C84.919 118.324 84.6941 117.777 84.299 117.364C84.0961 117.165 83.8536 117.011 83.5871 116.912C83.0622 116.697 82.4741 116.697 81.9491 116.912C81.6879 117.021 81.4471 117.174 81.2372 117.364C80.8422 117.777 80.6173 118.324 80.6072 118.896C80.6196 119.06 80.6505 119.222 80.6992 119.379C80.7724 119.773 80.9579 120.137 81.2334 120.428C81.4425 120.625 81.6832 120.785 81.9453 120.902" fill="var(--fill-0, #353442)"/>
<path id="&#227;&#131;&#145;&#227;&#130;&#185; 202" d="M128.386 99.9659C126.21 101.347 123.886 102.48 121.456 103.341C117.716 104.672 113.776 105.354 109.806 105.357C108.659 105.357 107.522 105.283 106.392 105.173C100.995 104.658 95.7964 102.876 91.219 99.9709C90.8132 99.7189 90.4012 99.4669 90.0056 99.196L88.7746 100.971C93.5917 104.303 99.1366 106.432 104.945 107.182C106.556 107.399 108.18 107.511 109.805 107.517C113.43 107.517 117.034 106.987 120.505 105.943C124.187 104.835 127.673 103.157 130.837 100.971L129.606 99.196C129.21 99.4707 128.797 99.7139 128.391 99.9722" fill="var(--fill-0, #353442)"/>
<path id="&#227;&#131;&#145;&#227;&#130;&#185; 203" d="M89.4184 132.355C95.9963 134.519 102.877 135.621 109.801 135.62C124.811 135.695 139.372 130.512 150.959 120.971L150.275 120.136L150.089 119.908L149.591 119.301C149.354 119.495 149.1 119.658 148.86 119.85C148.734 119.948 148.608 120.038 148.482 120.136C137.465 128.821 123.829 133.518 109.8 133.46C102.955 133.465 96.1556 132.355 89.6679 130.173C89.0719 129.973 88.4759 129.771 87.8863 129.552C81.6929 127.248 75.9056 123.973 70.7415 119.85C70.5021 119.658 70.2475 119.495 70.0094 119.301L69.5117 119.908L68.641 120.97C72.8165 124.389 77.4017 127.274 82.2906 129.558C84.6076 130.633 86.9875 131.567 89.4172 132.354" fill="var(--fill-0, #353442)"/>
<path id="&#227;&#131;&#145;&#227;&#130;&#185; 204" d="M141.208 292.077C141.491 292.074 141.77 292.015 142.029 291.903C142.289 291.792 142.523 291.63 142.72 291.428C142.929 291.237 143.091 291.001 143.195 290.739C143.306 290.479 143.364 290.2 143.368 289.918C143.362 289.342 143.129 288.792 142.719 288.386C142.522 288.184 142.288 288.022 142.028 287.91C141.495 287.695 140.9 287.695 140.367 287.91C140.108 288.022 139.874 288.184 139.677 288.386C139.475 288.583 139.314 288.817 139.201 289.076C139.099 289.345 139.049 289.631 139.051 289.918C139.047 290.199 139.098 290.478 139.201 290.739C139.306 291.001 139.469 291.237 139.677 291.428C139.877 291.632 140.115 291.795 140.378 291.906C140.641 292.018 140.923 292.076 141.208 292.077Z" fill="var(--fill-0, #353442)"/>
<path id="&#227;&#131;&#145;&#227;&#130;&#185; 205" d="M128.73 288.32C129.251 288.32 129.755 288.133 130.149 287.792C130.542 287.45 130.799 286.978 130.872 286.462C130.888 286.276 130.878 286.088 130.842 285.904C130.805 285.566 130.686 285.241 130.497 284.958C130.307 284.675 130.052 284.442 129.754 284.279C129.477 284.129 129.171 284.042 128.856 284.023C128.542 284.005 128.228 284.055 127.935 284.172C127.643 284.288 127.38 284.467 127.164 284.696C126.948 284.926 126.786 285.2 126.688 285.499C126.59 285.798 126.558 286.115 126.596 286.427C126.634 286.739 126.74 287.04 126.906 287.307C127.073 287.574 127.296 287.801 127.56 287.972C127.824 288.144 128.123 288.255 128.434 288.298C128.534 288.316 128.635 288.323 128.735 288.32" fill="var(--fill-0, #353442)"/>
<path id="&#227;&#131;&#145;&#227;&#130;&#185; 206" d="M115.715 288.319C115.823 288.323 115.931 288.316 116.038 288.298C116.604 288.21 117.112 287.901 117.452 287.44C117.792 286.979 117.935 286.402 117.852 285.836C117.799 285.51 117.669 285.201 117.474 284.935C117.259 284.644 116.975 284.413 116.646 284.263C116.318 284.113 115.957 284.049 115.597 284.078C115.237 284.106 114.89 284.226 114.589 284.425C114.289 284.625 114.044 284.898 113.877 285.218C113.711 285.539 113.63 285.896 113.64 286.257C113.651 286.618 113.753 286.97 113.937 287.28C114.122 287.591 114.382 287.849 114.694 288.031C115.006 288.213 115.359 288.312 115.72 288.319" fill="var(--fill-0, #353442)"/>
<path id="&#227;&#131;&#145;&#227;&#130;&#185; 207" d="M104.772 288.385C104.574 288.183 104.339 288.021 104.08 287.909C103.547 287.694 102.951 287.694 102.418 287.909C102.159 288.021 101.924 288.183 101.727 288.385C101.319 288.791 101.087 289.341 101.081 289.917C101.084 290.199 101.142 290.478 101.252 290.737C101.357 291 101.519 291.235 101.727 291.427C101.768 291.467 101.822 291.483 101.866 291.521C102.242 291.865 102.73 292.062 103.239 292.076C103.525 292.074 103.807 292.016 104.07 291.905C104.333 291.793 104.572 291.631 104.772 291.427C104.979 291.235 105.141 291 105.245 290.737C105.395 290.406 105.449 290.039 105.402 289.678C105.355 289.317 105.209 288.976 104.979 288.694C104.919 288.585 104.85 288.482 104.772 288.385Z" fill="var(--fill-0, #353442)"/>
<path id="&#227;&#131;&#145;&#227;&#130;&#185; 208" d="M96.0296 283.851C96.4245 283.691 96.7625 283.416 97.0008 283.062C97.2391 282.709 97.3668 282.292 97.3678 281.866C97.3547 281.77 97.3345 281.674 97.3073 281.581C97.292 281.399 97.2543 281.219 97.1952 281.046C97.0996 280.801 96.9522 280.579 96.7629 280.397C96.7453 280.378 96.7403 280.35 96.7201 280.332C96.6317 280.223 96.5208 280.135 96.395 280.073C96.281 279.988 96.1581 279.916 96.0284 279.859C95.8946 279.812 95.7572 279.776 95.6176 279.752C95.1984 279.669 94.7642 279.706 94.3652 279.859C94.1109 279.978 93.8776 280.138 93.6747 280.332C93.6571 280.35 93.6495 280.378 93.6319 280.397C93.4467 280.583 93.2995 280.803 93.1984 281.046C93.1677 281.156 93.147 281.269 93.1367 281.383C93.0905 281.54 93.0609 281.702 93.0485 281.866C93.048 282.44 93.2744 282.99 93.6785 283.398C93.8761 283.598 94.1116 283.757 94.3711 283.865C94.6307 283.973 94.9093 284.028 95.1905 284.028C95.4797 284.027 95.7658 283.968 96.0322 283.855" fill="var(--fill-0, #353442)"/>
<path id="&#227;&#131;&#145;&#227;&#130;&#185; 209" d="M108.268 278.779C108.45 278.777 108.63 278.755 108.807 278.713C109.358 278.565 109.829 278.206 110.116 277.713C110.402 277.22 110.483 276.633 110.339 276.081C110.237 275.692 110.028 275.339 109.736 275.062C109.443 274.786 109.079 274.597 108.684 274.517C108.289 274.438 107.88 274.47 107.503 274.611C107.126 274.752 106.796 274.996 106.551 275.316C106.306 275.635 106.155 276.016 106.116 276.417C106.077 276.818 106.151 277.221 106.329 277.582C106.508 277.943 106.784 278.246 107.127 278.458C107.469 278.669 107.865 278.781 108.268 278.779Z" fill="var(--fill-0, #353442)"/>
<path id="&#227;&#131;&#145;&#227;&#130;&#185; 210" d="M136.178 278.779C136.744 278.798 137.296 278.601 137.722 278.228C138.147 277.855 138.414 277.333 138.469 276.769C138.523 276.206 138.36 275.643 138.014 275.195C137.667 274.747 137.163 274.449 136.604 274.36C136.045 274.271 135.473 274.399 135.005 274.717C134.536 275.035 134.207 275.52 134.084 276.073C133.961 276.625 134.054 277.204 134.342 277.691C134.631 278.178 135.095 278.536 135.639 278.693C135.815 278.744 135.996 278.773 136.178 278.779Z" fill="var(--fill-0, #353442)"/>
<path id="&#227;&#131;&#145;&#227;&#130;&#185; 211" d="M122.212 277.008C122.604 277.005 122.987 276.895 123.321 276.689C123.654 276.483 123.924 276.189 124.102 275.84C124.274 275.538 124.368 275.198 124.376 274.85C124.376 274.278 124.148 273.729 123.744 273.324C123.339 272.919 122.79 272.692 122.218 272.692C121.645 272.692 121.096 272.919 120.691 273.324C120.287 273.729 120.059 274.278 120.059 274.85C120.059 274.898 120.083 274.938 120.087 274.985C120.119 275.529 120.358 276.041 120.753 276.417C121.149 276.793 121.672 277.004 122.218 277.008" fill="var(--fill-0, #353442)"/>
<path id="&#227;&#131;&#145;&#227;&#130;&#185; 212" d="M149.237 284.024C149.521 284.027 149.804 283.972 150.067 283.864C150.33 283.756 150.569 283.596 150.769 283.394C151.174 282.986 151.406 282.437 151.417 281.862C151.403 281.698 151.368 281.536 151.315 281.379C151.3 281.265 151.276 281.152 151.244 281.042C151.133 280.776 150.971 280.535 150.769 280.33C150.566 280.135 150.333 279.975 150.079 279.856C149.68 279.703 149.245 279.666 148.826 279.749C148.686 279.771 148.549 279.807 148.417 279.856C148.287 279.914 148.164 279.986 148.05 280.071C147.924 280.133 147.814 280.222 147.726 280.331C147.513 280.527 147.35 280.771 147.251 281.043C147.192 281.216 147.154 281.396 147.138 281.578C147.111 281.672 147.09 281.767 147.077 281.863C147.078 282.149 147.136 282.431 147.247 282.694C147.358 282.957 147.521 283.196 147.725 283.395C147.923 283.59 148.158 283.744 148.415 283.849C148.675 283.96 148.954 284.018 149.236 284.022" fill="var(--fill-0, #353442)"/>
<path id="&#227;&#131;&#145;&#227;&#130;&#185; 213" d="M102.424 301.571C104.943 299.831 107.684 298.435 110.573 297.421C114.313 296.089 118.254 295.408 122.224 295.404C123.372 295.404 124.508 295.479 125.637 295.589C131.034 296.104 136.233 297.886 140.81 300.791C141.216 301.043 141.628 301.295 142.025 301.567L143.256 299.792C138.438 296.46 132.893 294.33 127.084 293.581C125.473 293.365 123.85 293.253 122.225 293.246C118.6 293.246 114.995 293.776 111.524 294.82C107.84 295.923 104.353 297.6 101.192 299.791L102.424 301.571Z" fill="var(--fill-0, #353442)"/>
<path id="&#227;&#131;&#145;&#227;&#130;&#185; 214" d="M142.58 268.398C136.01 266.239 129.138 265.14 122.223 265.141C107.213 265.066 92.6516 270.249 81.0646 279.789L81.5623 280.397L81.9403 280.851L82.4443 281.459C82.6824 281.265 82.937 281.101 83.1764 280.909C83.4158 280.718 83.6338 280.572 83.8606 280.397C94.8248 271.857 108.338 267.245 122.235 267.299C129.071 267.293 135.862 268.4 142.342 270.575C142.947 270.778 143.551 270.982 144.149 271.205C150.343 273.509 156.131 276.784 161.295 280.907C161.535 281.097 161.789 281.261 162.027 281.456L162.531 280.849L163.402 279.787C159.221 276.368 154.631 273.483 149.737 271.2C147.412 270.122 145.024 269.186 142.585 268.396" fill="var(--fill-0, #353442)"/>
<path id="&#227;&#131;&#145;&#227;&#130;&#185; 215" d="M11.0237 217.422C11.0237 217.653 11.0923 217.879 11.2208 218.071C11.3493 218.264 11.5319 218.414 11.7456 218.502C11.9592 218.591 12.1943 218.614 12.4211 218.569C12.648 218.523 12.8563 218.412 13.0198 218.249C13.1833 218.085 13.2947 217.877 13.3398 217.65C13.3849 217.423 13.3618 217.188 13.2733 216.974C13.1848 216.761 13.0349 216.578 12.8426 216.45C12.6503 216.321 12.4243 216.253 12.193 216.253C12.0394 216.252 11.8873 216.283 11.7454 216.341C11.6034 216.4 11.4745 216.486 11.3658 216.595C11.2572 216.703 11.1711 216.832 11.1124 216.974C11.0537 217.116 11.0236 217.268 11.0237 217.422Z" fill="var(--fill-0, #353442)"/>
<path id="&#227;&#131;&#145;&#227;&#130;&#185; 216" d="M12.193 190.508C12.4243 190.508 12.6503 190.44 12.8426 190.311C13.0349 190.183 13.1848 190 13.2733 189.786C13.3618 189.573 13.3849 189.338 13.3398 189.111C13.2947 188.884 13.1833 188.676 13.0198 188.512C12.8563 188.349 12.6479 188.237 12.4211 188.192C12.1943 188.147 11.9592 188.17 11.7456 188.259C11.5319 188.347 11.3493 188.497 11.2208 188.689C11.0923 188.882 11.0237 189.108 11.0237 189.339C11.0237 189.649 11.1469 189.946 11.3662 190.166C11.5855 190.385 11.8829 190.508 12.193 190.508Z" fill="var(--fill-0, #353442)"/>
<path id="&#227;&#131;&#145;&#227;&#130;&#185; 217" d="M219.831 184.507C220.062 184.507 220.288 184.438 220.481 184.31C220.673 184.181 220.823 183.999 220.911 183.785C221 183.571 221.023 183.336 220.978 183.11C220.933 182.883 220.821 182.674 220.658 182.511C220.494 182.347 220.286 182.236 220.059 182.191C219.832 182.146 219.597 182.169 219.383 182.257C219.17 182.346 218.987 182.496 218.859 182.688C218.73 182.88 218.662 183.106 218.662 183.338C218.662 183.648 218.785 183.945 219.004 184.164C219.223 184.384 219.521 184.507 219.831 184.507Z" fill="var(--fill-0, #353442)"/>
<path id="&#227;&#131;&#145;&#227;&#130;&#185; 218" d="M219.831 210.252C219.6 210.252 219.374 210.321 219.181 210.45C218.989 210.578 218.839 210.761 218.751 210.974C218.662 211.188 218.639 211.423 218.684 211.65C218.729 211.877 218.841 212.085 219.004 212.249C219.168 212.412 219.376 212.523 219.603 212.569C219.83 212.614 220.065 212.591 220.278 212.502C220.492 212.414 220.675 212.264 220.803 212.071C220.932 211.879 221 211.653 221 211.422C221 211.112 220.877 210.814 220.658 210.595C220.438 210.376 220.141 210.252 219.831 210.252Z" fill="var(--fill-0, #353442)"/>
<path id="&#227;&#131;&#145;&#227;&#130;&#185; 219" d="M33.2728 96.7579L34.7559 95.2749C36.009 94.0218 36.713 92.3221 36.713 90.5499C36.713 88.7777 36.009 87.0781 34.7559 85.8249C33.5027 84.5718 31.8031 83.8677 30.0309 83.8677C28.2586 83.8677 26.559 84.5718 25.3059 85.8249L23.8228 87.3079L22.3411 85.8262C21.0879 84.573 19.3883 83.869 17.6161 83.869C15.8439 83.869 14.1442 84.573 12.8911 85.8262C11.6379 87.0793 10.9339 88.779 10.9339 90.5512C10.9339 92.3234 11.6379 94.023 12.8911 95.2762L14.3741 96.7592L12.8911 98.2422C11.6379 99.4954 10.9339 101.195 10.9339 102.967C10.9339 104.739 11.6379 106.439 12.8911 107.692C14.1442 108.945 15.8439 109.649 17.6161 109.649C19.3883 109.649 21.0879 108.945 22.3411 107.692L22.5792 107.454V118.872H24.7376V107.123L25.3071 107.692C26.5603 108.945 28.2599 109.649 30.0321 109.649C31.8043 109.649 33.504 108.945 34.7571 107.692C36.0103 106.439 36.7143 104.739 36.7143 102.967C36.7143 101.195 36.0103 99.4954 34.7571 98.2422L33.2728 96.7579ZM27.2702 100.205C26.4728 101.003 25.4235 101.499 24.3012 101.61C23.1789 101.721 22.0529 101.439 21.1151 100.812C20.1772 100.186 19.4856 99.2535 19.1581 98.1744C18.8305 97.0952 18.8872 95.9359 19.3186 94.8938C19.7499 93.8518 20.5292 92.9916 21.5237 92.4597C22.5182 91.9278 23.6663 91.7572 24.7725 91.9769C25.8787 92.1966 26.8745 92.793 27.5902 93.6646C28.3059 94.5361 28.6974 95.6289 28.6978 96.7567C28.699 97.3972 28.5734 98.0317 28.3284 98.6235C28.0834 99.2154 27.7238 99.753 27.2702 100.205Z" fill="var(--fill-0, #FFC94A)"/>
<path id="&#227;&#131;&#145;&#227;&#130;&#185; 220" d="M23.8241 94.0414C23.1959 94.0418 22.5874 94.2599 22.102 94.6587C21.6167 95.0575 21.2846 95.6122 21.1624 96.2283C21.0402 96.8444 21.1353 97.4839 21.4317 98.0377C21.728 98.5915 22.2072 99.0255 22.7876 99.2657C23.3681 99.5058 24.0138 99.5373 24.6148 99.3548C25.2159 99.1723 25.735 98.787 26.0839 98.2646C26.4327 97.7423 26.5897 97.1151 26.528 96.49C26.4663 95.8649 26.1898 95.2805 25.7456 94.8364C25.4933 94.584 25.1938 94.3839 24.864 94.2475C24.5343 94.111 24.1809 94.041 23.8241 94.0414Z" fill="var(--fill-0, #FFC94A)"/>
<path id="&#227;&#131;&#145;&#227;&#130;&#185; 221" d="M22.5792 157.852L1.2207e-06 180.431V208.032L4.31676 212.35V182.22L20.0668 166.47V228.105L24.3848 232.423V156.045L24.7363 155.693V154.112H22.5792V157.852Z" fill="var(--fill-0, #FFC94A)"/>
<path id="&#227;&#131;&#145;&#227;&#130;&#185; 222" d="M159.525 0H75.6353V14.432H135.662L162.703 41.4729H183.267L172.245 30.5386C168.214 26.5393 165.015 21.7819 162.832 16.5406C160.649 11.2993 159.525 5.67777 159.525 0ZM88.1093 9.65664C87.4997 9.65664 86.9038 9.47589 86.397 9.13724C85.8902 8.79859 85.4952 8.31725 85.2619 7.75409C85.0286 7.19094 84.9676 6.57126 85.0865 5.97342C85.2054 5.37558 85.499 4.82643 85.93 4.39541C86.361 3.96439 86.9102 3.67086 87.508 3.55194C88.1059 3.43302 88.7255 3.49405 89.2887 3.72732C89.8519 3.96059 90.3332 4.35561 90.6718 4.86243C91.0105 5.36926 91.1912 5.96513 91.1912 6.57468C91.1912 6.97941 91.1115 7.38017 90.9566 7.75409C90.8018 8.12802 90.5747 8.46777 90.2885 8.75395C90.0023 9.04014 89.6626 9.26716 89.2887 9.42204C88.9148 9.57692 88.514 9.65664 88.1093 9.65664ZM106.566 9.65664C105.956 9.65664 105.36 9.47589 104.854 9.13724C104.347 8.79859 103.952 8.31725 103.718 7.75409C103.485 7.19094 103.424 6.57126 103.543 5.97342C103.662 5.37558 103.955 4.82643 104.386 4.39541C104.817 3.96439 105.367 3.67086 105.964 3.55194C106.562 3.43302 107.182 3.49405 107.745 3.72732C108.308 3.96059 108.79 4.35561 109.128 4.86243C109.467 5.36926 109.648 5.96513 109.648 6.57468C109.648 7.39207 109.323 8.17598 108.745 8.75395C108.167 9.33193 107.383 9.65664 106.566 9.65664ZM125.022 9.65664C124.413 9.65664 123.817 9.47589 123.31 9.13724C122.803 8.79859 122.408 8.31725 122.175 7.75409C121.942 7.19094 121.881 6.57126 121.999 5.97342C122.118 5.37558 122.412 4.82643 122.843 4.39541C123.274 3.96439 123.823 3.67086 124.421 3.55194C125.019 3.43302 125.638 3.49405 126.202 3.72732C126.765 3.96059 127.246 4.35561 127.585 4.86243C127.923 5.36926 128.104 5.96513 128.104 6.57468C128.104 7.39207 127.779 8.17598 127.202 8.75395C126.624 9.33193 125.84 9.65664 125.022 9.65664ZM143.767 13.8335C143.158 13.8335 142.562 13.6528 142.055 13.3141C141.548 12.9755 141.153 12.4941 140.92 11.931C140.687 11.3678 140.626 10.7482 140.745 10.1503C140.863 9.55248 141.157 9.00332 141.588 8.57231C142.019 8.14129 142.568 7.84776 143.166 7.72884C143.764 7.60992 144.384 7.67095 144.947 7.90422C145.51 8.13749 145.991 8.53251 146.33 9.03933C146.668 9.54616 146.849 10.142 146.849 10.7516C146.849 11.569 146.524 12.3529 145.947 12.9309C145.369 13.5088 144.585 13.8335 143.767 13.8335ZM158.783 28.8477C158.173 28.8477 157.577 28.6669 157.07 28.3283C156.564 27.9896 156.169 27.5083 155.935 26.9452C155.702 26.382 155.641 25.7623 155.76 25.1645C155.879 24.5666 156.172 24.0175 156.603 23.5865C157.034 23.1554 157.584 22.8619 158.181 22.743C158.779 22.6241 159.399 22.6851 159.962 22.9184C160.525 23.1516 161.007 23.5467 161.345 24.0535C161.684 24.5603 161.865 25.1562 161.865 25.7657C161.865 26.5831 161.54 27.367 160.962 27.945C160.384 28.523 159.6 28.8477 158.783 28.8477Z" fill="var(--fill-0, #FFC94A)"/>
<path id="&#227;&#131;&#145;&#227;&#130;&#185; 223" d="M219.133 293.07C218.513 292.449 217.776 291.956 216.965 291.62C216.155 291.284 215.286 291.111 214.408 291.111C213.53 291.111 212.661 291.284 211.85 291.62C211.04 291.956 210.303 292.449 209.683 293.07L209.445 293.308V281.89H207.286V293.639L206.717 293.07C206.096 292.449 205.36 291.957 204.549 291.621C203.738 291.285 202.869 291.113 201.992 291.113C201.114 291.113 200.245 291.285 199.435 291.621C198.624 291.957 197.887 292.449 197.267 293.07C196.646 293.69 196.154 294.427 195.818 295.238C195.483 296.048 195.31 296.917 195.31 297.795C195.31 298.672 195.483 299.541 195.818 300.352C196.154 301.163 196.646 301.899 197.267 302.52L198.75 304.003L197.267 305.486C196.014 306.739 195.31 308.438 195.31 310.211C195.31 311.983 196.014 313.683 197.267 314.936C198.52 316.189 200.22 316.893 201.992 316.893C203.764 316.893 205.464 316.189 206.717 314.936L208.2 313.453L209.683 314.936C210.936 316.189 212.636 316.893 214.408 316.893C216.18 316.893 217.88 316.189 219.133 314.936C220.386 313.683 221.09 311.983 221.09 310.211C221.09 308.438 220.386 306.739 219.133 305.486L217.65 304.003L219.133 302.52C219.754 301.9 220.247 301.163 220.583 300.352C220.919 299.541 221.092 298.672 221.092 297.795C221.092 296.917 220.919 296.048 220.583 295.237C220.247 294.426 219.754 293.69 219.133 293.07ZM211.643 307.45C210.846 308.248 209.797 308.744 208.674 308.855C207.552 308.965 206.426 308.683 205.488 308.057C204.551 307.431 203.859 306.498 203.531 305.419C203.204 304.34 203.26 303.181 203.692 302.139C204.123 301.097 204.903 300.236 205.897 299.704C206.891 299.173 208.04 299.002 209.146 299.222C210.252 299.441 211.248 300.038 211.964 300.909C212.679 301.781 213.071 302.874 213.071 304.001C213.072 304.642 212.947 305.277 212.702 305.868C212.457 306.46 212.097 306.998 211.643 307.45Z" fill="var(--fill-0, #FFC94A)"/>
<path id="&#227;&#131;&#145;&#227;&#130;&#185; 224" d="M206.278 302.081C205.899 302.461 205.64 302.945 205.535 303.472C205.431 303.999 205.485 304.545 205.69 305.041C205.896 305.538 206.244 305.962 206.691 306.26C207.138 306.559 207.663 306.718 208.2 306.718C208.737 306.718 209.262 306.559 209.709 306.26C210.156 305.962 210.504 305.538 210.709 305.041C210.915 304.545 210.969 303.999 210.864 303.472C210.76 302.945 210.501 302.461 210.121 302.081C209.611 301.573 208.92 301.287 208.2 301.287C207.479 301.287 206.789 301.573 206.278 302.081Z" fill="var(--fill-0, #FFC94A)"/>
<path id="&#227;&#131;&#145;&#227;&#130;&#185; 225" d="M69.3202 359.287H48.7557L59.7782 370.222C63.8102 374.221 67.0105 378.979 69.1947 384.222C71.3789 389.464 72.5037 395.087 72.5042 400.766H156.394V386.33H96.3623L69.3202 359.287ZM73.2413 378.077C72.6318 378.077 72.036 377.896 71.5292 377.558C71.0224 377.219 70.6274 376.738 70.3941 376.175C70.1608 375.611 70.0996 374.992 70.2185 374.394C70.3373 373.796 70.6307 373.247 71.0616 372.816C71.4925 372.385 72.0415 372.091 72.6393 371.972C73.237 371.853 73.8567 371.914 74.4198 372.147C74.983 372.38 75.4644 372.775 75.8032 373.282C76.142 373.788 76.323 374.384 76.3232 374.994C76.3232 375.811 75.9986 376.595 75.4206 377.173C74.8427 377.752 74.0588 378.077 73.2413 378.077ZM88.2554 393.091C87.6459 393.091 87.05 392.91 86.5432 392.572C86.0364 392.233 85.6414 391.752 85.4081 391.188C85.1748 390.625 85.1138 390.006 85.2327 389.408C85.3516 388.81 85.6452 388.261 86.0762 387.83C86.5072 387.399 87.0564 387.105 87.6542 386.986C88.252 386.867 88.8717 386.928 89.4349 387.162C89.998 387.395 90.4794 387.79 90.818 388.297C91.1567 388.804 91.3374 389.399 91.3374 390.009C91.3374 390.826 91.0127 391.61 90.4347 392.188C89.8567 392.766 89.0728 393.091 88.2554 393.091ZM143.915 391.104C144.524 391.104 145.12 391.285 145.627 391.623C146.134 391.962 146.529 392.443 146.762 393.007C146.995 393.57 147.056 394.189 146.937 394.787C146.819 395.385 146.525 395.934 146.094 396.365C145.663 396.796 145.114 397.09 144.516 397.209C143.918 397.328 143.298 397.267 142.735 397.033C142.172 396.8 141.691 396.405 141.352 395.898C141.013 395.391 140.833 394.796 140.833 394.186C140.833 393.369 141.157 392.585 141.735 392.007C142.313 391.429 143.097 391.104 143.915 391.104ZM125.458 391.104C126.068 391.104 126.664 391.285 127.17 391.623C127.677 391.962 128.072 392.443 128.306 393.007C128.539 393.57 128.6 394.189 128.481 394.787C128.362 395.385 128.069 395.934 127.637 396.365C127.206 396.796 126.657 397.09 126.059 397.209C125.462 397.328 124.842 397.267 124.279 397.033C123.716 396.8 123.234 396.405 122.896 395.898C122.557 395.391 122.376 394.796 122.376 394.186C122.376 393.369 122.701 392.585 123.279 392.007C123.857 391.429 124.641 391.104 125.458 391.104ZM107 391.104C107.61 391.104 108.206 391.285 108.713 391.623C109.22 391.962 109.615 392.443 109.848 393.007C110.081 393.57 110.142 394.189 110.023 394.787C109.904 395.385 109.611 395.934 109.18 396.365C108.749 396.796 108.2 397.09 107.602 397.209C107.004 397.328 106.384 397.267 105.821 397.033C105.258 396.8 104.777 396.405 104.438 395.898C104.099 395.391 103.919 394.796 103.919 394.186C103.919 393.369 104.243 392.585 104.821 392.007C105.399 391.429 106.183 391.104 107 391.104Z" fill="var(--fill-0, #FFC94A)"/>
<path id="&#227;&#131;&#145;&#227;&#130;&#185; 226" d="M119.724 154.473C117.505 154.482 115.365 155.303 113.709 156.779C112.052 158.256 110.993 160.287 110.73 162.491L110.375 165.572C110.239 166.753 110.336 167.949 110.663 169.092C110.989 170.236 111.537 171.303 112.276 172.235C113.015 173.166 113.93 173.943 114.969 174.521C116.008 175.098 117.151 175.466 118.332 175.602C119.513 175.738 120.71 175.64 121.853 175.314C122.996 174.988 124.064 174.439 124.995 173.7C125.927 172.961 126.704 172.046 127.281 171.007C127.859 169.968 128.226 168.825 128.362 167.644L128.718 164.564C128.858 163.297 128.73 162.014 128.343 160.8C127.955 159.586 127.317 158.466 126.469 157.515C125.621 156.563 124.582 155.801 123.42 155.277C122.258 154.753 120.999 154.479 119.724 154.473Z" fill="var(--fill-0, #FFC94A)"/>
<path id="&#227;&#131;&#145;&#227;&#130;&#185; 227" d="M112.301 246.059C114.521 246.05 116.66 245.23 118.317 243.754C119.973 242.277 121.033 240.245 121.295 238.042L121.65 234.961C121.787 233.78 121.689 232.584 121.362 231.44C121.036 230.297 120.488 229.229 119.749 228.298C119.01 227.366 118.095 226.59 117.056 226.012C116.017 225.434 114.874 225.067 113.693 224.931C111.308 224.656 108.911 225.34 107.03 226.832C105.149 228.325 103.938 230.503 103.663 232.888L103.307 235.969C103.167 237.236 103.295 238.518 103.682 239.733C104.07 240.947 104.708 242.066 105.556 243.018C106.405 243.969 107.443 244.732 108.605 245.256C109.767 245.78 111.027 246.053 112.301 246.059Z" fill="var(--fill-0, #FFC94A)"/>
<path id="&#227;&#131;&#145;&#227;&#130;&#185; 228" d="M159.631 120.39L159.66 120.363L159.636 120.34L159.432 120.137L132.639 93.3421L130.623 91.326C125.122 96.8054 117.682 99.8949 109.918 99.9244C102.153 99.9539 94.6902 96.921 89.1475 91.4835C89.092 91.4281 89.0303 91.3827 88.9736 91.326L69.1097 111.19L59.9621 120.338L59.9394 120.36C73.1586 133.577 91.0849 141.005 109.778 141.01C128.471 141.015 146.402 133.598 159.628 120.388M134.836 118.072C134.946 117.811 135.099 117.57 135.29 117.36C135.599 117.069 135.984 116.872 136.401 116.792C136.818 116.712 137.249 116.752 137.644 116.907C137.911 117.004 138.154 117.159 138.355 117.36C138.557 117.562 138.712 117.805 138.809 118.072C138.919 118.332 138.977 118.61 138.981 118.892C138.968 119.056 138.937 119.218 138.889 119.375C138.771 119.753 138.59 120.108 138.354 120.426C138.145 120.623 137.905 120.783 137.642 120.9C137.115 121.101 136.532 121.101 136.004 120.9C135.742 120.783 135.502 120.622 135.292 120.426C135.015 120.055 134.82 119.63 134.72 119.178C134.666 118.996 134.648 118.804 134.668 118.614C134.689 118.424 134.747 118.24 134.839 118.073M124.305 126.233C124.129 126.275 123.948 126.296 123.766 126.296C123.362 126.296 122.966 126.182 122.623 125.968C122.28 125.754 122.004 125.448 121.826 125.085C121.648 124.722 121.576 124.316 121.617 123.914C121.659 123.512 121.812 123.129 122.06 122.81C122.308 122.491 122.64 122.247 123.02 122.108C123.399 121.968 123.81 121.937 124.206 122.019C124.602 122.101 124.967 122.293 125.259 122.572C125.551 122.851 125.76 123.207 125.86 123.598C125.997 124.154 125.911 124.741 125.62 125.233C125.33 125.726 124.858 126.085 124.305 126.233ZM111.98 125.908C111.98 126.483 111.751 127.035 111.344 127.442C110.938 127.849 110.386 128.078 109.81 128.078C109.235 128.078 108.683 127.849 108.276 127.442C107.869 127.035 107.641 126.483 107.641 125.908C107.647 125.554 107.741 125.208 107.916 124.9C108.094 124.552 108.364 124.261 108.697 124.056C109.029 123.852 109.412 123.743 109.802 123.742C110.193 123.74 110.576 123.846 110.91 124.048C111.244 124.25 111.516 124.54 111.696 124.886C111.877 125.195 111.976 125.546 111.984 125.904M80.6148 118.895C80.6249 118.323 80.8498 117.776 81.2448 117.363C81.4546 117.172 81.6953 117.019 81.9567 116.909C82.4817 116.695 83.0696 116.695 83.5947 116.909C83.8612 117.009 84.1038 117.163 84.3066 117.363C84.7023 117.776 84.9273 118.323 84.9366 118.895C84.9249 118.991 84.9068 119.086 84.8824 119.18C84.8378 119.648 84.6367 120.087 84.3116 120.427C84.1024 120.623 83.8618 120.784 83.5997 120.901C83.0723 121.102 82.4891 121.102 81.9617 120.901C81.6995 120.784 81.4589 120.624 81.2498 120.427C80.9743 120.136 80.7888 119.771 80.7156 119.377C80.6669 119.221 80.6361 119.059 80.6236 118.895M114.167 114.902C114.125 114.621 114.14 114.335 114.21 114.059C114.279 113.784 114.403 113.525 114.574 113.298C114.745 113.071 114.959 112.88 115.204 112.737C115.449 112.593 115.72 112.5 116.002 112.463C116.564 112.388 117.134 112.537 117.587 112.879C118.04 113.22 118.341 113.727 118.424 114.288C118.506 114.85 118.365 115.421 118.029 115.879C117.694 116.337 117.192 116.645 116.632 116.735C116.525 116.753 116.416 116.76 116.308 116.757C115.964 116.752 115.626 116.665 115.323 116.501C115.02 116.338 114.762 116.103 114.569 115.818C114.367 115.547 114.231 115.233 114.171 114.901M126.626 110.842C126.629 110.56 126.688 110.281 126.799 110.021C126.896 109.753 127.05 109.51 127.252 109.308C127.453 109.107 127.696 108.952 127.964 108.855C128.357 108.69 128.791 108.645 129.209 108.726C129.628 108.807 130.013 109.01 130.317 109.309C130.507 109.519 130.661 109.76 130.772 110.021C130.892 110.277 130.951 110.559 130.943 110.842C130.941 111.269 130.814 111.686 130.576 112.041C130.338 112.396 130.001 112.672 129.606 112.836C129.212 112.999 128.778 113.043 128.359 112.961C127.94 112.879 127.555 112.675 127.251 112.374C126.853 111.963 126.627 111.415 126.621 110.842M97.9562 124.677C97.8355 125.141 97.5644 125.551 97.1854 125.844C96.8065 126.137 96.341 126.296 95.862 126.296C95.6805 126.296 95.4995 126.275 95.3227 126.233C94.7673 126.09 94.2915 125.732 94 125.238C93.7084 124.745 93.6249 124.155 93.7679 123.6C93.911 123.044 94.2688 122.568 94.7626 122.277C95.2565 121.985 95.8459 121.902 96.4013 122.045V122.066C96.6754 122.135 96.9333 122.257 97.16 122.425C97.3867 122.594 97.5778 122.806 97.7223 123.049C97.8669 123.291 97.9619 123.56 98.0021 123.84C98.0422 124.12 98.0266 124.405 97.9562 124.678M103.287 116.757C103.186 116.759 103.086 116.752 102.986 116.735C102.738 116.694 102.5 116.609 102.282 116.483C101.985 116.316 101.731 116.082 101.542 115.799C101.352 115.516 101.232 115.192 101.191 114.854C101.152 114.665 101.139 114.472 101.152 114.279C101.239 113.714 101.547 113.205 102.008 112.866C102.469 112.526 103.046 112.382 103.612 112.466C104.15 112.549 104.636 112.832 104.975 113.258C105.313 113.684 105.478 114.221 105.437 114.764C105.396 115.306 105.152 115.813 104.753 116.183C104.355 116.553 103.831 116.759 103.287 116.76M90.003 99.1885C90.3987 99.4632 90.812 99.7076 91.2164 99.9634C95.7938 102.868 100.993 104.651 106.389 105.166C107.523 105.276 108.657 105.35 109.804 105.35C113.774 105.346 117.714 104.665 121.454 103.334C123.883 102.473 126.208 101.341 128.384 99.9596C128.79 99.7076 129.202 99.4556 129.599 99.1834L130.83 100.959C127.666 103.145 124.18 104.822 120.498 105.931C117.027 106.975 113.422 107.505 109.798 107.504C108.172 107.498 106.549 107.386 104.938 107.169C99.1286 106.42 93.5833 104.29 88.7657 100.959L90.003 99.1885ZM88.8413 110.024C88.952 109.764 89.1052 109.523 89.2949 109.313C89.7132 108.929 90.2602 108.716 90.8277 108.716C91.3953 108.716 91.9422 108.929 92.3605 109.313C92.5496 109.523 92.7025 109.764 92.8129 110.024C92.9524 110.353 93.0084 110.71 92.9759 111.065C92.9434 111.421 92.8234 111.762 92.6266 112.06C92.4298 112.357 92.1624 112.601 91.8483 112.77C91.5342 112.939 91.1831 113.027 90.8265 113.027C90.4698 113.027 90.1188 112.939 89.8046 112.77C89.4905 112.601 89.2231 112.357 89.0263 112.06C88.8296 111.762 88.7096 111.421 88.6771 111.065C88.6446 110.71 88.7006 110.353 88.8401 110.024M82.2881 129.561C77.3992 127.276 72.814 124.391 68.6385 120.973L69.5091 119.91L70.0131 119.303C70.2513 119.497 70.5045 119.661 70.7452 119.852C75.9093 123.975 81.6966 127.25 87.89 129.554C88.4797 129.774 89.0744 129.975 89.6717 130.176C96.1594 132.357 102.959 133.468 109.804 133.463C123.833 133.521 137.468 128.824 148.486 120.138C148.612 120.04 148.738 119.952 148.864 119.852C149.103 119.662 149.358 119.498 149.596 119.303L150.094 119.91L150.28 120.138L150.964 120.974C139.377 130.514 124.816 135.697 109.806 135.623C102.882 135.624 96.0013 134.522 89.4235 132.358C86.9938 131.57 84.6139 130.637 82.2969 129.562" fill="var(--fill-0, #FFC94A)"/>
<path id="&#227;&#131;&#145;&#227;&#130;&#185; 229" d="M72.3643 280.397L92.2332 300.267L101.398 309.432C106.9 303.953 114.339 300.864 122.103 300.834C129.867 300.805 137.33 303.838 142.873 309.275C142.929 309.33 142.991 309.375 143.047 309.432L162.91 289.568L172.058 280.421L172.081 280.398C158.857 267.176 140.922 259.748 122.222 259.748C103.522 259.748 85.5872 267.176 72.363 280.398M93.1997 281.047C93.3008 280.805 93.448 280.584 93.6331 280.398C93.6495 280.379 93.6583 280.351 93.6759 280.335C93.8788 280.14 94.112 279.98 94.3664 279.86C94.7655 279.707 95.1996 279.67 95.6188 279.753C95.7579 279.778 95.8949 279.814 96.0284 279.86C96.1581 279.918 96.2811 279.99 96.395 280.075C96.521 280.137 96.6319 280.226 96.7201 280.335C96.739 280.353 96.744 280.38 96.7629 280.398C96.9522 280.58 97.0996 280.802 97.1951 281.047C97.2547 281.22 97.2928 281.4 97.3085 281.582C97.3357 281.676 97.3559 281.771 97.369 281.867C97.368 282.293 97.2403 282.71 97.002 283.063C96.7638 283.417 96.4257 283.692 96.0309 283.853C95.7645 283.965 95.4784 284.024 95.1892 284.026C94.908 284.026 94.6295 283.971 94.3699 283.862C94.1103 283.754 93.8748 283.596 93.6772 283.396C93.2732 282.988 93.0467 282.437 93.0472 281.863C93.0596 281.7 93.0892 281.538 93.1354 281.381C93.1457 281.266 93.1663 281.153 93.1971 281.043M107.725 274.524C107.999 274.453 108.283 274.438 108.563 274.478C108.843 274.518 109.112 274.613 109.355 274.758C109.597 274.902 109.809 275.093 109.978 275.32C110.146 275.547 110.268 275.804 110.337 276.079C110.481 276.631 110.4 277.218 110.113 277.711C109.826 278.204 109.356 278.564 108.805 278.712C108.628 278.753 108.447 278.775 108.265 278.778C107.739 278.778 107.231 278.586 106.836 278.238C106.441 277.89 106.187 277.411 106.12 276.888C106.054 276.366 106.181 275.838 106.476 275.403C106.772 274.967 107.217 274.655 107.726 274.524M120.052 274.849C120.052 274.276 120.279 273.727 120.684 273.323C121.088 272.918 121.637 272.691 122.21 272.691C122.782 272.691 123.331 272.918 123.736 273.323C124.141 273.727 124.368 274.276 124.368 274.849C124.361 275.197 124.267 275.537 124.095 275.839C123.884 276.258 123.54 276.594 123.117 276.797C122.694 276.999 122.217 277.056 121.758 276.958C121.3 276.861 120.886 276.615 120.583 276.258C120.279 275.901 120.102 275.453 120.079 274.985C120.079 274.938 120.052 274.898 120.052 274.85M151.415 281.866C151.405 282.441 151.173 282.99 150.768 283.398C150.567 283.6 150.329 283.76 150.065 283.868C149.802 283.976 149.52 284.031 149.236 284.028C148.954 284.025 148.675 283.966 148.415 283.855C148.158 283.751 147.923 283.596 147.725 283.402C147.521 283.202 147.358 282.964 147.247 282.701C147.136 282.438 147.078 282.155 147.077 281.87C147.09 281.773 147.11 281.678 147.138 281.585C147.154 281.402 147.192 281.223 147.251 281.049C147.35 280.777 147.513 280.533 147.726 280.337C147.814 280.228 147.924 280.14 148.05 280.078C148.164 279.993 148.287 279.921 148.417 279.862C148.549 279.813 148.687 279.778 148.826 279.755C149.245 279.672 149.68 279.709 150.079 279.862C150.333 279.982 150.566 280.143 150.769 280.337C150.971 280.542 151.132 280.784 151.244 281.049C151.276 281.16 151.299 281.273 151.315 281.387C151.368 281.543 151.403 281.705 151.417 281.87M117.85 285.841C117.934 286.408 117.79 286.984 117.451 287.445C117.111 287.907 116.603 288.215 116.037 288.303C115.93 288.321 115.822 288.328 115.713 288.325C115.485 288.319 115.26 288.276 115.046 288.198C114.723 288.093 114.43 287.912 114.191 287.671C113.951 287.43 113.773 287.135 113.67 286.812C113.567 286.488 113.543 286.145 113.599 285.81C113.655 285.475 113.789 285.158 113.992 284.885C114.195 284.613 114.459 284.392 114.764 284.242C115.068 284.091 115.404 284.016 115.744 284.021C116.083 284.026 116.417 284.112 116.717 284.271C117.017 284.431 117.274 284.659 117.469 284.938C117.664 285.204 117.794 285.513 117.847 285.839M134.079 276.082C134.181 275.694 134.39 275.342 134.682 275.066C134.973 274.79 135.336 274.601 135.73 274.521C136.123 274.44 136.531 274.472 136.908 274.611C137.285 274.751 137.615 274.993 137.861 275.31C138.107 275.627 138.26 276.007 138.301 276.407C138.343 276.806 138.272 277.209 138.096 277.57C137.92 277.931 137.647 278.236 137.308 278.45C136.968 278.664 136.575 278.779 136.173 278.781C135.991 278.775 135.809 278.745 135.634 278.694C135.359 278.627 135.1 278.506 134.872 278.338C134.645 278.17 134.453 277.958 134.308 277.715C134.164 277.472 134.069 277.202 134.029 276.922C133.99 276.641 134.007 276.356 134.079 276.082ZM129.029 284.02C129.281 284.061 129.523 284.147 129.745 284.272C130.043 284.436 130.298 284.669 130.488 284.952C130.677 285.235 130.796 285.559 130.833 285.898C130.869 286.082 130.879 286.269 130.864 286.456C130.791 286.972 130.534 287.444 130.14 287.785C129.746 288.127 129.243 288.314 128.722 288.313C128.621 288.317 128.52 288.309 128.42 288.292C127.854 288.212 127.342 287.91 126.997 287.452C126.653 286.995 126.505 286.419 126.585 285.852C126.665 285.286 126.967 284.774 127.424 284.429C127.882 284.085 128.457 283.937 129.024 284.017M101.719 291.42C101.51 291.229 101.348 290.994 101.244 290.731C101.133 290.472 101.075 290.193 101.072 289.911C101.081 289.483 101.211 289.067 101.448 288.711C101.685 288.355 102.019 288.074 102.41 287.901C102.943 287.687 103.539 287.687 104.072 287.901C104.332 288.013 104.567 288.175 104.764 288.378C104.842 288.474 104.912 288.578 104.972 288.687C105.201 288.97 105.347 289.31 105.394 289.671C105.441 290.032 105.387 290.398 105.238 290.73C105.134 290.992 104.972 291.228 104.764 291.419C104.564 291.623 104.326 291.786 104.063 291.897C103.8 292.009 103.517 292.067 103.232 292.068C102.722 292.055 102.234 291.858 101.858 291.514C101.816 291.476 101.761 291.459 101.72 291.419M142.015 301.562C141.619 301.287 141.206 301.043 140.8 300.786C136.223 297.881 131.024 296.099 125.627 295.583C124.493 295.475 123.359 295.399 122.214 295.399C118.243 295.403 114.303 296.084 110.562 297.415C107.674 298.43 104.933 299.826 102.414 301.566L101.183 299.791C104.344 297.6 107.831 295.923 111.515 294.82C114.986 293.776 118.591 293.246 122.216 293.246C123.841 293.253 125.464 293.365 127.075 293.581C132.884 294.33 138.43 296.46 143.247 299.792L142.015 301.562ZM143.185 290.726C143.081 290.989 142.918 291.224 142.71 291.415C142.513 291.621 142.277 291.784 142.016 291.896C141.754 292.007 141.473 292.065 141.189 292.065C140.904 292.065 140.623 292.007 140.361 291.896C140.1 291.784 139.864 291.621 139.667 291.415C139.459 291.224 139.297 290.989 139.192 290.726C139.089 290.465 139.037 290.187 139.041 289.906C139.039 289.618 139.09 289.332 139.192 289.063C139.304 288.805 139.466 288.571 139.667 288.374C139.864 288.171 140.099 288.009 140.358 287.897C140.891 287.683 141.486 287.683 142.02 287.897C142.279 288.01 142.513 288.171 142.71 288.374C143.119 288.779 143.352 289.33 143.358 289.906C143.354 290.188 143.296 290.467 143.185 290.726ZM149.723 271.19C154.612 273.475 159.197 276.36 163.373 279.778L162.502 280.84L161.998 281.448C161.76 281.253 161.506 281.088 161.266 280.898C156.102 276.775 150.315 273.5 144.121 271.196C143.523 270.974 142.919 270.77 142.314 270.566C135.834 268.39 129.043 267.284 122.207 267.29C108.31 267.236 94.7972 271.849 83.8328 280.388C83.6073 280.563 83.3729 280.723 83.1499 280.901C82.9269 281.078 82.656 281.255 82.4178 281.45L81.9138 280.843L81.5358 280.388L81.0318 279.781C92.6189 270.24 107.181 265.057 122.19 265.132C129.105 265.131 135.977 266.23 142.548 268.389C144.986 269.178 147.374 270.114 149.699 271.192" fill="var(--fill-0, #FFC94A)"/>
<path id="&#227;&#131;&#145;&#227;&#130;&#185; 230" d="M81.706 199.3H56.6395C56.6143 199.66 56.5942 200.02 56.5627 200.379C56.5312 200.738 56.4997 201.099 56.4631 201.458H175.384C175.41 201.099 175.431 200.738 175.461 200.379C175.493 200.019 175.524 199.66 175.561 199.3H81.706Z" fill="var(--fill-0, #FFC94A)"/>
<path id="&#227;&#131;&#145;&#227;&#130;&#185; 231" d="M14.897 215.364H14.2506V214.719C14.2506 214.173 14.0338 213.65 13.648 213.264C13.2621 212.878 12.7387 212.662 12.193 212.662C11.6473 212.662 11.124 212.878 10.7381 213.264C10.3522 213.65 10.1354 214.173 10.1354 214.719V215.364H9.49033C8.94564 215.368 8.4242 215.585 8.03905 215.971C7.65389 216.356 7.43605 216.877 7.43274 217.422C7.43274 217.471 7.45669 217.51 7.46047 217.558C7.49324 218.048 7.70289 218.51 8.05048 218.858C8.39807 219.205 8.85999 219.415 9.35047 219.448C9.39835 219.448 9.43867 219.476 9.48655 219.476H10.1317V220.122C10.1317 220.171 10.1556 220.21 10.1594 220.257C10.1922 220.747 10.4018 221.209 10.7494 221.557C11.097 221.904 11.5589 222.114 12.0494 222.147C12.0973 222.147 12.1376 222.173 12.1855 222.173C12.728 222.163 13.2456 221.943 13.6293 221.56C14.013 221.176 14.233 220.658 14.243 220.116V219.469H14.8894C15.4351 219.469 15.9585 219.253 16.3444 218.867C16.7302 218.481 16.947 217.957 16.947 217.412C16.947 216.866 16.7302 216.343 16.3444 215.957C15.9585 215.571 15.4351 215.354 14.8894 215.354M12.1867 216.242C12.418 216.242 12.6441 216.311 12.8363 216.44C13.0286 216.568 13.1785 216.751 13.267 216.964C13.3555 217.178 13.3787 217.413 13.3335 217.64C13.2884 217.867 13.1771 218.075 13.0135 218.239C12.85 218.402 12.6417 218.513 12.4148 218.559C12.188 218.604 11.9529 218.581 11.7393 218.492C11.5256 218.404 11.343 218.254 11.2145 218.061C11.086 217.869 11.0174 217.643 11.0174 217.412C11.0174 217.102 11.1406 216.804 11.3599 216.585C11.5792 216.366 11.8766 216.242 12.1867 216.242Z" fill="var(--fill-0, #FFC94A)"/>
<path id="&#227;&#131;&#145;&#227;&#130;&#185; 232" d="M14.897 187.283H14.2506V186.636C14.2506 186.091 14.0338 185.567 13.648 185.181C13.2621 184.795 12.7387 184.579 12.193 184.579C11.6473 184.579 11.124 184.795 10.7381 185.181C10.3522 185.567 10.1354 186.091 10.1354 186.636V187.283H9.49033C8.94554 187.286 8.42391 187.503 8.03869 187.889C7.65346 188.274 7.43572 188.795 7.43274 189.34C7.43274 189.388 7.45669 189.428 7.46047 189.476C7.49324 189.967 7.70289 190.429 8.05048 190.776C8.39807 191.124 8.85999 191.334 9.35047 191.366C9.39835 191.366 9.43867 191.394 9.48655 191.394H10.1317V192.039C10.1317 192.087 10.1556 192.127 10.1594 192.175C10.1922 192.666 10.4018 193.128 10.7494 193.475C11.097 193.823 11.5589 194.032 12.0494 194.065C12.0973 194.065 12.1376 194.092 12.1855 194.092C12.7303 194.089 13.2519 193.871 13.6371 193.486C14.0223 193.1 14.2401 192.579 14.243 192.034V191.397H14.8894C15.4351 191.397 15.9585 191.18 16.3444 190.794C16.7302 190.408 16.947 189.885 16.947 189.339C16.947 188.793 16.7302 188.27 16.3444 187.884C15.9585 187.498 15.4351 187.281 14.8894 187.281M12.193 190.515C11.9618 190.515 11.7357 190.446 11.5434 190.317C11.3511 190.189 11.2013 190.006 11.1128 189.793C11.0243 189.579 11.0011 189.344 11.0462 189.117C11.0913 188.89 11.2027 188.682 11.3662 188.518C11.5297 188.355 11.7381 188.244 11.9649 188.198C12.1917 188.153 12.4268 188.176 12.6405 188.265C12.8541 188.353 13.0368 188.503 13.1652 188.696C13.2937 188.888 13.3623 189.114 13.3623 189.345C13.3623 189.655 13.2391 189.953 13.0198 190.172C12.8005 190.391 12.5031 190.515 12.193 190.515Z" fill="var(--fill-0, #FFC94A)"/>
<path id="&#227;&#131;&#145;&#227;&#130;&#185; 233" d="M13.1027 205.131C13.5666 204.666 13.8272 204.037 13.8272 203.381C13.8272 202.725 13.5666 202.096 13.1027 201.632L12.3291 200.859L11.5567 201.632C11.0928 202.096 10.8322 202.725 10.8322 203.381C10.8322 204.037 11.0928 204.666 11.5567 205.131L12.3291 205.903L13.1027 205.131Z" fill="var(--fill-0, #FFC94A)"/>
<path id="&#227;&#131;&#145;&#227;&#130;&#185; 234" d="M227.707 188.409V218.539L211.957 234.289V172.658L207.64 168.34V244.712L207.289 245.064V246.645H209.447V242.905L232.026 220.326V192.727L227.707 188.409Z" fill="var(--fill-0, #FFC94A)"/>
<path id="&#227;&#131;&#145;&#227;&#130;&#185; 235" d="M217.128 185.396H217.775V186.043C217.775 186.589 217.991 187.112 218.377 187.498C218.763 187.884 219.286 188.1 219.832 188.1C220.378 188.1 220.901 187.884 221.287 187.498C221.673 187.112 221.89 186.589 221.89 186.043V185.396H222.535C222.816 185.395 223.094 185.335 223.351 185.221C223.608 185.106 223.839 184.939 224.028 184.731C224.189 184.564 224.321 184.37 224.417 184.159C224.532 183.901 224.592 183.621 224.592 183.339C224.592 183.291 224.569 183.251 224.565 183.204C224.532 182.713 224.323 182.251 223.975 181.904C223.627 181.556 223.165 181.347 222.675 181.314C222.628 181.314 222.587 181.286 222.539 181.286H221.894V180.641C221.894 180.592 221.87 180.553 221.866 180.505C221.833 180.015 221.623 179.553 221.276 179.205C220.928 178.857 220.466 178.648 219.976 178.615C219.928 178.615 219.888 178.589 219.84 178.589C219.297 178.599 218.78 178.819 218.396 179.202C218.012 179.586 217.792 180.104 217.782 180.646V181.291H217.136C216.59 181.291 216.067 181.508 215.681 181.894C215.295 182.28 215.078 182.803 215.078 183.349C215.078 183.895 215.295 184.418 215.681 184.804C216.067 185.19 216.59 185.406 217.136 185.406M219.838 184.518C219.607 184.518 219.381 184.45 219.189 184.321C218.997 184.193 218.847 184.01 218.758 183.796C218.67 183.583 218.647 183.348 218.692 183.121C218.737 182.894 218.848 182.686 219.012 182.522C219.175 182.359 219.384 182.247 219.61 182.202C219.837 182.157 220.072 182.18 220.286 182.269C220.5 182.357 220.682 182.507 220.811 182.699C220.939 182.892 221.008 183.118 221.008 183.349C221.008 183.659 220.885 183.956 220.665 184.176C220.446 184.395 220.149 184.518 219.838 184.518Z" fill="var(--fill-0, #FFC94A)"/>
<path id="&#227;&#131;&#145;&#227;&#130;&#185; 236" d="M217.128 213.477H217.775V214.123C217.775 214.669 217.991 215.192 218.377 215.578C218.763 215.964 219.286 216.181 219.832 216.181C220.378 216.181 220.901 215.964 221.287 215.578C221.673 215.192 221.89 214.669 221.89 214.123V213.477H222.535C223.08 213.474 223.601 213.258 223.987 212.873C224.373 212.489 224.592 211.968 224.596 211.423C224.596 211.375 224.572 211.335 224.569 211.288C224.536 210.798 224.326 210.336 223.979 209.988C223.631 209.641 223.169 209.431 222.679 209.398C222.632 209.398 222.59 209.37 222.542 209.37H221.897V208.724C221.897 208.676 221.873 208.636 221.87 208.588C221.837 208.097 221.627 207.636 221.28 207.288C220.932 206.94 220.47 206.731 219.98 206.698C219.932 206.698 219.891 206.67 219.844 206.67C219.299 206.674 218.777 206.891 218.392 207.277C218.007 207.662 217.789 208.183 217.786 208.728V209.374H217.14C216.594 209.374 216.071 209.591 215.685 209.977C215.299 210.363 215.082 210.886 215.082 211.432C215.082 211.977 215.299 212.501 215.685 212.887C216.071 213.273 216.594 213.489 217.14 213.489M219.842 210.264C220.074 210.264 220.3 210.332 220.492 210.461C220.684 210.589 220.834 210.772 220.923 210.986C221.011 211.199 221.034 211.434 220.989 211.661C220.944 211.888 220.833 212.096 220.669 212.26C220.506 212.423 220.297 212.535 220.07 212.58C219.844 212.625 219.608 212.602 219.395 212.513C219.181 212.425 218.999 212.275 218.87 212.083C218.742 211.89 218.673 211.664 218.673 211.433C218.673 211.123 218.796 210.826 219.015 210.606C219.235 210.387 219.532 210.264 219.842 210.264Z" fill="var(--fill-0, #FFC94A)"/>
<path id="&#227;&#131;&#145;&#227;&#130;&#185; 237" d="M218.921 195.63C218.457 196.094 218.197 196.723 218.197 197.379C218.197 198.035 218.457 198.664 218.921 199.128L219.695 199.902L220.469 199.128C220.932 198.664 221.193 198.035 221.193 197.379C221.193 196.723 220.932 196.094 220.469 195.63L219.695 194.856L218.921 195.63Z" fill="var(--fill-0, #FFC94A)"/>
<path id="&#227;&#131;&#145;&#227;&#130;&#185; 238" d="M28.7003 96.7567C28.6994 95.6302 28.308 94.5389 27.5929 93.6687C26.8777 92.7984 25.8829 92.2029 24.778 91.9837C23.6731 91.7645 22.5264 91.9351 21.5332 92.4665C20.5399 92.9978 19.7616 93.8571 19.3308 94.8979C18.8999 95.9387 18.8432 97.0966 19.1703 98.1746C19.4974 99.2525 20.188 100.184 21.1245 100.81C22.0611 101.435 23.1857 101.717 24.3067 101.607C25.4277 101.497 26.4759 101.002 27.2727 100.205C27.7271 99.7536 28.0873 99.2161 28.3323 98.6241C28.5774 98.0321 28.7025 97.3974 28.7003 96.7567ZM25.7456 98.6794C25.3009 99.1239 24.7159 99.4006 24.0902 99.4621C23.4645 99.5237 22.8368 99.3664 22.314 99.0171C21.7913 98.6677 21.4058 98.1479 21.2233 97.5463C21.0408 96.9446 21.0725 96.2983 21.3131 95.7174C21.5537 95.1365 21.9882 94.657 22.5427 94.3606C23.0971 94.0641 23.7372 93.9691 24.3539 94.0917C24.9706 94.2142 25.5257 94.5468 25.9246 95.0328C26.3236 95.5187 26.5417 96.1279 26.5419 96.7567C26.5415 97.4777 26.2552 98.1692 25.7456 98.6794Z" fill="var(--fill-0, #DE474F)"/>
<path id="&#227;&#131;&#145;&#227;&#130;&#185; 239" d="M69.1135 111.191L88.9774 91.3273H75.6353V67.6708C71.4919 69.3111 67.8522 72.0111 65.0804 75.5004C62.3087 78.9897 60.5022 83.1459 59.8418 87.5529C59.1813 91.9599 59.6902 96.4631 61.3174 100.612C62.9446 104.76 65.633 108.408 69.1135 111.191Z" fill="var(--fill-0, #DE474F)"/>
<path id="&#227;&#131;&#145;&#227;&#130;&#185; 240" d="M156.896 41.4729L133.951 18.5283H75.6353V25.0034H131.269L138.208 31.9423L140.358 34.0931L160.392 54.1271L162.541 56.2779L170.347 64.0836L170.588 64.3243L178.393 72.13L180.543 74.2795L200.583 94.3198L202.733 96.4694L210.538 104.275L210.779 104.516C210.797 104.445 210.809 104.375 210.828 104.304L218.597 112.073L220.713 114.189L232.018 125.495V116.599L156.896 41.4729Z" fill="var(--fill-0, #DE474F)"/>
<path id="&#227;&#131;&#145;&#227;&#130;&#185; 241" d="M162.91 289.568L143.048 309.432C142.992 309.377 142.931 309.33 142.874 309.275V309.432H156.389V333.09C160.532 331.45 164.172 328.75 166.944 325.26C169.716 321.771 171.523 317.614 172.183 313.207C172.844 308.8 172.335 304.297 170.707 300.148C169.08 295.999 166.391 292.351 162.91 289.568Z" fill="var(--fill-0, #DE474F)"/>
<path id="&#227;&#131;&#145;&#227;&#130;&#185; 242" d="M204.751 307.45C205.433 308.132 206.302 308.597 207.248 308.785C208.194 308.973 209.174 308.877 210.065 308.508C210.957 308.139 211.718 307.514 212.254 306.712C212.79 305.91 213.076 304.967 213.076 304.003C213.076 303.038 212.79 302.095 212.254 301.294C211.718 300.492 210.957 299.867 210.065 299.497C209.174 299.128 208.194 299.032 207.248 299.22C206.302 299.409 205.433 299.873 204.751 300.555C204.297 301.007 203.936 301.544 203.689 302.136C203.443 302.727 203.316 303.362 203.316 304.003C203.316 304.644 203.443 305.278 203.689 305.87C203.936 306.461 204.297 306.999 204.751 307.45ZM206.277 302.081C206.657 301.701 207.141 301.442 207.669 301.337C208.196 301.232 208.742 301.286 209.239 301.492C209.736 301.697 210.16 302.046 210.459 302.493C210.758 302.94 210.917 303.465 210.917 304.003C210.917 304.54 210.758 305.066 210.459 305.513C210.16 305.96 209.736 306.308 209.239 306.514C208.742 306.719 208.196 306.773 207.669 306.668C207.141 306.563 206.657 306.304 206.277 305.924C205.769 305.414 205.483 304.723 205.483 304.003C205.483 303.282 205.769 302.592 206.277 302.081Z" fill="var(--fill-0, #DE474F)"/>
<path id="&#227;&#131;&#145;&#227;&#130;&#185; 243" d="M135.982 375.756H100.755L93.8158 368.817L91.6663 366.668L71.6323 346.634L69.4827 344.484L61.6707 336.672L61.43 336.431L53.6243 328.627L51.4735 326.476L31.4332 306.436L29.2837 304.286L21.478 296.474L21.2373 296.234C21.2197 296.304 21.2071 296.376 21.1882 296.446L13.419 288.677L11.3047 286.572L1.2207e-06 275.263V284.159L75.1275 359.285L98.0734 382.231H156.389V375.756H135.977H135.982Z" fill="var(--fill-0, #DE474F)"/>
<path id="&#227;&#131;&#145;&#227;&#130;&#185; 244" d="M105.005 159.188H86.3276L83.9337 180.014H102.611L105.005 159.188Z" fill="var(--fill-0, #DE474F)"/>
<path id="&#227;&#131;&#145;&#227;&#130;&#185; 245" d="M155.161 159.188H135.439L133.045 180.014H152.766L155.161 159.188Z" fill="var(--fill-0, #DE474F)"/>
<path id="&#227;&#131;&#145;&#227;&#130;&#185; 246" d="M127.019 241.344H145.696L148.09 220.519H129.418L127.019 241.344Z" fill="var(--fill-0, #DE474F)"/>
<path id="&#227;&#131;&#145;&#227;&#130;&#185; 247" d="M76.8625 241.344H96.5878L98.9818 220.519H79.2628L76.8625 241.344Z" fill="var(--fill-0, #DE474F)"/>
<path id="&#227;&#131;&#145;&#227;&#130;&#185; 248" d="M24.7376 158.058C24.6116 157.932 24.512 157.785 24.386 157.654V230.812C33.735 221.029 38.9812 208.036 39.0464 194.505C39.1115 180.973 33.9919 167.931 24.7376 158.058Z" fill="var(--fill-0, #DE474F)"/>
<path id="&#227;&#131;&#145;&#227;&#130;&#185; 249" d="M207.281 242.701C207.407 242.827 207.508 242.976 207.633 243.107V169.949C198.284 179.732 193.038 192.724 192.972 206.255C192.907 219.786 198.028 232.829 207.281 242.701Z" fill="var(--fill-0, #DE474F)"/>
</g>
</svg>
