<svg preserveAspectRatio="none" width="100%" height="100%" overflow="visible" style="display: block;" viewBox="0 0 89.6058 120.002" fill="none" xmlns="http://www.w3.org/2000/svg">
<g id="&#227;&#130;&#176;&#227;&#131;&#171;&#227;&#131;&#188;&#227;&#131;&#151; 26">
<path id="&#227;&#131;&#145;&#227;&#130;&#185; 250" d="M38.8139 114.681C38.7986 113.259 38.8946 111.838 39.1009 110.431C39.2449 109.811 39.7849 109.545 40.0559 109.318C40.7198 108.767 41.3456 108.171 41.9289 107.535C43.8335 105.571 45.0253 103.026 45.3139 100.306C45.3335 100.101 45.4098 99.9056 45.5342 99.7416C45.6586 99.5776 45.8263 99.4515 46.0184 99.3774C46.2105 99.3034 46.4195 99.2844 46.6218 99.3224C46.8241 99.3605 47.0118 99.4542 47.1639 99.593C47.2159 99.305 47.2549 99.015 47.2929 98.73C46.4358 98.9075 45.5456 98.8335 44.7295 98.517C43.9135 98.2005 43.2062 97.655 42.6929 96.946C42.6474 96.8944 42.6066 96.8388 42.5709 96.78C42.5443 96.7388 42.5203 96.6961 42.4989 96.652H17.6259C15.4369 96.652 13.1639 96.83 10.9799 96.636C10.0918 96.5436 9.27174 96.1178 8.68526 95.4444C8.09879 94.7711 7.78954 93.9004 7.8199 93.008C7.8099 92.368 7.8199 91.727 7.8199 91.087V65.326C7.7139 65.23 7.60624 65.1353 7.4969 65.042C7.47797 65.2453 7.40508 65.4398 7.28578 65.6055C7.16647 65.7711 7.00509 65.9019 6.8183 65.9843C6.63152 66.0666 6.42611 66.0976 6.22334 66.074C6.02056 66.0504 5.82777 65.9731 5.6649 65.85C4.8089 65.176 3.7229 65.819 3.0869 66.48C2.70761 66.8848 2.42317 67.369 2.25418 67.8974C2.0852 68.4258 2.03592 68.9852 2.1099 69.535C2.3099 71.917 3.4409 74.191 3.9729 76.511C4.98878 81.3532 5.38528 86.3048 5.1529 91.247C5.0279 95.77 4.9529 101.138 7.7169 104.996C8.8019 106.511 10.2639 107.748 11.1979 109.376C11.6565 110.204 11.8951 111.136 11.8909 112.082L12.2079 118.262C12.218 118.413 12.1921 118.564 12.1321 118.703C12.0722 118.842 11.98 118.965 11.8632 119.061C11.7464 119.157 11.6084 119.225 11.4605 119.257C11.3126 119.289 11.1592 119.286 11.0129 119.247V119.387H38.5809C38.5406 119.26 38.525 119.127 38.5349 118.995C38.6289 117.555 38.7229 116.115 38.8169 114.676M27.9289 106.955C27.6456 103.876 26.4239 100.958 24.4289 98.596C23.5689 97.578 25.0359 96.096 25.9019 97.123C28.2573 99.8946 29.692 103.33 30.0069 106.954C30.1289 108.291 28.0449 108.278 27.9239 106.954" fill="var(--fill-0, white)"/>
<path id="&#227;&#131;&#145;&#227;&#130;&#185; 251" d="M49.3069 68.601L49.4339 68.461C49.2774 68.405 49.1385 68.3088 49.0311 68.182C48.9236 68.0552 48.8515 67.9024 48.8219 67.7389C48.7923 67.5753 48.8063 67.4069 48.8624 67.2505C48.9186 67.0941 49.015 66.9553 49.1419 66.848C50.3249 65.855 51.5239 64.879 52.6909 63.868C53.7819 62.923 54.6289 61.245 53.6569 59.899C52.6059 58.444 50.6119 58.917 49.3969 59.828C49.2681 59.9257 49.1157 59.9873 48.9552 60.0067C48.7947 60.0261 48.632 60.0025 48.4836 59.9383C48.3353 59.8741 48.2067 59.7716 48.111 59.6414C48.0152 59.5111 47.9559 59.3577 47.9389 59.197L47.1199 59.816V68.934C47.8039 68.6235 48.5615 68.5083 49.3069 68.601Z" fill="var(--fill-0, white)"/>
<path id="&#227;&#131;&#145;&#227;&#130;&#185; 252" d="M44.5129 70.554C44.6879 70.428 44.8629 70.301 45.0379 70.176V61.388V39.541C45.0379 38.225 45.1499 36.852 45.0379 35.541C44.9259 34.23 43.8689 34.181 42.8759 34.181H11.7469C10.8019 34.181 9.9839 34.481 9.9019 35.601C9.7899 37.13 9.9019 38.711 9.9019 40.243V76.509C9.9019 81.971 9.8249 87.439 9.9019 92.901C9.87578 93.1056 9.8926 93.3134 9.95129 93.5112C10.01 93.7089 10.1093 93.8923 10.2428 94.0495C10.3763 94.2068 10.5411 94.3344 10.7268 94.4244C10.9124 94.5144 11.1148 94.5646 11.3209 94.572C12.0929 94.623 12.8859 94.572 13.6599 94.572H41.8859C41.8483 93.8593 41.9824 93.1481 42.2769 92.498C42.7917 91.5183 43.5768 90.7069 44.5389 90.16L45.0389 89.821V89.743C43.8919 89.4679 42.8875 88.7775 42.2199 87.805C42.1894 87.7668 42.1614 87.7267 42.1359 87.685C42.1075 87.6415 42.0821 87.596 42.0599 87.549C41.5946 86.7894 41.3652 85.9087 41.4008 85.0186C41.4364 84.1285 41.7354 83.269 42.2599 82.549C42.9312 81.835 43.717 81.2381 44.5849 80.783C44.7359 80.683 44.8849 80.583 45.0409 80.483V79.396C44.2019 79.2333 43.4277 78.8319 42.8113 78.24C42.1949 77.648 41.7624 76.8907 41.5659 76.059C41.411 75.4629 41.3862 74.8405 41.4932 74.234C41.6002 73.6275 41.8364 73.0511 42.1859 72.544C42.8469 71.758 43.6344 71.0878 44.5159 70.561M21.4889 36.143H33.4519C33.7225 36.1514 33.9793 36.2648 34.1678 36.4592C34.3562 36.6536 34.4616 36.9137 34.4616 37.1845C34.4616 37.4553 34.3562 37.7154 34.1678 37.9098C33.9793 38.1042 33.7225 38.2176 33.4519 38.226H21.4889C21.2183 38.2176 20.9615 38.1042 20.7731 37.9098C20.5846 37.7154 20.4792 37.4553 20.4792 37.1845C20.4792 36.9137 20.5846 36.6536 20.7731 36.4592C20.9615 36.2648 21.2183 36.1514 21.4889 36.143ZM16.8249 75.872C16.4546 75.8722 16.0926 75.7626 15.7846 75.557C15.4766 75.3514 15.2365 75.0591 15.0947 74.7171C14.9528 74.375 14.9156 73.9986 14.9878 73.6354C15.0599 73.2722 15.2381 72.9385 15.4998 72.6766C15.7616 72.4147 16.0952 72.2364 16.4583 72.164C16.8215 72.0917 17.1979 72.1287 17.5401 72.2704C17.8822 72.4121 18.1746 72.652 18.3803 72.9599C18.5861 73.2677 18.6959 73.6297 18.6959 74C18.6959 74.4963 18.4988 74.9723 18.148 75.3234C17.7971 75.6744 17.3212 75.8717 16.8249 75.872ZM16.8249 66.365C16.4549 66.365 16.0931 66.2553 15.7854 66.0497C15.4777 65.8441 15.2379 65.5519 15.0963 65.21C14.9547 64.8681 14.9177 64.4919 14.9899 64.129C15.062 63.7661 15.2402 63.4327 15.5019 63.171C15.7636 62.9093 16.097 62.7311 16.4599 62.6589C16.8228 62.5868 17.199 62.6238 17.5409 62.7654C17.8828 62.907 18.175 63.1468 18.3806 63.4545C18.5862 63.7622 18.6959 64.1239 18.6959 64.494C18.6959 64.9902 18.4988 65.4661 18.1479 65.817C17.797 66.1679 17.3211 66.365 16.8249 66.365ZM16.8249 56.858C16.4549 56.858 16.0931 56.7483 15.7854 56.5427C15.4777 56.3371 15.2379 56.0449 15.0963 55.703C14.9547 55.3611 14.9177 54.9849 14.9899 54.622C15.062 54.259 15.2402 53.9257 15.5019 53.664C15.7636 53.4023 16.097 53.2241 16.4599 53.152C16.8228 53.0798 17.199 53.1168 17.5409 53.2584C17.8828 53.4 18.175 53.6398 18.3806 53.9475C18.5862 54.2552 18.6959 54.6169 18.6959 54.987C18.6959 55.4832 18.4988 55.9591 18.1479 56.31C17.797 56.6609 17.3211 56.858 16.8249 56.858ZM39.2069 74.382H21.1159C20.8453 74.3736 20.5885 74.2602 20.4 74.0658C20.2116 73.8714 20.1062 73.6113 20.1062 73.3405C20.1062 73.0697 20.2116 72.8096 20.4 72.6152C20.5885 72.4208 20.8453 72.3074 21.1159 72.299H39.2059C39.4765 72.3074 39.7333 72.4208 39.9218 72.6152C40.1102 72.8096 40.2156 73.0697 40.2156 73.3405C40.2156 73.6113 40.1102 73.8714 39.9218 74.0658C39.7333 74.2602 39.4775 74.3736 39.2069 74.382ZM39.2059 64.875H21.1159C20.8453 64.8666 20.5885 64.7532 20.4 64.5588C20.2116 64.3644 20.1062 64.1043 20.1062 63.8335C20.1062 63.5627 20.2116 63.3026 20.4 63.1082C20.5885 62.9138 20.8453 62.8004 21.1159 62.792H39.2059C39.4765 62.8004 39.7333 62.9138 39.9218 63.1082C40.1102 63.3026 40.2156 63.5627 40.2156 63.8335C40.2156 64.1043 40.1102 64.3644 39.9218 64.5588C39.7333 64.7532 39.4765 64.8666 39.2059 64.875ZM39.2059 55.368H21.1159C20.8453 55.3596 20.5885 55.2462 20.4 55.0518C20.2116 54.8574 20.1062 54.5973 20.1062 54.3265C20.1062 54.0557 20.2116 53.7956 20.4 53.6012C20.5885 53.4068 20.8453 53.2934 21.1159 53.285H39.2059C39.4765 53.2934 39.7333 53.4068 39.9218 53.6012C40.1102 53.7956 40.2156 54.0557 40.2156 54.3265C40.2156 54.5973 40.1102 54.8574 39.9218 55.0518C39.7333 55.2462 39.4765 55.3596 39.2059 55.368Z" fill="var(--fill-0, white)"/>
<path id="&#227;&#131;&#145;&#227;&#130;&#185; 253" d="M54.3429 57.706C53.4345 57.126 52.3671 56.8453 51.2908 56.9034C50.2146 56.9615 49.1836 57.3555 48.3429 58.03C48.165 58.1605 48.0309 58.342 47.9582 58.5503C47.8855 58.7587 47.8778 58.9841 47.9359 59.197C47.9527 59.3578 48.012 59.5113 48.1076 59.6417C48.2033 59.7721 48.3319 59.8747 48.4802 59.939C48.6286 60.0033 48.7914 60.027 48.952 60.0077C49.1125 59.9884 49.265 59.9267 49.3939 59.829C50.6089 58.917 52.6029 58.445 53.6539 59.9C54.6259 61.246 53.7789 62.924 52.6879 63.869C51.5209 64.88 50.3209 65.856 49.1389 66.849C49.012 66.9563 48.9156 67.0951 48.8594 67.2515C48.8033 67.4079 48.7893 67.5763 48.8189 67.7399C48.8485 67.9034 48.9206 68.0562 49.0281 68.183C49.1355 68.3097 49.2744 68.406 49.4309 68.462C49.6189 68.5604 49.8323 68.5997 50.0431 68.5747C50.2538 68.5497 50.4521 68.4616 50.6119 68.322C52.4629 66.767 55.1529 65.155 55.9179 62.744C56.2189 61.8452 56.2283 60.8743 55.945 59.9698C55.6616 59.0653 55.0999 58.2734 54.3399 57.707" fill="var(--fill-0, #323232)"/>
<path id="&#227;&#131;&#145;&#227;&#130;&#185; 254" d="M21.4889 38.227H33.4519C33.7225 38.2186 33.9793 38.1052 34.1678 37.9108C34.3562 37.7164 34.4616 37.4563 34.4616 37.1855C34.4616 36.9147 34.3562 36.6546 34.1678 36.4602C33.9793 36.2658 33.7225 36.1524 33.4519 36.144H21.4889C21.2183 36.1524 20.9615 36.2658 20.7731 36.4602C20.5846 36.6546 20.4792 36.9147 20.4792 37.1855C20.4792 37.4563 20.5846 37.7164 20.7731 37.9108C20.9615 38.1052 21.2183 38.2186 21.4889 38.227Z" fill="var(--fill-0, #323232)"/>
<path id="&#227;&#131;&#145;&#227;&#130;&#185; 255" d="M48.4679 80.755C47.7879 81.155 47.1369 81.611 46.4749 82.037C45.7749 82.488 45.0219 82.903 44.3539 83.401C43.8769 83.7788 43.5661 84.3278 43.4876 84.9312C43.4092 85.5346 43.5693 86.1448 43.9339 86.632C44.2478 87.1446 44.7498 87.5139 45.3325 87.661C45.9152 87.8081 46.5324 87.7212 47.0519 87.419C47.7319 87.019 48.3829 86.563 49.0449 86.137C49.7449 85.686 50.4979 85.271 51.1659 84.773C51.6184 84.3842 51.9126 83.8429 51.9926 83.2516C52.0727 82.6604 51.9331 82.0603 51.6002 81.5652C51.2674 81.07 50.7645 80.7142 50.1868 80.565C49.6092 80.4159 48.9968 80.4838 48.4659 80.756" fill="var(--fill-0, white)"/>
<path id="&#227;&#131;&#145;&#227;&#130;&#185; 256" d="M53.4259 85.416C53.8146 84.7671 54.0407 84.0338 54.0849 83.2786C54.1291 82.5235 53.9901 81.7688 53.6798 81.079C53.3694 80.3891 52.8969 79.7845 52.3025 79.3167C51.7081 78.8488 51.0094 78.5316 50.2659 78.392C49.8574 78.3239 49.4404 78.3239 49.0319 78.392C50.3619 77.507 52.0189 76.552 52.7719 75.232C54.0419 73.005 52.7569 70.072 50.5639 68.994C50.1687 68.7942 49.744 68.6591 49.3059 68.594L47.7179 70.357L49.3099 68.6C48.5645 68.5073 47.8079 68.6225 47.1239 68.933V59.816L45.0409 61.39V70.179C44.8659 70.304 44.6909 70.431 44.5159 70.557C43.6345 71.084 42.847 71.7541 42.1859 72.54C41.8364 73.0471 41.6002 73.6235 41.4932 74.23C41.3862 74.8365 41.411 75.4589 41.5659 76.055C41.7625 76.8866 42.195 77.6437 42.8114 78.2355C43.4278 78.8273 44.202 79.2285 45.0409 79.391V80.478C44.8879 80.578 44.7359 80.684 44.5849 80.778C43.717 81.2331 42.9312 81.83 42.2599 82.544C41.736 83.2643 41.4374 84.1237 41.4018 85.0137C41.3662 85.9036 41.5952 86.7841 42.0599 87.544C42.1047 87.6344 42.1583 87.7201 42.2199 87.8C42.8874 88.7726 43.8918 89.4631 45.0389 89.738V89.816L44.5389 90.155C43.5766 90.7017 42.7915 91.5132 42.2769 92.493C41.9818 93.1429 41.8474 93.8542 41.8849 94.567H13.6599C12.8859 94.567 12.0929 94.618 11.3209 94.567C11.1147 94.5598 10.9123 94.5096 10.7266 94.4197C10.5409 94.3298 10.376 94.2021 10.2424 94.0448C10.1089 93.8876 10.0096 93.7042 9.95096 93.5063C9.89233 93.3085 9.87562 93.1006 9.90191 92.896C9.82491 87.434 9.90191 81.966 9.90191 76.504V40.24C9.90191 38.708 9.78991 37.128 9.90191 35.598C9.98391 34.477 10.8019 34.178 11.7469 34.178H42.8749C43.8689 34.178 44.9259 34.232 45.0369 35.538C45.1479 36.844 45.0369 38.224 45.0369 39.538V61.385L47.1179 59.816V36.506C47.1409 35.9964 47.1232 35.4858 47.0649 34.979C46.898 34.1159 46.4186 33.3446 45.7187 32.8127C45.0187 32.2808 44.1472 32.0256 43.2709 32.096C40.2929 32.08 37.3139 32.096 34.3359 32.096H11.6929C10.8353 32.0233 9.98004 32.2607 9.28269 32.7652C8.58534 33.2697 8.09219 34.0077 7.8929 34.845C7.81259 35.3743 7.78679 35.9104 7.8159 36.445V65.327V91.086C7.8159 91.726 7.8059 92.367 7.8159 93.007C7.78554 93.8994 8.0948 94.7701 8.68127 95.4435C9.26774 96.1168 10.0878 96.5426 10.9759 96.635C13.1599 96.83 15.4329 96.651 17.6219 96.651H42.4919C42.5132 96.6951 42.5373 96.7379 42.5639 96.779C42.5995 96.8379 42.6403 96.8934 42.6859 96.945C43.1992 97.654 43.9065 98.1995 44.7226 98.516C45.5386 98.8325 46.4288 98.9065 47.2859 98.729C47.3159 98.501 47.3459 98.277 47.3859 98.058C47.3499 98.276 47.3199 98.501 47.2859 98.729C47.8361 98.6182 48.3616 98.4084 48.8369 98.11C50.2539 97.219 52.0369 96.221 52.7509 94.648C53.009 94.0698 53.1429 93.4439 53.144 92.8107C53.145 92.1775 53.0132 91.5511 52.757 90.9721C52.5009 90.393 52.1261 89.8742 51.6568 89.449C51.1876 89.0239 50.6344 88.702 50.0329 88.504C49.8338 88.4424 49.6307 88.395 49.4249 88.362L51.3179 87.144C52.1296 86.7186 52.8446 86.13 53.4179 85.415M43.5629 75.498C43.1899 73.898 44.5159 73.098 45.6329 72.298C46.7139 71.518 47.9849 70.208 49.4399 70.772C50.8129 71.304 51.7999 73.258 50.7399 74.511C50.2434 74.9885 49.6938 75.4076 49.1019 75.76L47.4179 76.983C47.0848 77.2187 46.6985 77.3684 46.2936 77.4188C45.8886 77.4691 45.4775 77.4186 45.0968 77.2718C44.716 77.1249 44.3775 76.8862 44.1113 76.5769C43.8451 76.2676 43.6595 75.8973 43.5709 75.499M50.6709 91.415C50.9728 91.8654 51.117 92.4031 51.0808 92.9441C51.0446 93.4851 50.8301 93.9989 50.4709 94.405C49.9655 94.8747 49.4066 95.2835 48.8059 95.623C48.3189 96.0103 47.7915 96.3439 47.2329 96.618C46.7243 96.8092 46.1665 96.8256 45.6476 96.6646C45.1286 96.5036 44.678 96.1744 44.3669 95.729C44.0435 95.2382 43.9054 94.6483 43.9772 94.0649C44.049 93.4815 44.3261 92.9427 44.7589 92.545C45.226 92.1719 45.717 91.8298 46.2289 91.521C46.745 91.0991 47.3171 90.7508 47.9289 90.486C48.4244 90.3305 48.9565 90.3367 49.4482 90.5037C49.9399 90.6707 50.3657 90.9899 50.6639 91.415M49.0409 86.136C48.3789 86.562 47.7279 87.021 47.0479 87.418C46.5284 87.7202 45.9112 87.8071 45.3285 87.66C44.7458 87.5129 44.2438 87.1436 43.9299 86.631C43.5653 86.1438 43.4052 85.5336 43.4836 84.9302C43.5621 84.3268 43.8729 83.7778 44.3499 83.4C45.0189 82.9 45.7699 82.487 46.4709 82.036C47.1329 81.61 47.7839 81.15 48.4639 80.754C48.9948 80.4818 49.6071 80.4139 50.1848 80.563C50.7625 80.7121 51.2654 81.068 51.5982 81.5632C51.9311 82.0583 52.0707 82.6584 51.9906 83.2496C51.9106 83.8408 51.6164 84.3822 51.1639 84.771C50.4949 85.271 49.7439 85.684 49.0429 86.135" fill="var(--fill-0, #323232)"/>
<path id="&#227;&#131;&#145;&#227;&#130;&#185; 257" d="M47.9319 90.487C47.3201 90.7518 46.748 91.1001 46.2319 91.522C45.72 91.8308 45.229 92.1729 44.7619 92.546C44.329 92.9436 44.0517 93.4824 43.9799 94.0659C43.9081 94.6493 44.0463 95.2392 44.3699 95.73C44.6811 96.1753 45.1317 96.5044 45.6506 96.6654C46.1696 96.8263 46.7273 96.81 47.2359 96.619C47.7946 96.345 48.3219 96.0114 48.8089 95.624C49.4097 95.2846 49.9685 94.8758 50.4739 94.406C50.8298 94.011 51.0455 93.5096 51.0876 92.9796C51.1297 92.4495 50.9958 91.9204 50.7068 91.4741C50.4177 91.0279 49.9895 90.6894 49.4886 90.5111C48.9877 90.3329 48.4419 90.3247 47.9359 90.488" fill="var(--fill-0, white)"/>
<path id="&#227;&#131;&#145;&#227;&#130;&#185; 258" d="M47.1629 99.593C47.0107 99.4546 46.823 99.3612 46.6208 99.3233C46.4186 99.2855 46.2098 99.3046 46.0179 99.3786C45.8259 99.4526 45.6583 99.5785 45.5338 99.7423C45.4093 99.906 45.3328 100.101 45.3129 100.306C45.0246 103.026 43.8332 105.571 41.9289 107.535C41.3457 108.171 40.7199 108.767 40.0559 109.318C39.7849 109.544 39.2449 109.811 39.1009 110.431C38.8946 111.838 38.7986 113.259 38.8139 114.681L38.5319 119C38.5219 119.132 38.5375 119.266 38.5779 119.392H40.5179C40.5752 119.269 40.6091 119.136 40.6179 119C40.7892 116.374 40.9606 113.748 41.1319 111.121C42.8749 109.857 44.3333 108.241 45.4128 106.378C46.4923 104.515 47.1689 102.447 47.3989 100.306C47.414 100.177 47.401 100.047 47.3608 99.9239C47.3206 99.8008 47.2541 99.6879 47.1659 99.593" fill="var(--fill-0, #323232)"/>
<path id="&#227;&#131;&#145;&#227;&#130;&#185; 259" d="M38.5779 119.392C38.6657 119.575 38.8033 119.729 38.9749 119.837C39.1465 119.945 39.3451 120.002 39.5479 120.002C39.7507 120.002 39.9493 119.945 40.1209 119.837C40.2925 119.729 40.4301 119.575 40.5179 119.392H38.5779Z" fill="var(--fill-0, #323232)"/>
<path id="&#227;&#131;&#145;&#227;&#130;&#185; 260" d="M43.5719 75.499C43.6605 75.8973 43.8461 76.2676 44.1123 76.5769C44.3785 76.8862 44.717 77.1249 45.0978 77.2718C45.4785 77.4186 45.8896 77.4691 46.2946 77.4187C46.6995 77.3684 47.0858 77.2187 47.4189 76.983L49.1139 75.76C49.7057 75.4074 50.2553 74.9884 50.7519 74.511C51.8089 73.258 50.8219 71.303 49.4519 70.771C47.9969 70.207 46.7259 71.517 45.6449 72.297C44.5279 73.103 43.2009 73.897 43.5749 75.497" fill="var(--fill-0, white)"/>
<path id="&#227;&#131;&#145;&#227;&#130;&#185; 261" d="M11.8899 112.087C11.894 111.141 11.6554 110.21 11.1969 109.382C10.2629 107.754 8.7969 106.517 7.7159 105.002C4.9519 101.144 5.0269 95.78 5.1519 91.252C5.38437 86.3099 4.98786 81.3582 3.9719 76.516C3.4409 74.195 2.3089 71.922 2.1089 69.54C2.03499 68.9902 2.08431 68.4308 2.25329 67.9025C2.42227 67.3741 2.70667 66.8899 3.0859 66.485C3.7219 65.824 4.8079 65.185 5.6639 65.855C5.82677 65.9781 6.01956 66.0554 6.22234 66.079C6.42511 66.1026 6.63052 66.0716 6.8173 65.9893C7.00409 65.9069 7.16548 65.7761 7.28478 65.6104C7.40408 65.4448 7.47697 65.2503 7.4959 65.047C7.1289 64.735 6.7449 64.434 6.3599 64.114C6.7449 64.435 7.1299 64.736 7.4959 65.047C7.49144 64.916 7.45659 64.7878 7.39412 64.6726C7.33164 64.5574 7.24325 64.4582 7.1359 64.383C6.3779 63.7822 5.42368 63.4845 4.45851 63.5477C3.49334 63.6109 2.58608 64.0305 1.9129 64.725C1.17878 65.3986 0.627007 66.2469 0.308961 67.1911C-0.00908527 68.1353 -0.083067 69.1445 0.0939029 70.125C0.410903 72.507 1.4289 74.734 1.9629 77.069C2.56138 79.7106 2.92711 82.3995 3.0559 85.105C3.3179 90.341 2.5119 95.667 3.7389 100.827C4.24073 103.129 5.27123 105.282 6.7489 107.117C7.6939 108.253 9.4979 109.835 9.7599 111.187C9.90684 112.419 9.97032 113.659 9.9499 114.899L10.1219 118.266C10.1294 118.509 10.2228 118.741 10.3854 118.921C10.548 119.102 10.7693 119.218 11.0099 119.251C11.1562 119.29 11.3096 119.293 11.4575 119.261C11.6054 119.229 11.7434 119.161 11.8602 119.065C11.977 118.969 12.0692 118.846 12.1291 118.707C12.1891 118.568 12.215 118.417 12.2049 118.266C12.0996 116.206 11.9939 114.146 11.8879 112.085" fill="var(--fill-0, #323232)"/>
<path id="&#227;&#131;&#145;&#227;&#130;&#185; 262" d="M25.9029 97.129C25.0369 96.104 23.5699 97.583 24.4299 98.602C26.4249 100.964 27.6466 103.882 27.9299 106.961C28.0499 108.285 30.1299 108.297 30.0129 106.961C29.698 103.337 28.2634 99.9015 25.9079 97.13" fill="var(--fill-0, #323232)"/>
<path id="&#227;&#131;&#145;&#227;&#130;&#185; 263" d="M16.8249 53.114C16.4549 53.114 16.0931 53.2237 15.7854 53.4293C15.4777 53.6349 15.2379 53.9271 15.0963 54.269C14.9547 54.6109 14.9177 54.9871 14.9899 55.35C15.0621 55.713 15.2402 56.0463 15.5019 56.308C15.7636 56.5697 16.097 56.7479 16.4599 56.8201C16.8228 56.8922 17.199 56.8552 17.5409 56.7136C17.8828 56.572 18.175 56.3321 18.3806 56.0245C18.5862 55.7168 18.6959 55.3551 18.6959 54.985C18.6959 54.4888 18.4988 54.0129 18.1479 53.662C17.797 53.3111 17.3211 53.114 16.8249 53.114Z" fill="var(--fill-0, #CC151A)"/>
<path id="&#227;&#131;&#145;&#227;&#130;&#185; 264" d="M39.2059 53.284H21.1159C20.8453 53.2924 20.5885 53.4058 20.4 53.6002C20.2116 53.7946 20.1062 54.0547 20.1062 54.3255C20.1062 54.5963 20.2116 54.8564 20.4 55.0508C20.5885 55.2452 20.8453 55.3586 21.1159 55.367H39.2059C39.4765 55.3586 39.7333 55.2452 39.9218 55.0508C40.1102 54.8564 40.2156 54.5963 40.2156 54.3255C40.2156 54.0547 40.1102 53.7946 39.9218 53.6002C39.7333 53.4058 39.4765 53.2924 39.2059 53.284Z" fill="var(--fill-0, #EBEBEB)"/>
<path id="&#227;&#131;&#145;&#227;&#130;&#185; 265" d="M16.8249 62.621C16.4549 62.621 16.0931 62.7307 15.7854 62.9363C15.4777 63.1419 15.2379 63.4341 15.0963 63.776C14.9547 64.1179 14.9177 64.4941 14.9899 64.857C15.0621 65.22 15.2402 65.5533 15.5019 65.815C15.7636 66.0767 16.097 66.2549 16.4599 66.327C16.8228 66.3992 17.199 66.3622 17.5409 66.2206C17.8828 66.079 18.175 65.8392 18.3806 65.5315C18.5862 65.2238 18.6959 64.862 18.6959 64.492C18.6959 63.9958 18.4988 63.5199 18.1479 63.169C17.797 62.8181 17.3211 62.621 16.8249 62.621Z" fill="var(--fill-0, #CC151A)"/>
<path id="&#227;&#131;&#145;&#227;&#130;&#185; 266" d="M39.2059 62.791H21.1159C20.8453 62.7994 20.5885 62.9128 20.4 63.1072C20.2116 63.3016 20.1062 63.5617 20.1062 63.8325C20.1062 64.1033 20.2116 64.3634 20.4 64.5578C20.5885 64.7522 20.8453 64.8656 21.1159 64.874H39.2059C39.4765 64.8656 39.7333 64.7522 39.9218 64.5578C40.1102 64.3634 40.2156 64.1033 40.2156 63.8325C40.2156 63.5617 40.1102 63.3016 39.9218 63.1072C39.7333 62.9128 39.4765 62.7994 39.2059 62.791Z" fill="var(--fill-0, #EBEBEB)"/>
<path id="&#227;&#131;&#145;&#227;&#130;&#185; 267" d="M16.8249 72.128C16.4546 72.1278 16.0925 72.2375 15.7845 72.4431C15.4765 72.6487 15.2364 72.941 15.0946 73.2831C14.9528 73.6252 14.9156 74.0017 14.9878 74.365C15.06 74.7282 15.2383 75.0618 15.5002 75.3237C15.7621 75.5856 16.0957 75.7639 16.4589 75.8361C16.8222 75.9083 17.1986 75.8711 17.5407 75.7293C17.8829 75.5875 18.1752 75.3474 18.3808 75.0394C18.5865 74.7314 18.6961 74.3693 18.6959 73.999C18.6959 73.5028 18.4988 73.0269 18.1479 72.676C17.797 72.3251 17.3211 72.128 16.8249 72.128Z" fill="var(--fill-0, #CC151A)"/>
<path id="&#227;&#131;&#145;&#227;&#130;&#185; 268" d="M39.2059 72.298H21.1159C20.8453 72.3064 20.5885 72.4198 20.4 72.6142C20.2116 72.8086 20.1062 73.0687 20.1062 73.3395C20.1062 73.6103 20.2116 73.8704 20.4 74.0648C20.5885 74.2592 20.8453 74.3726 21.1159 74.381H39.2059C39.4765 74.3726 39.7333 74.2592 39.9218 74.0648C40.1102 73.8704 40.2156 73.6103 40.2156 73.3395C40.2156 73.0687 40.1102 72.8086 39.9218 72.6142C39.7333 72.4198 39.4765 72.3064 39.2059 72.298Z" fill="var(--fill-0, #EBEBEB)"/>
<path id="&#227;&#131;&#145;&#227;&#130;&#185; 269" d="M71.2789 3.78415e-08C67.731 -0.000227911 64.2592 1.02939 61.285 2.96388C58.3109 4.89838 55.9622 7.65458 54.524 10.898C53.0858 14.1413 52.6199 17.7325 53.183 21.2354C53.746 24.7384 55.3138 28.0027 57.6959 30.632L54.8159 35.99C54.7176 36.1726 54.6813 36.3823 54.7125 36.5873C54.7436 36.7924 54.8406 36.9818 54.9887 37.127C55.1368 37.2721 55.3281 37.3653 55.5338 37.3923C55.7394 37.4194 55.9483 37.3789 56.1289 37.277L61.8579 34.05C64.2802 35.5013 67.005 36.3733 69.8199 36.5979C72.6347 36.8225 75.4634 36.3937 78.0851 35.3449C80.7069 34.2961 83.0509 32.6557 84.9342 30.5517C86.8175 28.4477 88.1891 25.9369 88.9421 23.2154C89.6951 20.4939 89.8091 17.6352 89.2751 14.8623C88.7412 12.0895 87.5737 9.47753 85.8639 7.23026C84.1541 4.98298 81.9481 3.16118 79.4182 1.907C76.8882 0.652811 74.1027 0.000171289 71.2789 3.78415e-08ZM64.4789 17.008C64.849 17.008 65.2107 17.1177 65.5184 17.3233C65.8261 17.5289 66.0659 17.8211 66.2075 18.163C66.3491 18.5049 66.3861 18.8811 66.3139 19.244C66.2417 19.607 66.0635 19.9403 65.8019 20.202C65.5402 20.4637 65.2068 20.6419 64.8439 20.714C64.481 20.7862 64.1048 20.7492 63.7629 20.6076C63.421 20.466 63.1288 20.2262 62.9232 19.9185C62.7176 19.6108 62.6079 19.249 62.6079 18.879C62.6079 18.3828 62.805 17.9069 63.1559 17.556C63.5068 17.2051 63.9827 17.008 64.4789 17.008ZM71.7179 20.751C71.3478 20.751 70.9861 20.6413 70.6784 20.4357C70.3708 20.2301 70.1309 19.9379 69.9893 19.596C69.8477 19.2541 69.8106 18.8779 69.8828 18.515C69.955 18.152 70.1332 17.8187 70.3949 17.557C70.6566 17.2953 70.9899 17.1171 71.3529 17.045C71.7158 16.9728 72.092 17.0098 72.4339 17.1514C72.7758 17.293 73.068 17.5328 73.2736 17.8405C73.4792 18.1482 73.5889 18.51 73.5889 18.88C73.5889 19.3762 73.3918 19.8521 73.0409 20.203C72.69 20.5539 72.2141 20.751 71.7179 20.751ZM78.9569 20.751C78.5867 20.7514 78.2247 20.642 77.9168 20.4366C77.6088 20.2312 77.3687 19.9391 77.2268 19.5972C77.0849 19.2553 77.0476 18.8789 77.1197 18.5158C77.1917 18.1527 77.3699 17.8192 77.6316 17.5574C77.8932 17.2955 78.2267 17.1172 78.5898 17.045C78.9528 16.9727 79.3292 17.0098 79.6711 17.1515C80.0131 17.2932 80.3054 17.5332 80.5109 17.841C80.7165 18.1489 80.8261 18.5108 80.8259 18.881C80.8259 19.3772 80.6288 19.8531 80.2779 20.204C79.927 20.5549 79.4511 20.752 78.9549 20.752" fill="var(--fill-0, #CC151A)"/>
<path id="&#227;&#131;&#145;&#227;&#130;&#185; 270" d="M64.4759 20.752C64.8459 20.752 65.2077 20.6423 65.5154 20.4367C65.8231 20.2311 66.0629 19.9389 66.2045 19.597C66.3461 19.2551 66.3831 18.8789 66.3109 18.516C66.2387 18.153 66.0606 17.8197 65.7989 17.558C65.5372 17.2963 65.2038 17.1181 64.8409 17.0459C64.478 16.9738 64.1018 17.0108 63.7599 17.1524C63.418 17.294 63.1258 17.5338 62.9202 17.8415C62.7146 18.1492 62.6049 18.511 62.6049 18.881C62.6049 19.3772 62.802 19.8531 63.1529 20.204C63.5038 20.5549 63.9797 20.752 64.4759 20.752Z" fill="var(--fill-0, white)"/>
<path id="&#227;&#131;&#145;&#227;&#130;&#185; 271" d="M71.7119 17.009C71.3419 17.009 70.9801 17.1187 70.6724 17.3243C70.3647 17.5299 70.1249 17.8221 69.9833 18.164C69.8417 18.5059 69.8047 18.8821 69.8769 19.245C69.949 19.608 70.1272 19.9413 70.3889 20.203C70.6506 20.4647 70.9839 20.6429 71.3469 20.715C71.7098 20.7872 72.086 20.7502 72.4279 20.6086C72.7698 20.467 73.062 20.2272 73.2676 19.9195C73.4732 19.6118 73.5829 19.25 73.5829 18.88C73.5829 18.3838 73.3858 17.9079 73.0349 17.557C72.684 17.2061 72.2081 17.009 71.7119 17.009Z" fill="var(--fill-0, white)"/>
<path id="&#227;&#131;&#145;&#227;&#130;&#185; 272" d="M78.9539 17.009C78.5839 17.0092 78.2223 17.1191 77.9147 17.3248C77.6071 17.5305 77.3675 17.8228 77.226 18.1647C77.0846 18.5066 77.0477 18.8828 77.12 19.2456C77.1923 19.6085 77.3706 19.9418 77.6323 20.2034C77.894 20.4649 78.2274 20.643 78.5903 20.7151C78.9532 20.7872 79.3293 20.7501 79.6711 20.6085C80.013 20.4668 80.3051 20.227 80.5106 19.9194C80.7162 19.6117 80.8259 19.25 80.8259 18.88C80.8259 18.6342 80.7775 18.3908 80.6834 18.1638C80.5893 17.9367 80.4514 17.7304 80.2776 17.5566C80.1037 17.3829 79.8973 17.2451 79.6702 17.1511C79.4431 17.0572 79.1997 17.0089 78.9539 17.009Z" fill="var(--fill-0, white)"/>
</g>
</svg>
