<svg preserveAspectRatio="none" width="100%" height="100%" overflow="visible" style="display: block;" viewBox="0 0 99.9995 77.245" fill="none" xmlns="http://www.w3.org/2000/svg">
<g id="&#227;&#130;&#176;&#227;&#131;&#171;&#227;&#131;&#188;&#227;&#131;&#151; 130">
<path id="&#227;&#131;&#145;&#227;&#130;&#185; 356" d="M72.0315 65.645H5.9345C4.3611 65.6431 2.85269 65.0172 1.74022 63.9046C0.627754 62.7919 0.00208793 61.2834 0.0005 59.71L0.0005 5.935C0.00208793 4.3616 0.627754 2.85308 1.74022 1.74043C2.85269 0.627773 4.3611 0.00185306 5.9345 0L85.0765 0C86.65 0.00185257 88.1585 0.62774 89.2711 1.74037C90.3838 2.85299 91.0096 4.36151 91.0115 5.935V44.346C91.0115 44.5745 90.9207 44.7936 90.7592 44.9552C90.5976 45.1167 90.3785 45.2075 90.15 45.2075C89.9215 45.2075 89.7024 45.1167 89.5408 44.9552C89.3793 44.7936 89.2885 44.5745 89.2885 44.346V5.935C89.2872 4.81831 88.843 3.74774 88.0534 2.95813C87.2638 2.16851 86.1932 1.72432 85.0765 1.723H5.9345C4.81799 1.72459 3.74767 2.16889 2.95827 2.95848C2.16887 3.74807 1.72482 4.81849 1.7235 5.935V59.71C1.72482 60.8267 2.16901 61.8973 2.95863 62.6869C3.74824 63.4765 4.81881 63.9207 5.9355 63.922H72.0355C72.264 63.922 72.4831 64.0128 72.6447 64.1743C72.8062 64.3359 72.897 64.555 72.897 64.7835C72.897 65.012 72.8062 65.2311 72.6447 65.3927C72.4831 65.5542 72.264 65.645 72.0355 65.645" fill="var(--fill-0, black)"/>
<path id="&#227;&#131;&#145;&#227;&#130;&#185; 357" d="M69.2775 52.89H0.8615C0.633016 52.89 0.41389 52.7992 0.252328 52.6377C0.0907649 52.4761 0 52.257 0 52.0285C0 51.8 0.0907649 51.5809 0.252328 51.4193C0.41389 51.2578 0.633016 51.167 0.8615 51.167H69.2775C69.506 51.167 69.7251 51.2578 69.8867 51.4193C70.0482 51.5809 70.139 51.8 70.139 52.0285C70.139 52.257 70.0482 52.4761 69.8867 52.6377C69.7251 52.7992 69.506 52.89 69.2775 52.89Z" fill="var(--fill-0, black)"/>
<path id="&#227;&#131;&#145;&#227;&#130;&#185; 358" d="M77.3955 26.799H46.3755C46.1471 26.799 45.9282 26.7083 45.7667 26.5468C45.6052 26.3853 45.5145 26.1664 45.5145 25.938V12.602C45.5145 12.3736 45.6052 12.1546 45.7667 11.9932C45.9282 11.8317 46.1471 11.741 46.3755 11.741H77.3955C77.6238 11.741 77.8429 11.8317 78.0043 11.9932C78.1658 12.1546 78.2565 12.3736 78.2565 12.602V25.938C78.2565 26.1664 78.1658 26.3853 78.0043 26.5468C77.8429 26.7083 77.6238 26.799 77.3955 26.799ZM47.2375 25.076H76.5375V13.462H47.2375V25.076Z" fill="var(--fill-0, black)"/>
<path id="&#227;&#131;&#145;&#227;&#130;&#185; 359" d="M77.3955 34.481H46.3755C46.147 34.481 45.9279 34.3902 45.7663 34.2287C45.6048 34.0671 45.514 33.848 45.514 33.6195C45.514 33.391 45.6048 33.1719 45.7663 33.0103C45.9279 32.8488 46.147 32.758 46.3755 32.758H77.3955C77.624 32.758 77.8431 32.8488 78.0047 33.0103C78.1662 33.1719 78.257 33.391 78.257 33.6195C78.257 33.848 78.1662 34.0671 78.0047 34.2287C77.8431 34.3902 77.624 34.481 77.3955 34.481Z" fill="var(--fill-0, black)"/>
<path id="&#227;&#131;&#145;&#227;&#130;&#185; 360" d="M67.3935 43.686H46.3755C46.147 43.686 45.9279 43.5952 45.7663 43.4337C45.6048 43.2721 45.514 43.053 45.514 42.8245C45.514 42.596 45.6048 42.3769 45.7663 42.2153C45.9279 42.0538 46.147 41.963 46.3755 41.963H67.3935C67.622 41.963 67.8411 42.0538 68.0027 42.2153C68.1642 42.3769 68.255 42.596 68.255 42.8245C68.255 43.053 68.1642 43.2721 68.0027 43.4337C67.8411 43.5952 67.622 43.686 67.3935 43.686Z" fill="var(--fill-0, black)"/>
<path id="&#227;&#131;&#145;&#227;&#130;&#185; 361" d="M25.0305 29.507C23.261 29.566 21.5142 29.0951 20.014 28.1548C18.5139 27.2145 17.3288 25.8475 16.6106 24.2293C15.8924 22.611 15.6739 20.8151 15.9831 19.0718C16.2923 17.3285 17.1151 15.7173 18.346 14.4447C19.5769 13.1721 21.1598 12.2961 22.8918 11.929C24.6239 11.562 26.426 11.7206 28.0673 12.3845C29.7086 13.0484 31.1143 14.1873 32.104 15.6553C33.0938 17.1234 33.6225 18.8535 33.6225 20.624C33.6581 22.9403 32.7737 25.1762 31.1632 26.8414C29.5528 28.5066 27.3467 29.4652 25.0305 29.507ZM25.0315 13.464C23.6028 13.4047 22.189 13.7743 20.972 14.5251C19.755 15.2758 18.7905 16.3736 18.2024 17.677C17.6144 18.9804 17.4298 20.43 17.6723 21.8392C17.9148 23.2485 18.5734 24.5529 19.5634 25.5848C20.5533 26.6167 21.8293 27.3288 23.2273 27.6295C24.6253 27.9303 26.0812 27.8059 27.4079 27.2725C28.7346 26.739 29.8714 25.8208 30.672 24.636C31.4726 23.4512 31.9005 22.0539 31.9005 20.624C31.9362 18.7645 31.2332 16.9666 29.9456 15.6245C28.658 14.2824 26.8909 13.5055 25.0315 13.464Z" fill="var(--fill-0, black)"/>
<path id="&#227;&#131;&#145;&#227;&#130;&#185; 362" d="M40.4565 43.686H9.6045C9.37615 43.686 9.15715 43.5953 8.99568 43.4338C8.83421 43.2723 8.7435 43.0533 8.7435 42.825V39.7C8.74311 38.7661 8.92673 37.8413 9.28388 36.9783C9.64102 36.1154 10.1647 35.3313 10.825 34.6709C11.4852 34.0104 12.2692 33.4865 13.132 33.1291C13.9948 32.7717 14.9196 32.5879 15.8535 32.588C17.1586 32.5855 18.4187 32.1104 19.4006 31.2506C20.3825 30.3907 21.0198 29.2044 21.1945 27.911C21.2243 27.6845 21.3429 27.4791 21.5242 27.3401C21.7054 27.201 21.9345 27.1397 22.161 27.1695C22.3875 27.1993 22.5929 27.3179 22.7319 27.4992C22.871 27.6804 22.9323 27.9095 22.9025 28.136C22.6719 29.8432 21.831 31.4091 20.5351 32.5441C19.2392 33.6791 17.5761 34.3064 15.8535 34.31C15.1457 34.3097 14.4448 34.449 13.7908 34.7198C13.1369 34.9906 12.5427 35.3876 12.0423 35.8882C11.5419 36.3888 11.1451 36.9831 10.8745 37.6372C10.604 38.2912 10.465 38.9922 10.4655 39.7V41.963H39.5955V39.72C39.5938 38.9935 39.449 38.2744 39.1693 37.6038C38.8896 36.9333 38.4805 36.3244 37.9655 35.812C37.4849 35.3285 36.9119 34.9466 36.2808 34.689C35.6497 34.4313 34.9732 34.3031 34.2915 34.312C33.343 34.3291 32.4009 34.1533 31.5224 33.7955C30.6438 33.4376 29.8471 32.905 29.1805 32.23C28.0772 31.1247 27.3672 29.6878 27.1595 28.14C27.1448 28.0278 27.1523 27.9139 27.1816 27.8047C27.211 27.6954 27.2615 27.593 27.3304 27.5033C27.3993 27.4136 27.4852 27.3384 27.5832 27.2819C27.6812 27.2254 27.7894 27.1887 27.9015 27.174C28.0136 27.1593 28.1276 27.1668 28.2368 27.1961C28.3461 27.2255 28.4485 27.276 28.5382 27.3449C28.6279 27.4138 28.7031 27.4997 28.7596 27.5977C28.8161 27.6957 28.8528 27.8038 28.8675 27.916C29.0243 29.0892 29.5622 30.1784 30.3985 31.016C30.9041 31.5267 31.508 31.9298 32.1736 32.2008C32.8393 32.4719 33.5529 32.6053 34.2715 32.593C35.18 32.5854 36.0809 32.7583 36.922 33.1017C37.7632 33.445 38.5278 33.9519 39.1715 34.593C39.8485 35.2647 40.3866 36.0633 40.7549 36.943C41.1233 37.8226 41.3148 38.7663 41.3185 39.72V42.82C41.3185 43.0483 41.2278 43.2673 41.0663 43.4288C40.9048 43.5903 40.6859 43.681 40.4575 43.681" fill="var(--fill-0, black)"/>
<path id="&#227;&#131;&#145;&#227;&#130;&#185; 363" d="M25.0305 35.51C23.8507 35.508 22.7002 35.142 21.7361 34.4619C20.7719 33.7818 20.0412 32.8208 19.6435 31.71C19.5667 31.4949 19.5785 31.2581 19.6763 31.0517C19.7741 30.8454 19.9499 30.6863 20.165 30.6095C20.3801 30.5327 20.6169 30.5445 20.8233 30.6423C21.0296 30.7401 21.1887 30.9159 21.2655 31.131C21.5438 31.9066 22.0548 32.5773 22.7287 33.0515C23.4026 33.5257 24.2065 33.7802 25.0305 33.7802C25.8545 33.7802 26.6584 33.5257 27.3323 33.0515C28.0062 32.5773 28.5172 31.9066 28.7955 31.131C28.8723 30.9159 29.0314 30.7401 29.2377 30.6423C29.4441 30.5445 29.6809 30.5327 29.896 30.6095C30.1111 30.6863 30.2869 30.8454 30.3847 31.0517C30.4825 31.2581 30.4943 31.4949 30.4175 31.71C30.019 32.8198 29.2878 33.7796 28.3237 34.4586C27.3597 35.1375 26.2097 35.5026 25.0305 35.504" fill="var(--fill-0, black)"/>
<path id="&#227;&#131;&#145;&#227;&#130;&#185; 364" d="M61.5965 77.241H30.1875C29.959 77.241 29.7399 77.1502 29.5783 76.9887C29.4168 76.8271 29.326 76.608 29.326 76.3795C29.326 76.151 29.4168 75.9319 29.5783 75.7703C29.7399 75.6088 29.959 75.518 30.1875 75.518H61.5965C61.825 75.518 62.0441 75.6088 62.2057 75.7703C62.3672 75.9319 62.458 76.151 62.458 76.3795C62.458 76.608 62.3672 76.8271 62.2057 76.9887C62.0441 77.1502 61.825 77.241 61.5965 77.241Z" fill="var(--fill-0, black)"/>
<path id="&#227;&#131;&#145;&#227;&#130;&#185; 365" d="M37.8225 77.241C37.7094 77.241 37.5975 77.2187 37.493 77.1755C37.3885 77.1322 37.2936 77.0688 37.2137 76.9888C37.1337 76.9089 37.0703 76.8139 37.027 76.7095C36.9838 76.605 36.9615 76.4931 36.9615 76.38V64.784C36.9615 64.5555 37.0523 64.3364 37.2138 64.1748C37.3754 64.0133 37.5945 63.9225 37.823 63.9225C38.0515 63.9225 38.2706 64.0133 38.4322 64.1748C38.5937 64.3364 38.6845 64.5555 38.6845 64.784V76.384C38.6845 76.6124 38.5938 76.8314 38.4323 76.9928C38.2708 77.1543 38.0518 77.245 37.8235 77.245" fill="var(--fill-0, black)"/>
<path id="&#227;&#131;&#145;&#227;&#130;&#185; 366" d="M53.1885 77.241C52.9601 77.241 52.7412 77.1503 52.5797 76.9888C52.4182 76.8273 52.3275 76.6084 52.3275 76.38V64.784C52.3275 64.5555 52.4183 64.3364 52.5798 64.1748C52.7414 64.0133 52.9605 63.9225 53.189 63.9225C53.4175 63.9225 53.6366 64.0133 53.7982 64.1748C53.9597 64.3364 54.0505 64.5555 54.0505 64.784V76.384C54.0505 76.6124 53.9598 76.8314 53.7983 76.9928C53.6368 77.1543 53.4179 77.245 53.1895 77.245" fill="var(--fill-0, black)"/>
<path id="&#227;&#131;&#145;&#227;&#130;&#185; 367" d="M79.4085 71.097C79.204 71.097 79.0063 71.0243 78.8505 70.8918C78.6948 70.7594 78.5913 70.5758 78.5585 70.374L74.6995 46.568C74.6755 46.4203 74.6905 46.2688 74.7428 46.1286C74.7952 45.9884 74.8832 45.8643 74.9982 45.7685C75.1132 45.6727 75.2512 45.6085 75.3985 45.5823C75.5459 45.5561 75.6975 45.5687 75.8385 45.619L98.5535 53.713C98.6967 53.7638 98.824 53.8517 98.9222 53.9676C99.0205 54.0836 99.0864 54.2234 99.1131 54.3731C99.1398 54.5227 99.1264 54.6767 99.0743 54.8195C99.0223 54.9623 98.9333 55.0887 98.8165 55.186L91.8375 61C91.6609 61.135 91.439 61.1965 91.2181 61.1716C90.9973 61.1467 90.7946 61.0374 90.6525 60.8665C90.5104 60.6956 90.4399 60.4763 90.4558 60.2546C90.4716 60.0329 90.5725 59.826 90.7375 59.677L96.5565 54.829L76.6355 47.729L80.0195 68.606L85.8375 63.758C85.9239 63.682 86.0247 63.6241 86.1339 63.5878C86.2431 63.5514 86.3585 63.5373 86.4732 63.5463C86.588 63.5553 86.6998 63.5872 86.8019 63.6401C86.9041 63.693 86.9947 63.7659 87.0682 63.8544C87.1418 63.943 87.1968 64.0453 87.2301 64.1555C87.2634 64.2657 87.2743 64.3814 87.2621 64.4958C87.2499 64.6103 87.2149 64.7211 87.1592 64.8218C87.1034 64.9225 87.028 65.011 86.9375 65.082L79.9595 70.896C79.8045 71.0251 79.6092 71.0959 79.4075 71.096" fill="var(--fill-0, #CC151A)"/>
<path id="&#227;&#131;&#145;&#227;&#130;&#185; 368" d="M94.2385 74.715C94.2125 74.7163 94.1865 74.7163 94.1605 74.715C93.933 74.6944 93.7229 74.5844 93.5765 74.409L85.7195 64.979C85.5811 64.8026 85.517 64.5792 85.5407 64.3563C85.5644 64.1334 85.6742 63.9285 85.8466 63.7852C86.0191 63.642 86.2406 63.5716 86.4641 63.5891C86.6876 63.6066 86.8955 63.7106 87.0435 63.879L94.3495 72.647L97.9255 69.667L90.6195 60.899C90.5435 60.8126 90.4856 60.7118 90.4493 60.6026C90.4129 60.4934 90.3988 60.378 90.4078 60.2633C90.4168 60.1485 90.4487 60.0368 90.5016 59.9346C90.5545 59.8324 90.6274 59.7418 90.716 59.6683C90.8045 59.5947 90.9068 59.5397 91.017 59.5064C91.1272 59.4731 91.2429 59.4622 91.3573 59.4744C91.4718 59.4866 91.5826 59.5216 91.6833 59.5773C91.784 59.6331 91.8725 59.7085 91.9435 59.799L99.8005 69.229C99.9465 69.4047 100.017 69.631 99.9959 69.8585C99.9751 70.0859 99.8649 70.2958 99.6895 70.442L94.7895 74.525C94.6345 74.6541 94.4392 74.7249 94.2375 74.725" fill="var(--fill-0, #CC151A)"/>
</g>
</svg>
