<svg preserveAspectRatio="none" width="100%" height="100%" overflow="visible" style="display: block;" viewBox="0 0 796.545 476.72" fill="none" xmlns="http://www.w3.org/2000/svg">
<g id="&#227;&#131;&#158;&#227;&#130;&#185;&#227;&#130;&#175;&#227;&#130;&#176;&#227;&#131;&#171;&#227;&#131;&#188;&#227;&#131;&#151; 8">
<path id="&#227;&#131;&#145;&#227;&#130;&#185; 370" d="M13.8545 136.679L15.9693 136.382C16.3219 136.333 17.6141 136.151 19.3933 136.021C24.11 135.477 24.11 135.477 35.926 134.296C39.6012 134.019 48.7829 132.849 52.7784 132.287L54.8932 131.99L55.5868 136.925L49.3591 137.8C37.0218 139.534 23.9974 140.646 18.9138 140.281L21.5855 160.995C27.2258 160.202 27.2258 160.202 31.371 159.859C39.0417 159.02 44.8171 158.329 52.5704 157.239L58.6807 156.38L59.2586 160.493C50.4462 161.731 45.3255 162.81 40.9083 164.629C28.1093 169.903 21.7289 179.067 23.2812 190.113C23.6332 193.001 24.5709 195.788 26.0371 198.301C27.5034 200.815 29.4672 203.003 31.8083 204.731C37.7895 208.923 47.821 210.389 59.4536 208.754C71.6736 207.036 80.5267 202.677 84.3334 196.51C86.4889 193.092 87.0161 190.022 86.4587 184.349C91.5901 185.904 94.6579 187.27 100.422 190.774C105.53 193.89 107.795 195.489 110.809 198.181L120.845 174.124C118.3 173.044 116.889 172.403 115.852 171.83C106.482 167.396 105.074 166.755 98.6355 164.424C93.3866 162.491 87.9329 161.167 82.3818 160.478C81.8846 157.792 81.8846 157.792 81.0407 152.639C87.9235 151.312 98.8685 149.055 110.135 146.513L106.843 125.648C98.715 128.347 92.2338 129.978 78.0311 132.932L77.3705 128.232C85.0596 126.672 93.6556 124.745 99.3141 123.231C106.584 121.25 106.584 121.25 110.211 120.621L106.651 99.5562C97.7828 102.959 89.8077 105.039 74.6479 108.008C74.0405 101.983 73.9932 100.791 74.1861 97.0495L49.2761 100.55C50.4268 103.624 50.8088 105.487 51.7336 112.067C50.3071 112.148 48.0749 112.462 48.0749 112.462C30.92 114.873 19.071 115.819 11.0851 115.267L13.8545 136.679ZM62.132 180.938C62.132 180.938 62.3815 181.861 62.464 182.449C62.9594 185.974 60.6221 188.1 55.4521 188.826C50.8721 189.47 48.3546 188.626 48.0408 186.393C47.661 183.69 50.4003 181.868 56.158 181.059C58.1311 180.71 60.1464 180.669 62.132 180.938ZM187.008 86.4623C190.07 90.3457 193.095 95.6716 196.384 102.878L209.42 96.7325C206.065 89.8947 203.254 85.2574 199.656 80.97L187.008 86.4623ZM202.595 79.7179C206.695 85.0132 208.751 88.5587 212.275 95.7317L224.824 89.5346C222.224 84.0369 218.844 78.943 214.789 74.4103L202.595 79.7179ZM123.399 128.353C125.38 127.955 125.967 127.873 126.555 127.79L128.083 127.575C133.773 127.135 134.377 127.17 139.313 126.476C137.41 151.307 133.551 173.298 128.33 189.009L155.35 194.557C155.813 190.178 156.101 188.82 158.261 176.055C161.151 158.345 163.001 140.481 163.803 122.555C168.117 121.709 169.393 121.41 173.574 120.463L176.153 137.115C186.702 133.829 197.507 131.429 208.455 129.94C216.915 128.751 219.75 128.472 226.078 128.302L222.205 105.002C198.721 108.422 198.603 108.438 185.743 111.564L182.996 94.576C176.972 96.7531 170.827 98.5769 164.592 100.038C164.713 98.344 164.713 98.344 164.664 97.9913C164.766 97.0183 164.752 96.0617 164.822 94.8539C165.022 87.7564 165.124 87.6225 165.566 84.8042L139.334 86.5736L139.582 88.3363C140.044 91.6264 140.251 96.5101 140.167 104.43C131.338 105.551 125.883 105.958 120.581 105.745L123.399 128.353ZM174.697 142.951C169.454 153.394 167.389 161.712 168.346 168.527C169.37 175.812 173.686 181.796 180.056 184.495C187.182 187.448 195.654 188.055 207.757 186.354C213.697 185.558 219.573 184.331 225.336 182.684C234.336 180.221 234.336 180.221 237.492 179.658L232.395 155.329C225.74 159.143 213.919 162.841 204.636 164.146C196.881 165.235 192.354 163.715 191.825 159.955C191.363 156.665 192.463 152.556 195.632 146.12L174.697 142.951ZM288.884 175.311C287.904 170.895 287.192 166.682 286.465 161.512L281.891 128.964L282.511 129.117C283.132 129.269 283.249 129.252 283.87 129.405L285.614 129.878C285.983 129.946 287.224 130.251 287.593 130.319C292.306 131.454 297.2 133.043 304.394 135.626C311.702 138.194 315.023 139.644 325.6 144.987L335.341 119.655C316.18 111.205 301.426 106.807 278.222 102.879L274.639 77.3821C274.292 74.9146 274.178 73.2533 273.967 70.0475L247.531 73.7629C248.646 77.4405 249.177 80.3621 249.92 85.6491L261.017 164.609C261.754 169.389 262.191 174.209 262.327 179.043L288.884 175.311ZM349.051 126.835C355.885 125.156 356.942 125.007 376.33 122.282L428.263 114.984C447.65 112.259 448.59 112.127 455.739 111.841L452.024 85.4034C444.401 87.4334 441.48 87.9636 424.912 90.292L372.742 97.624C356.175 99.9525 353.221 100.248 345.333 100.398L349.051 126.835ZM485.545 36.5975C485.636 40.6584 484.94 44.2311 483.03 50.2512C477.976 66.2986 469.926 78.9327 456.523 91.8398C466.598 96.1755 469.482 97.9274 478.827 105.601C484.244 99.8069 487.104 96.2897 490.859 90.6093C495.979 82.7008 498.573 78.141 501.12 72.3921L529.522 68.1611C526.232 83.1217 522.117 92.2073 513.989 102.576C505.238 113.631 494.462 122.215 478.924 130.151C489.061 137.473 492.258 140.618 498.749 149.292C517.319 137.336 529.275 126.07 538.25 112.347C547.209 98.5069 552.951 82.2425 556.286 61.644C557.308 55.2695 557.562 54.5175 558.775 52.0701L545.675 42.4102C543.624 44.0167 542.499 44.5339 540.031 44.8807L509.061 49.593C509.35 48.7902 509.555 47.9592 509.671 47.1136C510.093 45.8563 510.381 44.4976 510.686 43.2567C511.566 40.1376 512.14 38.2593 512.394 37.505L485.545 36.5975ZM569.192 52.8818C582.32 57.6268 593.632 63.9453 605.877 73.4877L619.172 49.5724C606.772 41.4895 601.611 38.8597 582.296 31.0302L569.192 52.8818ZM589.671 131.243C591.676 130.205 593.753 129.313 595.885 128.572C596.777 128.188 597.691 127.86 598.623 127.588C604.215 125.604 605.794 124.903 610.094 123.1C632.535 113.116 647.009 101.857 658.187 85.9066C665.259 75.6886 669.845 65.6961 674.713 50.0338C663.199 43.9837 659.88 41.694 651.273 34.1565C649.17 43.9178 647.024 50.8084 643.448 58.6213C636.434 74.3453 627.633 84.209 613.234 92.5834C602.832 98.7157 591.681 102.922 578.686 105.946L589.671 131.243ZM69.8809 293.2C70.2999 295.66 70.569 298.143 70.6865 300.635C72.9182 300.091 75.1829 299.693 77.4663 299.443L129.989 292.062C133.278 291.518 136.607 291.251 139.941 291.262L138.34 279.865C135.264 280.633 132.148 281.231 129.006 281.656L118.317 283.158L117.887 280.103L130.225 278.369C133.515 277.907 134.455 277.775 136.133 277.778L135.059 270.141C133.565 270.59 132.745 270.705 129.217 271.201L116.88 272.935L116.467 269.997L128.805 268.263C132.095 267.801 133.035 267.669 134.712 267.672L133.639 260.035C132.145 260.485 131.325 260.6 127.797 261.096L115.46 262.83L115.047 259.892L125.152 258.472C130.204 257.762 132.336 257.582 135.072 257.437L133.536 246.51C130.236 247.365 126.882 247.997 123.497 248.4L113.156 249.854C113.675 248.785 114.12 247.681 114.489 246.551L122.362 245.445C121.946 244.196 121.607 242.923 121.347 241.633L122.169 241.518C126.635 240.89 130.662 240.563 134.237 240.421L131.876 223.618C128.038 224.613 124.141 225.361 120.207 225.855L119.15 226.004C118.864 224.313 118.784 222.595 118.91 220.885L98.2295 223.792C98.7715 225.414 99.128 227.092 99.2922 228.794L88.8344 230.264C88.372 226.974 88.4233 226.487 88.477 225.162L67.9146 228.052C68.5012 229.662 68.8972 231.336 69.0946 233.038C65.7947 233.491 62.472 233.758 59.1422 233.838L59.6874 237.717L47.2026 229.886C46.281 233.261 44.8777 236.485 43.0362 239.459C42.0329 238.281 42.0329 238.281 41.0119 236.985C38.8859 234.648 38.7685 234.665 37.4798 233.168L22.2302 246.577C24.8912 248.48 27.6735 251.204 30.9024 255.423C28.3563 258.109 25.6263 260.615 22.7321 262.922C27.5822 270.148 30.0214 274.718 32.9748 282.09C36.2702 279.111 37.4308 277.989 40.7781 274.523C41.5949 276.925 41.6775 277.512 42.643 280.972C38.843 288.382 33.939 295.172 28.0989 301.108C32.6477 307.898 35.3039 313.156 37.785 320.596C41.44 316.445 44.6195 311.899 47.2643 307.042C49.2401 323.659 48.9352 324.9 42.2381 325.841C40.5933 326.072 38.8141 326.202 34.417 326.461C38.1931 333.719 39.6097 337.833 41.3036 345.623C45.0802 345.212 47.6815 344.966 48.9742 344.785C61.4295 343.034 66.3903 339.101 67.8193 329.675C70.5025 333.38 72.6827 337.425 74.303 341.704C88.1719 338.078 97.0562 334.792 107.338 329.513C118.66 331.636 127.871 332.379 141.866 332.209C142.424 325.764 143.786 319.414 145.92 313.308L142.982 313.72C138.282 314.381 134.623 314.775 128.816 315.232C132.155 312.324 135.192 309.088 137.881 305.571C138.727 304.522 139.625 303.516 140.573 302.557L129.113 294.341C126.262 295.027 123.376 295.553 120.467 295.916L82.6329 301.233C76.8753 302.042 73.3339 302.42 69.5242 302.596L71.4729 316.462C76.2409 315.432 79.9845 314.786 83.9794 314.225L87.387 313.746L76.1507 318.201C79.8207 320.441 80.8763 321.131 84.1954 322.582C78.9562 324.031 73.6288 325.14 68.2465 325.902C68.4469 318.804 68.0747 312.745 66.7207 303.111C65.2675 292.771 63.8577 285.298 61.8115 277.56C64.6257 279.68 65.6979 280.488 68.4278 282.861L69.8809 293.2ZM61.5062 250.642C64.6294 249.844 66.7278 249.429 71.2935 248.668C71.2853 249.343 71.34 250.017 71.4569 250.682L67.899 250.942C67.6856 256.245 64.4627 264.006 59.7661 270.657C58.3435 266.059 56.5523 261.582 54.4099 257.271C56.788 253.857 58.9698 250.309 60.9447 246.647L61.5062 250.642ZM91.9315 249.721C91.4648 248.491 91.163 247.203 91.0339 245.893L101.489 244.424C101.633 245.324 101.72 246.232 101.751 247.143L95.5915 247.649C95.1317 249.343 94.5213 250.992 93.7677 252.576L86.3653 253.617C86.8041 252.477 86.9733 251.974 87.4634 250.347L91.9315 249.721ZM96.6011 262.485L97.014 265.423L86.2012 266.942L85.7884 264.005L96.6011 262.485ZM87.2114 274.11L98.0213 272.59L98.4342 275.528L87.6214 277.047L87.2114 274.11ZM88.6316 284.215L99.4415 282.695L99.8709 285.751L89.0581 287.271L88.6316 284.215ZM113.002 310.145C110.764 311.952 108.329 313.5 105.743 314.76C101.095 314.095 98.261 313.535 95.612 312.589L113.002 310.145ZM219.004 273.201L185.046 277.973C179.171 278.799 176.452 279.061 173.247 279.272L175.575 295.839C178.832 295.142 181.518 294.645 187.041 293.868L188.335 293.686L180.499 301.019C188.406 306.977 193.364 311.552 199.571 319.068L208.67 309.641C210.205 313.199 211.481 316.864 212.488 320.606C222.173 319.604 222.29 319.588 225.58 319.125C232.983 318.085 237.03 317.037 239.651 315.23C243.718 312.622 245.121 308.111 244.13 301.061L242.033 286.14L243.56 285.926C249.671 285.067 252.272 284.821 255.259 284.761L252.914 268.075C249.892 268.739 246.853 269.287 240.744 270.145L239.804 270.278L239.457 267.81C245.449 266.968 247.933 266.738 251.374 266.495L249.144 250.632C246.139 251.414 243.57 251.895 236.99 252.82L184.113 260.251C176.006 261.39 175.068 261.522 172.33 261.668L174.527 277.297C177.784 276.6 180.47 276.102 185.993 275.326L218.658 270.735L219.004 273.201ZM221.233 289.064L222.224 296.111C222.538 298.344 221.68 299.063 218.39 299.526C216.821 299.748 215.241 299.89 213.657 299.951C210.649 296.923 207.45 294.092 204.079 291.474L221.233 289.064ZM233.134 250.967C237.129 250.406 239.361 250.092 243.625 249.732C242.68 245.682 241.944 241.587 241.421 237.461L238.844 219.129C238.118 213.959 237.756 210.535 237.531 206.373C234.408 207.172 230.784 207.8 224.437 208.693L183.194 214.489C178.89 215.167 174.554 215.616 170.203 215.835C170.7 218.522 170.883 218.975 171.497 222.484L154.838 213.082C151.481 220.743 143.439 229.182 132.702 236.323C138.01 241.688 141.017 246.058 145.264 254.088C153.063 248.199 158.63 242.624 165.462 234.115C167.801 231.15 169.114 229.408 171.892 225.303L175.442 250.566L159.102 241.719C154.387 253.571 147.081 264.218 137.72 272.882C142.351 280.259 144.707 285.081 148.109 293.948C149.387 292.682 150.6 291.352 151.743 289.963L155.557 317.106C156.187 321.103 156.515 325.143 156.537 329.19L177.922 326.185C177.074 322.709 176.511 319.552 175.537 312.621L169.063 266.56C171.303 262.89 172.921 259.907 174.337 257.192C175.179 255.515 175.179 255.515 175.837 254.225C176.132 257.179 176.132 257.179 176.296 259.192C178.965 258.578 180.375 258.38 187.073 257.438L233.134 250.967ZM192.999 227.132L218.144 223.598L218.574 226.653L193.428 230.187L192.999 227.132ZM194.832 240.175L219.977 236.641L220.407 239.696L195.261 243.23L194.832 240.175ZM267.377 254.18L268.549 262.523L266.431 262.821C259.969 263.729 257.602 263.942 254.716 263.868L257.573 284.196C260.561 283.296 262.07 282.965 267.125 282.254C264.606 290.756 261.908 296.288 256.774 303.24L275.612 313.653C281.204 304.839 283.97 298.099 286.969 285.336L274.175 281.263L343.619 271.503L334.51 277.454C341.924 285.878 346.391 292.08 352.359 302.145L369.524 287.87C364.748 281.552 359.506 275.6 353.841 270.064C358.776 269.371 360.32 269.273 363.206 269.347L360.366 249.141C357.713 249.873 355.615 250.288 349.154 251.196L347.982 242.852L350.449 242.505C356.441 241.663 358.455 241.5 362.164 241.458L359.291 221.013C355.832 221.978 353.969 222.36 347.741 223.235L345.273 223.582L344.184 215.827C347.493 215.429 350.82 215.202 354.153 215.145L351.279 194.7C346.359 195.936 341.37 196.878 336.338 197.518L283.814 204.9C285.483 201.43 286.512 199.369 286.883 198.598L264.076 198.328C261.676 205.975 254.879 214.718 244.386 223.621C249.486 227.208 254.231 231.276 258.554 235.769C253.72 236.329 252.663 236.478 249.426 236.453L252.299 256.898C255.876 255.916 257.739 255.535 263.85 254.676L267.377 254.18ZM266.901 234.596L260.907 235.439C263.648 232.777 264.287 232.208 266.255 230.017L266.901 234.596ZM287.115 259.914L285.942 251.571L288.997 251.142L290.17 259.484L287.115 259.914ZM283.234 232.301L282.144 224.546L285.199 224.117L286.289 231.872L283.234 232.301ZM325.972 218.386L327.062 226.141L324.007 226.571L322.917 218.816L325.972 218.386ZM329.77 245.412L330.942 253.754L327.888 254.183L326.715 245.841L329.77 245.412ZM305.763 221.226L306.852 228.982L303.798 229.411L302.708 221.656L305.763 221.226ZM309.561 248.252L310.733 256.594L307.678 257.024L306.506 248.681L309.561 248.252ZM339.632 299.383C336.749 290.802 334.045 284.352 329.235 274.005L310.174 280.757C313.625 289.131 316.476 297.74 318.707 306.518L339.632 299.383ZM312.112 306.486C310.707 297.338 309.195 290.842 305.682 278.633L286.643 282.986C288.254 290.189 288.867 293.697 289.643 299.22C290.254 303.567 290.434 305.699 290.791 310.801L312.112 306.486ZM370.976 188.218C371.863 191.389 372.518 194.621 372.934 197.888C373.793 203.998 375.456 217.543 376.411 226.037C379.077 249.267 379.077 249.267 379.638 253.262C381.537 266.773 384.088 273.845 389.144 279.126C396.76 287.279 408.701 290.396 423.859 288.266C441.601 285.772 454.356 277.629 462.123 263.837C466.622 255.776 469.011 245.495 470.188 229.992C459.557 226.816 455.6 225.095 444.287 218.774C444.834 229.482 444.192 238.558 442.332 244.93C439.135 256.284 431.921 262.929 421.346 264.415C414.061 265.439 408.847 263.296 406.712 258.324C405.509 255.737 404.812 252.48 403.491 243.08C400.931 224.868 397.967 192.693 398.085 185.007L370.976 188.218ZM566.845 214.37C563.606 208.355 560.942 204.775 556.39 199.664L544.579 205.994C548.469 210.834 551.853 216.06 554.679 221.589L566.845 214.37ZM581.277 206.231C577.316 199.359 576.881 198.821 571.056 192.331L558.98 198.459C563.005 202.979 566.481 207.961 569.334 213.3L581.277 206.231ZM471.241 209.354C475.91 207.619 477.872 207.103 486.671 204.908C490.717 203.86 500.355 201.667 515.683 198.195C510.99 203.168 508.717 206.603 506.27 212.219C502.811 220.015 501.772 227.11 502.912 235.217C505.141 251.08 513.978 261.101 530.126 266.021C538.628 268.541 548.797 269.268 563.749 268.243C565.296 268.06 566.859 268.041 568.411 268.187L567.868 241.303C566.412 241.693 564.931 241.981 563.435 242.166C555.563 243.272 545.83 243.082 540.85 241.745C533.873 239.85 530.375 236.27 529.499 230.04C528.31 221.581 532.93 211.825 541.641 203.891C548.989 197.346 560.545 191.768 569.594 190.496C570.848 190.297 572.117 190.199 573.387 190.203L568.678 165.222C567.233 165.809 565.723 166.222 564.181 166.453C544.641 169.799 503.645 177.355 491.172 179.829C479.42 182.32 474.283 183.281 470.993 183.744C469.936 183.892 468.408 184.107 466.397 184.27L471.241 209.354ZM616.633 221.631L638.135 218.609C644.44 217.637 650.794 217.024 657.169 216.773L653.618 191.51C648.178 192.874 643.628 193.753 634.816 194.992L613.314 198.014L611.051 181.917L637.959 178.135C644.263 177.163 650.618 176.55 656.992 176.299L653.276 149.86C647.836 151.224 643.287 152.103 634.357 153.358L596.875 158.626C586.653 160.063 583.715 160.475 578.143 160.899C579.658 166.557 580.454 170.519 581.676 179.214L590.593 242.664C591.799 251.242 592.192 255.74 592.178 261.613L622.611 257.336C621.163 252.148 620.267 247.481 618.963 238.198L616.633 221.631ZM701.452 246.257C703.563 240.808 705.25 236.616 708.351 229.711L716.363 211.69L729.148 226.788C735.608 234.387 737.784 237.075 740.226 240.808L777.356 235.59C771.612 230.525 767.861 226.859 763.358 222.1L730.732 187.745L749.119 152.33C752.221 146.263 755.001 141.319 758.317 135.94L722.244 141.01C721.025 145.974 719.539 149.897 715.323 159.117L710.483 169.863L703.002 160.969C696.542 153.369 693.581 149.352 691.342 145.353L655.034 150.456C659.84 154.813 664.996 159.959 668.646 163.76L696.083 192.735L674.174 234.637C671.527 239.68 668.632 244.64 664.319 251.479L701.452 246.257ZM50.4047 372.024C53.2651 376.175 55.6033 380.878 60.6788 392.267C56.849 394.004 56.849 394.004 52.5657 395.924C46.3841 398.83 44.9058 399.394 41.5648 400.346L51.8017 422.033C57.5189 418.489 63.4248 415.259 69.4932 412.357C80.5913 439.316 80.5913 439.316 84.9412 451.524C89.477 464.187 90.4937 467.159 91.3063 471.238L116.549 461.579C115.53 460.014 114.619 458.381 113.825 456.69C113.658 456.354 112.056 452.625 109.136 445.487C100.525 424.29 100.525 424.29 91.2443 402.589C104.933 396.83 113.28 393.98 119.508 393.105C126.675 392.097 130.933 394.255 131.643 399.307C132.485 405.3 127.575 409.585 118.175 410.906C113.123 411.616 108.794 411.506 100.105 410.21C104.347 419.08 105.731 422.959 107.823 432.73C114.334 433.014 119.704 432.858 123.934 432.264C133.686 430.893 142.253 427.053 147.937 421.461C154.58 415.016 157.875 405.207 156.521 395.572C155.332 387.112 152.06 380.861 146.664 376.587C140.08 371.522 131.914 369.674 121.573 371.127L118.753 371.524C117.023 357.508 117.023 357.508 116.98 353.8L92.322 357.385C93.5057 360.693 93.5057 360.693 96.4716 377.531C92.0072 378.997 88.9312 380.148 82.5992 382.836C75.5375 366.693 75.3707 366.358 74.0549 362.109L50.4047 372.024ZM173.157 407.373C177.375 404.983 179.743 403.931 187.939 400.862C200.568 396.091 209.786 393.478 217.424 392.404C228.234 390.885 234.151 393.768 235.192 401.171C237.074 414.567 220.368 425.301 191.228 429.396C197.601 438.086 199.523 441.531 202.792 450.297C204.639 449.798 204.639 449.798 208.216 448.816C218.743 446.139 222.521 444.888 229.493 441.632C250.524 431.846 260.897 416.13 258.321 397.8C257.297 390.515 254.525 384.435 250.14 379.659C242.774 371.587 231.974 368.912 216.346 371.108C206.594 372.479 196.083 375.274 179.625 380.939C170.136 384.19 170.136 384.19 165.604 385.187L173.157 407.373ZM266.423 370.181C271.092 368.446 273.054 367.931 281.853 365.735C285.899 364.687 295.536 362.494 310.865 359.022C306.172 363.995 303.899 367.43 301.452 373.046C297.993 380.842 296.954 387.937 298.094 396.044C300.323 411.907 309.16 421.928 325.292 426.731C333.81 429.368 343.979 430.095 358.931 429.072C360.475 428.918 362.026 428.86 363.577 428.899L363.051 402.133C361.595 402.522 360.114 402.81 358.618 402.995C350.746 404.102 341.013 403.912 336.033 402.575C329.057 400.679 325.558 397.1 324.666 390.752C323.493 382.41 328.097 372.537 336.824 364.72C344.155 358.058 355.712 352.48 364.76 351.208C366.019 350.998 367.297 350.939 368.57 351.033L363.861 326.052C362.416 326.639 360.906 327.052 359.364 327.283C339.824 330.629 298.828 338.185 286.355 340.659C274.603 343.15 269.466 344.111 266.176 344.574C265.119 344.722 263.591 344.937 261.58 345.1L266.423 370.181ZM389.703 342.791C391.886 342.125 395.596 341.244 402.967 339.969C408.222 338.991 409.967 338.625 422.156 335.834C411.435 349.922 389.353 371.837 379.337 378.157L395.099 397.392C398.351 393.566 401.845 389.953 405.561 386.575C415.167 378.491 426.835 373.241 439.257 371.415C451.477 369.698 459.507 373.123 460.547 380.525C461.224 385.342 459.487 389.181 455.538 391.773C453.348 388.126 451.775 386.311 449.195 384.157C443.148 379.495 434.846 377.547 426.269 378.752C412.051 380.75 402.195 390.763 403.731 401.69C404.154 404.657 405.245 407.489 406.922 409.973C408.6 412.456 410.82 414.526 413.414 416.026C419.43 419.614 429.546 420.828 440.708 419.26C452.928 417.542 464.164 413.087 471.797 406.862C481.699 398.881 485.968 388.336 484.251 376.116C482.996 367.185 479.101 360.785 472.113 356.254C464.875 351.64 456.136 349.992 445.913 351.429C441.566 352.04 438.795 352.789 433.774 354.573C438.552 349.348 441.983 345.631 443.85 343.571C448.612 338.232 449.773 337.107 451.741 334.914C459.445 326.642 459.445 326.642 462.455 324.184L449.083 309.164C446.867 310.434 445.034 311.051 439.444 312.196C427.826 314.787 414.732 317.107 404.157 318.593C398.007 319.53 391.81 320.121 385.594 320.363L389.703 342.791ZM436.02 401.225C435.189 401.499 434.335 401.699 433.468 401.823C428.888 402.467 425.616 401.369 425.285 399.019C425.054 397.374 426.299 396.001 428.062 395.753C431.469 395.274 434.385 397.261 436.02 401.225ZM555.694 402.737C568.221 398.94 574.974 395.834 581.365 390.982C595.098 380.425 601.784 362.351 599.043 342.844C597.672 333.091 594.904 325.333 590.371 318.661C580.672 304.207 561.977 297.369 540.357 300.407C522.495 302.918 507.862 311.325 498.804 324.462C491.129 335.486 488.093 348.853 490.058 362.836C493.344 386.218 507.457 400.531 524.613 398.12C532.838 396.964 538.821 392.648 543.438 384.57C549.978 392.758 552.539 396.472 555.697 402.738L555.694 402.737ZM554.302 321.215C557.69 321.243 560.985 322.33 563.726 324.324C569.438 328.314 573.299 335.32 574.455 343.545C575.925 354.003 572.882 363.896 566.272 370.577C561.865 375.03 555.011 378.27 545.475 380.33C547.736 375.099 549.901 367.486 551.565 358.026C553.826 345.966 554.468 336.889 554.302 321.216L554.302 321.215ZM530.349 324.701C530.6 336.436 529.389 348.157 526.745 359.594C524.762 368.499 522.992 372.103 520.524 372.45C517.234 372.912 513.706 367.417 512.682 360.132C510.519 344.741 518.374 329.021 530.349 324.702L530.349 324.701ZM642.732 360.43L646.381 386.397L674.109 382.5L670.46 356.532L642.732 360.43ZM642.646 317.186C642.336 313.276 642.424 311.346 643.436 309.167C644.684 306.116 647.323 304.427 651.436 303.849C657.193 303.04 661.014 305.499 661.674 310.199C662.169 313.724 660.653 316.574 656.635 319.534C651.559 323.483 651.559 323.483 650.384 324.486C647.752 326.68 645.642 329.432 644.207 332.544C642.015 337.405 641.552 341.784 642.625 349.421C642.87 350.71 642.974 352.021 642.935 353.332L668.433 349.748C668.088 348.486 667.827 347.201 667.653 345.904C666.827 340.029 668.21 337.078 673.606 332.845C682.465 325.969 683.525 324.981 685.998 322.117C690.322 317.076 691.811 311.475 690.721 303.72C689.978 298.432 688.176 294.132 685.431 290.802C678.503 282.43 665.424 278.876 649.68 281.088C634.757 283.186 623.348 289.821 617.671 299.726C614.285 305.474 613.251 310.053 613.516 318.762L642.646 317.186Z" fill="var(--fill-0, white)"/>
</g>
</svg>
