<svg preserveAspectRatio="none" width="100%" height="100%" overflow="visible" style="display: block;" viewBox="0 0 32 32" fill="none" xmlns="http://www.w3.org/2000/svg">
<g id="&#227;&#130;&#176;&#227;&#131;&#171;&#227;&#131;&#188;&#227;&#131;&#151; 120">
<path id="&#233;&#149;&#183;&#230;&#150;&#185;&#229;&#189;&#162; 90" d="M26 0H6C2.68629 0 0 2.68629 0 6V26C0 29.3137 2.68629 32 6 32H26C29.3137 32 32 29.3137 32 26V6C32 2.68629 29.3137 0 26 0Z" fill="var(--fill-0, white)"/>
<path id="Vector" d="M24.624 11.981C24.5222 11.5982 24.3216 11.2488 24.0421 10.968C23.7627 10.6871 23.4144 10.4847 23.032 10.381C20.6989 10.0994 18.3498 9.97217 16 10C13.6499 9.97147 11.3004 10.0981 8.967 10.379C8.58464 10.4827 8.23627 10.6851 7.95684 10.966C7.67742 11.2468 7.47676 11.5962 7.37499 11.979C6.87407 14.8641 6.87407 17.814 7.37499 20.699C7.47733 21.0789 7.67861 21.4248 7.95829 21.7015C8.23797 21.9782 8.58604 22.1758 8.967 22.274C11.3004 22.555 13.6499 22.6816 16 22.653C18.3501 22.6816 20.6996 22.555 23.033 22.274C23.4134 22.1752 23.7609 21.9775 24.0402 21.7011C24.3196 21.4247 24.521 21.0793 24.624 20.7C25.1249 17.815 25.1249 14.8661 24.624 11.981ZM14.161 19.016V13.665L18.861 16.341L14.161 19.016Z" fill="var(--fill-0, black)"/>
</g>
</svg>
