<svg preserveAspectRatio="none" width="100%" height="100%" overflow="visible" style="display: block;" viewBox="0 0 32 32" fill="none" xmlns="http://www.w3.org/2000/svg">
<g id="&#227;&#130;&#176;&#227;&#131;&#171;&#227;&#131;&#188;&#227;&#131;&#151; 119">
<path id="&#233;&#149;&#183;&#230;&#150;&#185;&#229;&#189;&#162; 89" d="M26 0H6C2.68629 0 1.71499e-08 2.68629 1.71499e-08 6V26C1.71499e-08 29.3137 2.68629 32 6 32H26C29.3137 32 32 29.3137 32 26V6C32 2.68629 29.3137 0 26 0Z" fill="var(--fill-0, white)"/>
<path id="&#233;&#149;&#183;&#230;&#150;&#185;&#229;&#189;&#162; 91" d="M28 16C28 9.37258 22.6274 4 16 4C9.37258 4 4 9.37258 4 16C4 22.6274 9.37258 28 16 28C22.6274 28 28 22.6274 28 16Z" fill="var(--fill-0, black)"/>
<path id="Vector" d="M16 0C12.8355 0 9.74207 0.938384 7.11088 2.69649C4.4797 4.45459 2.42894 6.95345 1.21793 9.87707C0.00693251 12.8007 -0.309921 16.0177 0.307443 19.1214C0.924806 22.2251 2.44866 25.0761 4.6863 27.3137C6.92394 29.5513 9.77487 31.0752 12.8786 31.6926C15.9823 32.3099 19.1993 31.9931 22.1229 30.7821C25.0466 29.5711 27.5454 27.5203 29.3035 24.8891C31.0616 22.2579 32 19.1645 32 16C32 11.7565 30.3143 7.68687 27.3137 4.68629C24.3131 1.68571 20.2435 0 16 0ZM23.419 10.884C23.18 13.413 22.135 19.555 21.606 22.384C21.38 23.584 20.941 23.984 20.516 24.023C19.587 24.107 18.884 23.41 17.981 22.817C16.575 21.894 15.775 21.317 14.413 20.417C12.832 19.378 13.858 18.804 14.755 17.869C14.994 17.624 19.084 13.901 19.161 13.569C19.1725 13.519 19.1715 13.4669 19.1581 13.4174C19.1447 13.3678 19.1192 13.3224 19.084 13.285C19.0353 13.2548 18.9803 13.2362 18.9232 13.2307C18.8662 13.2251 18.8086 13.2328 18.755 13.253C18.613 13.283 16.3637 14.769 12.007 17.711C11.51 18.1007 10.9031 18.3243 10.272 18.35C9.42278 18.2474 8.58763 18.0505 7.78201 17.763C6.78201 17.44 5.98201 17.263 6.05301 16.711C6.08767 16.423 6.48567 16.1283 7.24701 15.827C11.9097 13.797 15.0193 12.4573 16.576 11.808C21.021 9.963 21.944 9.64 22.544 9.627C22.7647 9.6242 22.9808 9.6895 23.163 9.814C23.2894 9.92493 23.3699 10.0789 23.389 10.246C23.4238 10.4571 23.4346 10.6715 23.421 10.885L23.419 10.884Z" fill="var(--fill-0, white)"/>
</g>
</svg>
