<svg width="140" height="31" viewBox="0 0 140 31" fill="none" xmlns="http://www.w3.org/2000/svg">
<g clip-path="url(#clip0_12_746)">
<path d="M4.10522 15.0936H6.76534V21.1429H6.92297L12.0856 15.0936H15.2974V15.2512L10.1939 21.0805L15.8294 29.0444V29.202H12.5782L8.38111 23.1922L6.76534 25.0641V29.202H4.10522V15.0936ZM17.2876 15.0936H19.9477V29.202H17.2876V15.0936ZM22.7884 15.0936H25.882L31.5537 24.5518H31.7113L31.5537 21.8325V15.0936H34.1941V29.202H31.396L25.4026 19.2118H25.2482L25.4058 21.9311V29.202H22.7851L22.7884 15.0936ZM43.534 21.4582H50.4503C50.4952 21.6475 50.5281 21.8394 50.5488 22.0329C50.5751 22.2552 50.5882 22.4789 50.5883 22.7028C50.5951 23.5736 50.4563 24.4394 50.1777 25.2644C49.9024 26.0649 49.459 26.7972 48.8772 27.4122C48.2413 28.0873 47.4688 28.6191 46.6112 28.9722C45.653 29.3547 44.628 29.5422 43.5964 29.5239C42.6038 29.528 41.6199 29.3384 40.6999 28.9656C39.8182 28.6139 39.0146 28.0916 38.3353 27.4286C37.6568 26.7618 37.1137 25.97 36.736 25.0969C36.3357 24.1669 36.1344 23.1635 36.1448 22.1511C36.1344 21.1387 36.3357 20.1353 36.736 19.2053C37.1124 18.3313 37.6543 17.5384 38.332 16.8703C39.0118 16.2046 39.8165 15.68 40.6999 15.3268C41.6203 14.9562 42.6042 14.7688 43.5964 14.775C44.6478 14.757 45.6913 14.9584 46.6605 15.3662C47.5377 15.7442 48.3263 16.3013 48.9758 17.0016L47.1432 18.7948C46.7086 18.3268 46.1864 17.9486 45.6063 17.6815C44.9639 17.4098 44.2707 17.2787 43.5734 17.2972C42.9462 17.2941 42.3241 17.4112 41.7409 17.642C41.1757 17.8638 40.6601 18.1953 40.2237 18.6174C39.7803 19.0523 39.4286 19.5715 39.1892 20.1445C38.926 20.778 38.7952 21.4586 38.8049 22.1445C38.7952 22.8304 38.926 23.5111 39.1892 24.1445C39.4296 24.7194 39.785 25.2391 40.2335 25.6716C40.6745 26.0926 41.1932 26.4239 41.7606 26.647C42.3504 26.8791 42.9791 26.9962 43.6128 26.9919C44.2621 27.0086 44.9083 26.8969 45.5143 26.6634C46.0038 26.4653 46.4542 26.1818 46.8444 25.826C47.122 25.5707 47.3521 25.2683 47.5242 24.9327C47.7229 24.5493 47.8718 24.142 47.9675 23.7209H43.534V21.4582Z" fill="black"/>
<path d="M56.6718 28.6408H56.5643C56.353 28.8963 56.1005 29.1147 55.8172 29.2869C55.4748 29.4792 55.0856 29.5725 54.6932 29.5562C54.3652 29.5597 54.0392 29.5041 53.7309 29.392C53.4422 29.2867 53.1753 29.1292 52.9436 28.9273C52.7186 28.7294 52.539 28.4852 52.4173 28.2114C52.2894 27.9233 52.225 27.6111 52.2285 27.2959C52.2241 26.977 52.2938 26.6614 52.4321 26.3739C52.5669 26.0999 52.76 25.8586 52.9978 25.667C53.2513 25.4637 53.5414 25.3107 53.8525 25.2163C54.1982 25.1104 54.5582 25.0581 54.9198 25.0611C55.2783 25.0534 55.6364 25.0873 55.9871 25.1621C56.2205 25.2156 56.4498 25.2853 56.6735 25.3706V25.1687C56.676 25.0016 56.6397 24.8362 56.5673 24.6855C56.4949 24.5349 56.3885 24.4032 56.2564 24.3008C55.9618 24.0674 55.5935 23.9468 55.2178 23.9609C54.9181 23.9602 54.6223 24.0291 54.3537 24.1622C54.0852 24.2953 53.8512 24.4889 53.6702 24.7278L52.3919 23.8501C52.7312 23.419 53.1681 23.0746 53.6665 22.8452C54.1649 22.6158 54.7107 22.508 55.2589 22.5307C56.1016 22.4724 56.936 22.729 57.6004 23.2507C57.8823 23.5264 58.1006 23.8602 58.2401 24.2289C58.3796 24.5975 58.437 24.9922 58.4083 25.3854V29.3427H56.6718V28.6408ZM56.6718 26.6621C56.4658 26.5628 56.2508 26.483 56.0298 26.424C55.7952 26.3658 55.554 26.3382 55.3122 26.3419C54.9649 26.3195 54.6203 26.4169 54.336 26.6178C54.2294 26.6961 54.1428 26.7985 54.0831 26.9166C54.0235 27.0347 53.9926 27.1653 53.9928 27.2976C53.9897 27.4241 54.0181 27.5493 54.0754 27.6621C54.1327 27.7749 54.2172 27.8717 54.3213 27.9437C54.5409 28.1068 54.808 28.1933 55.0815 28.19C55.3034 28.1922 55.5234 28.1486 55.7277 28.0619C55.9159 27.9829 56.0872 27.8686 56.2326 27.7253C56.3712 27.5868 56.4809 27.4222 56.5553 27.2409C56.6326 27.058 56.6722 26.8615 56.6718 26.6629V26.6621ZM61.4633 23.6071H61.5709C61.7757 23.2765 62.0632 23.0051 62.405 22.8197C62.773 22.6225 63.1855 22.523 63.6029 22.5307C63.9763 22.5232 64.3473 22.592 64.6932 22.7327C64.9944 22.8581 65.2602 23.0555 65.4675 23.3074C65.6775 23.5701 65.833 23.8721 65.9248 24.1957C66.0319 24.5693 66.0842 24.9565 66.0799 25.3452V29.3427H64.3164V25.5603C64.3472 25.1809 64.2344 24.8038 64.0003 24.5036C63.8799 24.3841 63.7354 24.2916 63.5764 24.2324C63.4174 24.1732 63.2475 24.1487 63.0783 24.1604C62.8552 24.1558 62.6348 24.2092 62.4387 24.3156C62.2538 24.4196 62.0931 24.5618 61.9674 24.7327C61.8317 24.9192 61.7312 25.129 61.6711 25.3517C61.6024 25.5993 61.5685 25.8551 61.5701 26.112V29.3419H59.8065V22.7466H61.4617L61.4633 23.6071ZM72.4462 28.5472H72.3386C72.1545 28.8471 71.8945 29.0932 71.5849 29.2606C71.1968 29.4697 70.7602 29.5719 70.3197 29.557C69.9039 29.5582 69.4928 29.4685 69.1153 29.2943C68.7346 29.12 68.3916 28.8732 68.1054 28.5677C67.8057 28.2453 67.5705 27.8685 67.4125 27.4577C67.2385 27.0071 67.1518 26.5276 67.1571 26.0447C67.1518 25.5618 67.2385 25.0822 67.4125 24.6317C67.5705 24.2209 67.8057 23.8441 68.1054 23.5217C68.3916 23.2162 68.7346 22.9693 69.1153 22.7951C69.4928 22.6208 69.9039 22.5312 70.3197 22.5323C70.7602 22.5174 71.1968 22.6197 71.5849 22.8287C71.8945 22.9961 72.1545 23.2422 72.3386 23.5422H72.4462L72.3386 22.5997V19.7056H74.1022V29.3419H72.4462V28.5472ZM70.6826 27.9281C70.9107 27.929 71.1369 27.8855 71.3484 27.8C71.5577 27.7157 71.7477 27.5897 71.9067 27.4298C72.0739 27.2596 72.2063 27.0585 72.2967 26.8378C72.3989 26.5858 72.4492 26.3158 72.4445 26.0439C72.4492 25.772 72.3989 25.5019 72.2967 25.2499C72.2063 25.0292 72.0739 24.8282 71.9067 24.658C71.7477 24.498 71.5577 24.372 71.3484 24.2877C71.1369 24.2023 70.9107 24.1588 70.6826 24.1596C70.4538 24.1588 70.2272 24.2046 70.0168 24.2943C69.8081 24.3826 69.6185 24.5106 69.4585 24.6711C69.2913 24.8413 69.1589 25.0423 69.0685 25.2631C68.9671 25.5107 68.9168 25.7763 68.9207 26.0439C68.9168 26.3114 68.9671 26.577 69.0685 26.8247C69.1589 27.0454 69.2913 27.2464 69.4585 27.4166C69.6185 27.5771 69.8081 27.7051 70.0168 27.7935C70.2272 27.8831 70.4538 27.9289 70.6826 27.9281Z" fill="url(#paint0_linear_12_746)"/>
<path d="M86.1673 29.2414C85.6971 29.4418 85.2088 29.5968 84.7092 29.7044C84.1846 29.8163 83.6495 29.8714 83.1131 29.8686C82.1093 29.8789 81.1139 29.6857 80.187 29.3005C79.3131 28.937 78.5197 28.4047 77.852 27.734C77.1885 27.0606 76.6631 26.2641 76.3052 25.3891C75.9277 24.4739 75.7368 23.4924 75.7436 22.5024C75.7368 21.5124 75.9277 20.531 76.3052 19.6157C76.6631 18.7408 77.1885 17.9443 77.852 17.2709C78.5197 16.6002 79.3131 16.0678 80.187 15.7044C81.1135 15.317 82.1089 15.1214 83.1131 15.1296C84.1173 15.1214 85.1127 15.317 86.0392 15.7044C86.913 16.0678 87.7065 16.6002 88.3742 17.2709C89.0376 17.9443 89.5631 18.7408 89.921 19.6157C90.2984 20.531 90.4893 21.5124 90.4826 22.5024C90.4928 23.5441 90.2859 24.5764 89.875 25.5336C89.4811 26.4478 88.8966 27.2673 88.1607 27.9376L89.2412 29.5567L87.2707 30.8769L86.1673 29.2414ZM83.1722 24.7487L85.1427 23.4088L86.6796 25.734C87.0428 25.3123 87.3265 24.8283 87.517 24.3054C87.7267 23.7266 87.8302 23.1147 87.8225 22.4991C87.83 21.8238 87.7062 21.1535 87.4579 20.5254C87.2314 19.9527 86.8893 19.4329 86.453 18.9983C86.0226 18.5757 85.5139 18.241 84.9555 18.0131C84.3713 17.7718 83.7451 17.649 83.1131 17.6518C82.4815 17.6469 81.8553 17.7675 81.2707 18.0065C80.7122 18.2344 80.2036 18.5691 79.7732 18.9917C79.3361 19.4282 78.9939 19.9504 78.7682 20.5254C78.5191 21.1555 78.3953 21.8282 78.4037 22.5057C78.3957 23.1821 78.5195 23.8536 78.7682 24.4827C78.9957 25.0557 79.3389 25.5756 79.7764 26.0098C80.2059 26.4321 80.7134 26.7668 81.2707 26.9951C81.8553 27.2341 82.4815 27.3547 83.1131 27.3497C83.391 27.3497 83.6682 27.3222 83.9407 27.2676C84.2021 27.2155 84.459 27.143 84.7092 27.0509L83.1722 24.7487ZM97.793 29.8719C97.0232 29.8818 96.2585 29.7447 95.5401 29.468C94.8841 29.2127 94.2945 28.8118 93.8159 28.2956C93.3257 27.7568 92.9492 27.1245 92.7092 26.4368C92.4346 25.6349 92.3013 24.7916 92.3151 23.9441V15.4482H94.9752V24.0985C94.9707 24.5383 95.0304 24.9764 95.1526 25.399C95.2601 25.7725 95.4409 26.1208 95.6846 26.4236C95.9242 26.7152 96.2276 26.9478 96.5713 27.1034C96.9556 27.2738 97.3726 27.3579 97.793 27.3497C98.2198 27.3591 98.6435 27.2751 99.0344 27.1034C99.3781 26.9478 99.6815 26.7152 99.9211 26.4236C100.165 26.1208 100.346 25.7725 100.453 25.399C100.575 24.9764 100.635 24.5383 100.63 24.0985V15.4482H103.291V23.9409C103.3 24.7614 103.17 25.5777 102.906 26.3547C102.671 27.048 102.296 27.6853 101.803 28.2266C101.318 28.7494 100.727 29.1626 100.069 29.4384C99.3476 29.7361 98.5732 29.8837 97.793 29.8719ZM108.473 17.9671V21.2381H114.128V23.7602H108.473V27.0312H114.759V29.5567H105.809V15.4482H114.759V17.9704L108.473 17.9671ZM119.862 17.9671V21.2381H125.517V23.7602H119.862V27.0312H126.148V29.5567H117.199V15.4482H126.148V17.9704L119.862 17.9671ZM128.591 15.4449H131.685L137.36 24.9031H137.517L137.36 22.1839V15.4449H140V29.5567H137.202L131.209 19.5665H131.051L131.209 22.2857V29.5567H128.591V15.4449Z" fill="#CC151A"/>
<mask id="mask0_12_746" style="mask-type:luminance" maskUnits="userSpaceOnUse" x="0" y="0" width="20" height="14">
<path d="M19.7087 0H0V13.1265H19.7087V0Z" fill="white"/>
</mask>
<g mask="url(#mask0_12_746)">
<path d="M3.9795 10.2694H15.73C16.6336 8.48281 17.6219 6.73129 18.6947 5.01481C19.0231 4.49866 19.3608 3.98607 19.7078 3.47703C19.3126 3.64507 18.9224 3.81885 18.5371 3.99838C18.5453 4.31037 18.551 4.62154 18.5559 4.93353C17.6601 5.38046 16.7022 5.69043 15.7144 5.85307C15.1942 5.12608 14.7899 4.3229 14.5157 3.47211C14.7448 3.18967 14.9755 2.90888 15.2111 2.63056C15.0195 2.25562 14.823 1.88178 14.6216 1.50904C14.3534 1.82869 14.0901 2.15081 13.8318 2.47538C14.014 2.8079 14.1906 3.14205 14.3646 3.47703C13.9413 4.2039 13.4044 4.85832 12.7743 5.41547C11.6544 4.76926 10.741 3.8183 10.1405 2.67325C10.3868 2.30543 10.6331 1.93433 10.8917 1.57472C10.5529 1.04489 10.2029 0.519981 9.8416 0C9.4809 0.519981 9.13114 1.04434 8.79233 1.57308C9.06081 1.95321 9.32189 2.33663 9.57805 2.72251C9.05509 3.85112 8.21679 4.80433 7.16425 5.46719C6.48999 4.88427 5.9207 4.19002 5.48115 3.41463C5.65274 3.08623 5.82762 2.75782 6.00742 2.42941C5.74962 2.10373 5.48717 1.7808 5.22006 1.4606C5.01754 1.83225 4.81995 2.20527 4.62729 2.57965C4.8725 2.8703 5.11333 3.1634 5.34978 3.45897C5.06102 4.3427 4.63218 5.17431 4.07966 5.92204C3.06059 5.73087 2.07394 5.39554 1.14943 4.92614C1.15518 4.61579 1.16093 4.30627 1.16832 3.99592C0.784624 3.81858 0.395186 3.64562 0 3.47703C0.391902 4.05339 0.775046 4.6344 1.14943 5.22006C2.17188 6.87032 3.1166 8.55342 3.9836 10.2694M13.3301 7.37935C13.0263 7.62566 12.7275 7.881 12.4344 8.13552C12.5088 7.74964 12.5844 7.36403 12.661 6.97869C12.9073 6.77262 13.1536 6.56818 13.4048 6.3695C13.4541 6.3695 13.5017 6.37771 13.5485 6.38345L13.3301 7.37935ZM16.4443 7.79972C16.123 8.01866 15.8066 8.24499 15.4952 8.4787C15.5961 8.10021 15.7012 7.72254 15.8055 7.34405C16.1249 7.11581 16.4492 6.89167 16.7801 6.67327C16.6659 7.04848 16.5551 7.42369 16.4443 7.79972ZM6.37853 7.37935L6.15767 6.38427C6.20529 6.37771 6.25291 6.3736 6.30135 6.37032C6.55258 6.56983 6.79971 6.77344 7.0452 6.97952C7.12128 7.36266 7.19681 7.74827 7.2718 8.13634C6.97869 7.88182 6.67984 7.62812 6.37606 7.38018M9.85227 5.1864C10.0783 5.80655 10.2945 6.42834 10.5009 7.05177C10.2748 7.66918 10.0586 8.28741 9.85227 8.90646C9.64647 8.28631 9.43082 7.66808 9.20531 7.05177C9.4133 6.42834 9.62896 5.80655 9.85227 5.1864ZM3.93352 7.55341L4.24223 8.68806C3.93188 8.459 3.61578 8.23075 3.29559 8.00908C3.18639 7.63223 3.07391 7.25784 2.96143 6.88099C3.28984 7.10103 3.61414 7.32599 3.93352 7.55341Z" fill="black"/>
<path d="M15.6536 11.3467H4.05585C4.04582 11.3467 4.03589 11.3487 4.02662 11.3525C4.01736 11.3563 4.00894 11.362 4.00185 11.3691C3.99476 11.3761 3.98914 11.3845 3.98531 11.3938C3.98147 11.4031 3.97949 11.413 3.97949 11.423V13.0495C3.97949 13.0697 3.98753 13.0892 4.00185 13.1035C4.01617 13.1178 4.0356 13.1258 4.05585 13.1258H15.6536C15.6739 13.1258 15.6933 13.1178 15.7076 13.1035C15.7219 13.0892 15.73 13.0697 15.73 13.0495V11.423C15.73 11.413 15.728 11.4031 15.7242 11.3938C15.7203 11.3845 15.7147 11.3761 15.7076 11.3691C15.7005 11.362 15.6921 11.3563 15.6828 11.3525C15.6736 11.3487 15.6636 11.3467 15.6536 11.3467Z" fill="black"/>
</g>
<mask id="mask1_12_746" style="mask-type:luminance" maskUnits="userSpaceOnUse" x="77" y="1" width="13" height="13">
<path d="M89.539 1.56738H77.1169V13.1364H89.539V1.56738Z" fill="white"/>
</mask>
<g mask="url(#mask1_12_746)">
<path d="M87.8805 9.84835L87.9166 9.81141C90.2319 7.54128 89.5143 6.29086 89.0956 5.85572C88.8526 5.61876 88.5608 5.43761 88.2407 5.32489C87.9205 5.21216 87.5796 5.17057 87.2417 5.20301C87.1775 5.21046 87.1139 5.22226 87.0513 5.23831C86.9627 4.89646 86.7599 4.59516 86.4765 4.38445C85.7116 3.9453 84.8123 3.80159 83.9486 3.9805C83.9551 3.97159 83.9591 3.9611 83.9601 3.95012C83.9601 3.90251 83.8961 3.85817 83.7902 3.82451C83.8807 3.77594 83.9769 3.73897 84.0767 3.71449C84.2556 3.66767 84.4439 3.67108 84.621 3.72434C84.6113 3.65644 84.5871 3.59144 84.5499 3.5338C84.5127 3.47616 84.4635 3.42726 84.4056 3.39044C84.3477 3.35363 84.2825 3.32977 84.2146 3.32051C84.1466 3.31126 84.0775 3.31682 84.0118 3.33682C83.8806 3.34757 83.7546 3.39269 83.6463 3.46763C83.5381 3.54258 83.4515 3.64471 83.3952 3.76375H83.3263C83.511 3.41153 83.9634 3.3204 84.0751 2.93534C84.1867 2.55028 83.8911 2.22844 83.3082 1.5708C82.7253 2.22762 82.4355 2.55603 82.5463 2.93862C82.6571 3.32122 83.121 3.41318 83.3025 3.76539H83.2278C83.1709 3.64674 83.0839 3.54513 82.9754 3.47076C82.8669 3.3964 82.7407 3.3519 82.6095 3.34175C82.5439 3.32189 82.4748 3.31646 82.4068 3.32583C82.3389 3.3352 82.2738 3.35915 82.2161 3.39604C82.1583 3.43293 82.1091 3.48189 82.072 3.53955C82.0349 3.59721 82.0108 3.66221 82.0012 3.73009C82.1783 3.67691 82.3666 3.6735 82.5455 3.72024C82.6452 3.74444 82.7415 3.78113 82.832 3.82943C82.7261 3.8631 82.6604 3.91154 82.6621 3.95505C82.6633 3.96382 82.6663 3.97223 82.6711 3.97968C81.8193 3.80924 80.9345 3.95519 80.1826 4.39019C79.8992 4.60091 79.6964 4.9022 79.6079 5.24406C79.5448 5.22626 79.4806 5.21282 79.4158 5.20383C79.0777 5.17098 78.7365 5.2123 78.416 5.32489C78.0955 5.43748 77.8035 5.61864 77.5602 5.85572C77.1415 6.29004 76.4248 7.54128 78.7392 9.81059L78.7754 9.84753C78.9436 10.0272 79.1271 10.192 79.3238 10.3401C79.0233 10.3886 78.7228 10.4395 78.4207 10.4986L78.497 10.8845H88.1564L88.2327 10.4986C87.9339 10.4395 87.6334 10.3878 87.3296 10.3401C87.5262 10.192 87.7097 10.0272 87.878 9.84753M87.3181 5.84915C87.5544 5.82856 87.7925 5.85814 88.0166 5.93596C88.2407 6.01378 88.4459 6.13808 88.6186 6.30071L88.6235 6.30564C89.2229 6.92469 88.7976 8.02979 87.4568 9.34342L87.4158 9.3853C87.25 9.58895 87.0465 9.75872 86.8165 9.8853C86.6752 9.85738 86.3723 9.82372 85.6301 9.75722L85.0874 9.71042C86.13 8.71468 86.8348 7.41759 87.103 6.00104V5.9994C87.103 5.96902 87.1071 5.93946 87.1087 5.90991C87.175 5.87608 87.2472 5.85545 87.3214 5.84915M86.0849 4.9099C86.2344 5.02998 86.348 5.18883 86.4133 5.3691C86.4786 5.54937 86.4931 5.74412 86.4552 5.93207C86.1501 7.36998 85.3814 8.66796 84.2672 9.62668L84.2278 9.67183H84.0824C84.1645 9.57003 84.2508 9.4674 84.3378 9.36559C85.155 8.44327 85.6591 7.28586 85.7779 6.05933C85.7499 5.00186 84.0381 5.47641 84.048 5.49036C84.0146 6.88118 83.9812 8.27144 83.9478 9.66116C83.8526 9.66116 83.7573 9.65541 83.6621 9.65459V4.69069C84.4696 4.47401 85.3278 4.55172 86.0833 4.9099M80.5701 4.9099C81.3255 4.55165 82.1838 4.47394 82.9913 4.69069V9.65459C82.8977 9.65459 82.8041 9.6587 82.7105 9.66116L82.6128 5.44603C82.6235 5.43207 80.9084 4.95342 80.8805 6.015C81.0013 7.23862 81.5059 8.39271 82.3222 9.31223C82.4215 9.42881 82.5184 9.54622 82.6153 9.66362L82.4281 9.67183L82.3887 9.63325C81.2744 8.67453 80.5058 7.37654 80.2006 5.93864C80.1616 5.74962 80.1755 5.55347 80.241 5.37191C80.3065 5.19034 80.421 5.03044 80.5718 4.9099M79.2006 9.35163C77.8558 8.03389 77.4305 6.92551 78.0299 6.30564H78.0348C78.207 6.14249 78.4117 6.01756 78.6355 5.93903C78.8594 5.86051 79.0973 5.83016 79.3336 5.84997C79.4078 5.85627 79.48 5.8769 79.5463 5.91073C79.5463 5.94028 79.5463 5.96984 79.552 6.00022V6.00925C79.8202 7.4258 80.525 8.72289 81.5677 9.71863L81.025 9.76543C80.2819 9.83193 79.979 9.86559 79.8378 9.89351C79.6077 9.7669 79.4042 9.59713 79.2384 9.39351L79.2006 9.35163Z" fill="#CC151A"/>
<path d="M80.0037 9.4232C80.233 9.39364 80.4626 9.36627 80.6925 9.34109C80.7327 9.31974 78.7344 7.74092 79.0045 6.03319C79.0341 5.83697 77.8157 6.33615 78.4856 7.54223C78.8736 8.25498 79.388 8.89123 80.0037 9.41991" fill="#CC151A"/>
<path d="M86.5661 9.48478C87.2107 8.94592 87.7514 8.2937 88.1613 7.56031C88.8321 6.3534 87.5817 5.85832 87.6424 6.05126C87.9848 7.13583 85.8263 9.38462 85.8789 9.40761C86.1082 9.43005 86.3373 9.45632 86.5661 9.48478Z" fill="#CC151A"/>
<path d="M88.0792 11.7373H78.5759C78.5556 11.7373 78.5362 11.7453 78.5219 11.7597C78.5076 11.774 78.4995 11.7934 78.4995 11.8136V13.0624C78.4995 13.0827 78.5076 13.1021 78.5219 13.1164C78.5362 13.1307 78.5556 13.1388 78.5759 13.1388H88.0792C88.0995 13.1388 88.1189 13.1307 88.1332 13.1164C88.1475 13.1021 88.1556 13.0827 88.1556 13.0624V11.8136C88.1556 11.7934 88.1475 11.774 88.1332 11.7597C88.1189 11.7453 88.0995 11.7373 88.0792 11.7373Z" fill="#CC151A"/>
</g>
</g>
<defs>
<linearGradient id="paint0_linear_12_746" x1="52.2283" y1="27.4795" x2="74.0952" y2="27.0426" gradientUnits="userSpaceOnUse">
<stop/>
<stop offset="1" stop-color="#CC151A"/>
</linearGradient>
<clipPath id="clip0_12_746">
<rect width="140" height="30.877" fill="white"/>
</clipPath>
</defs>
</svg>
