<svg width="159" height="35" viewBox="0 0 159 35" fill="none" xmlns="http://www.w3.org/2000/svg">
<g clip-path="url(#clip0_12_678)">
<path d="M4.65332 17.1089H7.66864V23.966H7.84732L13.6993 17.1089H17.34V17.2876L11.555 23.8953L17.943 32.9226V33.1013H14.2577L9.50016 26.2889L7.66864 28.4108V33.1013H4.65332V17.1089ZM19.5959 17.1089H22.6112V33.1013H19.5959V17.1089ZM25.8313 17.1089H29.338L35.7669 27.8301H35.9456L35.7669 24.7477V17.1089H38.7599V33.1013H35.5882L28.7945 21.7771H28.6195L28.7982 24.8594V33.1013H25.8275L25.8313 17.1089ZM49.347 24.3234H57.1868C57.2377 24.5379 57.275 24.7555 57.2985 24.9748C57.3282 25.2269 57.3431 25.4804 57.3432 25.7342C57.3509 26.7213 57.1936 27.7027 56.8778 28.6379C56.5657 29.5452 56.0631 30.3754 55.4037 31.0725C54.6829 31.8377 53.8072 32.4405 52.8351 32.8407C51.7489 33.2743 50.5871 33.4869 49.4177 33.4661C48.2925 33.4708 47.1772 33.2558 46.1344 32.8332C45.135 32.4346 44.2242 31.8425 43.4541 31.0911C42.685 30.3352 42.0694 29.4377 41.6412 28.448C41.1875 27.3938 40.9593 26.2564 40.9711 25.1088C40.9593 23.9612 41.1875 22.8238 41.6412 21.7696C42.0679 20.7789 42.6822 19.8801 43.4504 19.1229C44.2209 18.3683 45.1331 17.7737 46.1344 17.3732C47.1777 16.9532 48.293 16.7408 49.4177 16.7478C50.6094 16.7274 51.7923 16.9557 52.8909 17.4179C53.8852 17.8464 54.7791 18.4779 55.5154 19.2718L53.4382 21.3043C52.9454 20.7739 52.3535 20.3452 51.696 20.0424C50.9678 19.7344 50.1821 19.5859 49.3917 19.6068C48.6807 19.6033 47.9756 19.736 47.3145 19.9977C46.6738 20.249 46.0893 20.6248 45.5946 21.1033C45.0921 21.5962 44.6933 22.1848 44.422 22.8343C44.1237 23.5524 43.9755 24.3239 43.9864 25.1014C43.9755 25.8789 44.1237 26.6504 44.422 27.3685C44.6946 28.0201 45.0974 28.6091 45.6058 29.0995C46.1057 29.5767 46.6936 29.9522 47.3368 30.2051C48.0053 30.4682 48.718 30.6008 49.4363 30.596C50.1723 30.6149 50.9048 30.4884 51.5917 30.2237C52.1466 29.9991 52.6571 29.6777 53.0994 29.2744C53.414 28.9851 53.6749 28.6422 53.87 28.2619C54.0952 27.8272 54.264 27.3656 54.3725 26.8882H49.347V24.3234Z" fill="white"/>
<path d="M64.2393 32.4647H64.1174C63.8779 32.7544 63.5916 33.0019 63.2705 33.1971C62.8824 33.4152 62.4412 33.5209 61.9964 33.5024C61.6246 33.5064 61.2552 33.4433 60.9057 33.3163C60.5784 33.197 60.2759 33.0184 60.0132 32.7895C59.7582 32.5652 59.5547 32.2884 59.4167 31.978C59.2717 31.6514 59.1987 31.2976 59.2026 30.9403C59.1976 30.5788 59.2766 30.221 59.4334 29.8952C59.5863 29.5846 59.8051 29.3111 60.0746 29.0939C60.3621 28.8634 60.6909 28.69 61.0434 28.583C61.4354 28.463 61.8434 28.4036 62.2533 28.4071C62.6596 28.3983 63.0656 28.4368 63.4631 28.5215C63.7277 28.5822 63.9876 28.6612 64.2412 28.7579V28.529C64.2441 28.3396 64.2029 28.1521 64.1208 27.9814C64.0388 27.8106 63.9181 27.6613 63.7684 27.5453C63.4344 27.2807 63.0169 27.144 62.5911 27.16C62.2514 27.1592 61.9161 27.2373 61.6117 27.3881C61.3073 27.539 61.042 27.7584 60.8368 28.0292L59.3878 27.0344C59.7725 26.5457 60.2677 26.1553 60.8327 25.8953C61.3976 25.6353 62.0163 25.5131 62.6377 25.5388C63.5929 25.4728 64.5388 25.7636 65.2919 26.355C65.6114 26.6674 65.8588 27.0458 66.017 27.4637C66.1752 27.8816 66.2402 28.329 66.2076 28.7747V33.2604H64.2393V32.4647ZM64.2393 30.2218C64.0057 30.1093 63.7621 30.0189 63.5115 29.952C63.2456 29.886 62.9722 29.8547 62.6981 29.8589C62.3044 29.8335 61.9138 29.9439 61.5916 30.1716C61.4707 30.2604 61.3725 30.3765 61.3049 30.5104C61.2374 30.6443 61.2023 30.7922 61.2026 30.9422C61.199 31.0856 61.2312 31.2276 61.2962 31.3554C61.3611 31.4833 61.4569 31.593 61.5748 31.6746C61.8238 31.8594 62.1266 31.9575 62.4366 31.9538C62.6882 31.9563 62.9375 31.9069 63.1691 31.8086C63.3824 31.719 63.5767 31.5895 63.7414 31.427C63.8985 31.2701 64.0228 31.0834 64.1072 30.878C64.1948 30.6707 64.2397 30.4478 64.2393 30.2228V30.2218ZM69.6706 26.7589H69.7925C70.0247 26.3842 70.3506 26.0766 70.7381 25.8664C71.1552 25.6428 71.6227 25.53 72.0959 25.5388C72.5191 25.5303 72.9397 25.6082 73.3318 25.7677C73.6732 25.9099 73.9745 26.1336 74.2094 26.4192C74.4475 26.717 74.6237 27.0594 74.7278 27.4262C74.8492 27.8497 74.9085 28.2885 74.9037 28.7291V33.2604H72.9046V28.9729C72.9396 28.5429 72.8117 28.1154 72.5463 27.7752C72.4099 27.6396 72.246 27.5348 72.0658 27.4677C71.8855 27.4006 71.6931 27.3728 71.5012 27.3861C71.2484 27.3808 70.9985 27.4415 70.7762 27.562C70.5666 27.6799 70.3845 27.8411 70.242 28.0348C70.0881 28.2462 69.9742 28.4841 69.9061 28.7365C69.8283 29.0171 69.7898 29.3071 69.7916 29.5983V33.2595H67.7925V25.7836H69.6687L69.6706 26.7589ZM82.1199 32.3586H81.998C81.7893 32.6987 81.4946 32.9776 81.1437 33.1674C80.7038 33.4043 80.2089 33.5202 79.7096 33.5033C79.2382 33.5047 78.7723 33.403 78.3443 33.2055C77.9128 33.008 77.524 32.7282 77.1996 32.3819C76.8598 32.0165 76.5932 31.5894 76.4141 31.1237C76.2169 30.613 76.1187 30.0694 76.1247 29.522C76.1187 28.9746 76.2169 28.431 76.4141 27.9203C76.5932 27.4546 76.8598 27.0275 77.1996 26.6621C77.524 26.3158 77.9128 26.036 78.3443 25.8385C78.7723 25.641 79.2382 25.5393 79.7096 25.5407C80.2089 25.5238 80.7038 25.6397 81.1437 25.8766C81.4946 26.0664 81.7893 26.3453 81.998 26.6854H82.1199L81.998 25.617V22.3364H83.9971V33.2595H82.1199V32.3586ZM80.1209 31.6569C80.3795 31.6579 80.6359 31.6086 80.8757 31.5117C81.1129 31.4162 81.3282 31.2734 81.5085 31.092C81.698 30.8991 81.8481 30.6712 81.9506 30.421C82.0664 30.1354 82.1233 29.8293 82.1181 29.5211C82.1233 29.2129 82.0664 28.9068 81.9506 28.6211C81.8481 28.3709 81.698 28.143 81.5085 27.9501C81.3282 27.7688 81.1129 27.626 80.8757 27.5304C80.6359 27.4336 80.3795 27.3843 80.1209 27.3852C79.8616 27.3843 79.6047 27.4362 79.3661 27.5378C79.1296 27.638 78.9147 27.7831 78.7333 27.965C78.5438 28.1579 78.3937 28.3858 78.2912 28.636C78.1763 28.9167 78.1193 29.2178 78.1237 29.5211C78.1193 29.8244 78.1763 30.1254 78.2912 30.4061C78.3937 30.6563 78.5438 30.8842 78.7333 31.0771C78.9147 31.2591 79.1296 31.4041 79.3661 31.5043C79.6047 31.6059 79.8616 31.6578 80.1209 31.6569Z" fill="url(#paint0_linear_12_678)"/>
<path d="M97.6729 33.1462C97.1399 33.3734 96.5865 33.5491 96.0201 33.6711C95.4255 33.7979 94.8189 33.8603 94.2109 33.8573C93.0731 33.8689 91.9448 33.6498 90.8941 33.2133C89.9036 32.8013 89.0041 32.1978 88.2473 31.4376C87.4953 30.6743 86.8997 29.7714 86.4939 28.7796C86.0661 27.7421 85.8497 26.6297 85.8574 25.5074C85.8497 24.3852 86.0661 23.2728 86.4939 22.2353C86.8997 21.2435 87.4953 20.3406 88.2473 19.5773C89.0041 18.8171 89.9036 18.2136 90.8941 17.8016C91.9443 17.3625 93.0726 17.1409 94.2109 17.1502C95.3492 17.1409 96.4776 17.3625 97.5278 17.8016C98.5183 18.2136 99.4177 18.8171 100.175 19.5773C100.927 20.3406 101.522 21.2435 101.928 22.2353C102.356 23.2728 102.572 24.3852 102.564 25.5074C102.576 26.6882 102.341 27.8583 101.876 28.9434C101.429 29.9796 100.767 30.9086 99.9326 31.6684L101.157 33.5036L98.9237 35.0001L97.6729 33.1462ZM94.2779 28.0537L96.5115 26.5349L98.2537 29.1705C98.6654 28.6925 98.987 28.1439 99.2029 27.5512C99.4406 26.8951 99.5578 26.2015 99.5491 25.5037C99.5577 24.7382 99.4173 23.9784 99.1359 23.2664C98.8792 22.6173 98.4914 22.028 97.9968 21.5354C97.509 21.0564 96.9324 20.677 96.2993 20.4186C95.6372 20.1451 94.9273 20.006 94.2109 20.0091C93.495 20.0036 92.7852 20.1402 92.1225 20.4112C91.4895 20.6696 90.9129 21.0489 90.425 21.528C89.9296 22.0228 89.5417 22.6146 89.2859 23.2664C89.0035 23.9807 88.8632 24.7432 88.8727 25.5112C88.8637 26.2779 89.004 27.0391 89.2859 27.7522C89.5438 28.4016 89.9328 28.9909 90.4287 29.4832C90.9155 29.9619 91.4908 30.3412 92.1225 30.6C92.7852 30.8709 93.495 31.0076 94.2109 31.002C94.5259 31.002 94.8401 30.9708 95.149 30.909C95.4453 30.8498 95.7366 30.7677 96.0201 30.6633L94.2779 28.0537ZM110.851 33.861C109.978 33.8722 109.112 33.7168 108.297 33.4031C107.554 33.1137 106.885 32.6593 106.343 32.0741C105.787 31.4634 105.36 30.7468 105.088 29.9671C104.777 29.0582 104.626 28.1022 104.642 27.1417V17.5113H107.657V27.3166C107.652 27.8152 107.72 28.3118 107.858 28.7908C107.98 29.2142 108.185 29.609 108.461 29.9522C108.733 30.2827 109.077 30.5464 109.466 30.7228C109.902 30.9159 110.375 31.0112 110.851 31.002C111.335 31.0127 111.815 30.9174 112.258 30.7228C112.648 30.5464 112.992 30.2827 113.263 29.9522C113.539 29.609 113.744 29.2142 113.866 28.7908C114.005 28.3118 114.072 27.8152 114.067 27.3166V17.5113H117.083V27.138C117.094 28.0681 116.946 28.9933 116.647 29.8741C116.381 30.66 115.955 31.3823 115.396 31.996C114.846 32.5886 114.176 33.0569 113.431 33.3696C112.613 33.7071 111.735 33.8743 110.851 33.861ZM122.957 20.3665V24.0742H129.367V26.9332H122.957V30.6409H130.082V33.5036H119.938V17.5113H130.082V20.3702L122.957 20.3665ZM135.867 20.3665V24.0742H142.277V26.9332H135.867V30.6409H142.992V33.5036H132.848V17.5113H142.992V20.3702L135.867 20.3665ZM145.762 17.5076H149.268L155.701 28.2287H155.88L155.701 25.1464V17.5076H158.694V33.5036H155.522L148.729 22.1794H148.55L148.729 25.2618V33.5036H145.762V17.5076Z" fill="#CC151A"/>
<mask id="mask0_12_678" style="mask-type:luminance" maskUnits="userSpaceOnUse" x="0" y="0" width="23" height="15">
<path d="M22.3403 0H0V14.8793H22.3403V0Z" fill="white"/>
</mask>
<g mask="url(#mask0_12_678)">
<path d="M4.51088 11.6406H17.8304C18.8547 9.61551 19.9749 7.63011 21.191 5.68443C21.5632 5.09936 21.946 4.51832 22.3394 3.94132C21.8914 4.13179 21.4491 4.32878 21.0123 4.53228C21.0216 4.88593 21.0281 5.23865 21.0337 5.59229C20.0182 6.09891 18.9325 6.45027 17.8127 6.63463C17.2231 5.81056 16.7648 4.90014 16.4539 3.93573C16.7136 3.61559 16.9751 3.2973 17.2422 2.98181C17.0251 2.55681 16.8023 2.13306 16.574 1.71054C16.27 2.07287 15.9716 2.438 15.6787 2.80592C15.8853 3.18283 16.0854 3.56161 16.2827 3.94132C15.8029 4.76524 15.1943 5.50704 14.48 6.13859C13.2106 5.40609 12.1752 4.32815 11.4945 3.03021C11.7737 2.61327 12.0529 2.19262 12.346 1.78499C11.962 1.18441 11.5652 0.589414 11.1557 0C10.7469 0.589414 10.3504 1.18379 9.96636 1.78313C10.2707 2.21402 10.5666 2.64864 10.857 3.08605C10.2642 4.36535 9.31397 5.44584 8.12088 6.19722C7.35659 5.53646 6.71129 4.7495 6.21304 3.87059C6.40755 3.49832 6.60578 3.12606 6.80959 2.7538C6.51736 2.38464 6.21986 2.01859 5.91709 1.65563C5.68753 2.07691 5.46355 2.49973 5.24516 2.92411C5.52312 3.25356 5.79611 3.58581 6.06414 3.92084C5.73681 4.92257 5.25071 5.86523 4.62441 6.7128C3.46927 6.49611 2.35087 6.116 1.30291 5.58392C1.30943 5.23213 1.31594 4.88128 1.32432 4.52949C0.889394 4.32847 0.447954 4.13241 0 3.94132C0.444232 4.59463 0.878536 5.25323 1.30291 5.91709C2.46189 7.7877 3.53276 9.69554 4.51553 11.6406M15.1101 8.36471C14.7657 8.64391 14.427 8.93334 14.0947 9.22184C14.1791 8.78443 14.2647 8.34734 14.3516 7.91055C14.6308 7.67696 14.91 7.44522 15.1948 7.22001C15.2506 7.22001 15.3046 7.22931 15.3576 7.23583L15.1101 8.36471ZM18.64 8.8412C18.2759 9.08938 17.9172 9.34593 17.5642 9.61085C17.6787 9.18182 17.7978 8.75372 17.916 8.32469C18.278 8.06597 18.6456 7.8119 19.0207 7.56435C18.8913 7.98966 18.7657 8.41496 18.64 8.8412ZM7.23024 8.36471L6.9799 7.23676C7.03388 7.22931 7.08785 7.22466 7.14276 7.22094C7.42754 7.44709 7.70767 7.67789 7.98593 7.91148C8.07217 8.34579 8.15779 8.78288 8.24279 9.22277C7.91055 8.93427 7.57179 8.6467 7.22745 8.36564M11.1678 5.87894C11.4241 6.58189 11.6691 7.2867 11.9031 7.99338C11.6468 8.69323 11.4017 9.39401 11.1678 10.0957C10.9346 9.39277 10.6901 8.69199 10.4345 7.99338C10.6702 7.2867 10.9147 6.58189 11.1678 5.87894ZM4.45876 8.56201L4.80868 9.84817C4.4569 9.58852 4.0986 9.3298 3.73564 9.07852C3.61186 8.65135 3.48436 8.22697 3.35687 7.7998C3.72913 8.04922 4.09673 8.30422 4.45876 8.56201Z" fill="white"/>
<path d="M17.7439 12.8618H4.59754C4.58617 12.8618 4.57491 12.8641 4.56441 12.8684C4.55391 12.8728 4.54437 12.8791 4.53633 12.8872C4.5283 12.8952 4.52193 12.9047 4.51758 12.9152C4.51323 12.9257 4.51099 12.937 4.51099 12.9484V14.792C4.51099 14.815 4.5201 14.837 4.53633 14.8532C4.55257 14.8694 4.57458 14.8785 4.59754 14.8785H17.7439C17.7669 14.8785 17.7889 14.8694 17.8051 14.8532C17.8214 14.837 17.8305 14.815 17.8305 14.792V12.9484C17.8305 12.937 17.8283 12.9257 17.8239 12.9152C17.8196 12.9047 17.8132 12.8952 17.8051 12.8872C17.7971 12.8791 17.7876 12.8728 17.7771 12.8684C17.7666 12.8641 17.7553 12.8618 17.7439 12.8618Z" fill="white"/>
</g>
<mask id="mask1_12_678" style="mask-type:luminance" maskUnits="userSpaceOnUse" x="87" y="1" width="15" height="14">
<path d="M101.495 1.77686H87.4143V14.8907H101.495V1.77686Z" fill="white"/>
</mask>
<g mask="url(#mask1_12_678)">
<path d="M99.6151 11.1636L99.656 11.1217C102.28 8.54847 101.467 7.13109 100.992 6.63784C100.717 6.36924 100.386 6.1639 100.023 6.03613C99.6604 5.90835 99.274 5.8612 98.891 5.89797C98.8182 5.90642 98.7461 5.91979 98.6751 5.93799C98.5747 5.55049 98.3449 5.20896 98.0237 4.97011C97.1566 4.47232 96.1372 4.30943 95.1582 4.51223C95.1655 4.50212 95.17 4.49023 95.1712 4.47779C95.1712 4.42382 95.0986 4.37356 94.9786 4.3354C95.0812 4.28035 95.1903 4.23845 95.3034 4.2107C95.5061 4.15762 95.7196 4.16149 95.9204 4.22186C95.9094 4.14489 95.8819 4.07121 95.8397 4.00588C95.7976 3.94055 95.7418 3.88511 95.6762 3.84338C95.6106 3.80164 95.5367 3.7746 95.4597 3.76411C95.3826 3.75362 95.3042 3.75993 95.2298 3.7826C95.0811 3.79478 94.9382 3.84592 94.8155 3.93087C94.6928 4.01583 94.5947 4.1316 94.5309 4.26654H94.4527C94.6621 3.86729 95.1749 3.76398 95.3015 3.32751C95.4281 2.89103 95.093 2.52621 94.4323 1.78076C93.7715 2.52528 93.443 2.89755 93.5686 3.33123C93.6943 3.76491 94.2201 3.86915 94.4258 4.2684H94.3411C94.2767 4.1339 94.178 4.01872 94.055 3.93442C93.932 3.85013 93.789 3.79969 93.6403 3.78818C93.5659 3.76567 93.4875 3.75951 93.4105 3.77014C93.3335 3.78076 93.2598 3.80791 93.1943 3.84973C93.1288 3.89154 93.0731 3.94703 93.031 4.01239C92.989 4.07775 92.9616 4.15143 92.9507 4.22838C93.1514 4.1681 93.3649 4.16423 93.5677 4.21721C93.6807 4.24465 93.7899 4.28623 93.8925 4.34099C93.7724 4.37915 93.698 4.43405 93.6998 4.48338C93.7012 4.49332 93.7047 4.50285 93.7101 4.5113C92.7445 4.3181 91.7416 4.48354 90.8893 4.97662C90.5681 5.21548 90.3382 5.557 90.2378 5.9445C90.1664 5.92433 90.0936 5.90909 90.02 5.8989C89.6368 5.86167 89.2501 5.90851 88.8868 6.03613C88.5235 6.16376 88.1925 6.3691 87.9168 6.63784C87.4421 7.13016 86.6297 8.54847 89.2532 11.1208L89.2941 11.1627C89.4849 11.3664 89.6929 11.5532 89.9158 11.7211C89.5752 11.776 89.2346 11.8337 88.8921 11.9007L88.9786 12.3381H99.9278L100.014 11.9007C99.6756 11.8337 99.3349 11.775 98.9906 11.7211C99.2135 11.5532 99.4215 11.3664 99.6123 11.1627M98.9776 6.63039C99.2455 6.60705 99.5153 6.64059 99.7694 6.7288C100.023 6.81701 100.256 6.9579 100.452 7.14225L100.457 7.14784C101.137 7.84955 100.655 9.10221 99.1349 10.5913L99.0883 10.6387C98.9004 10.8696 98.6697 11.062 98.4089 11.2055C98.2489 11.1738 97.9055 11.1357 97.0642 11.0603L96.449 11.0073C97.6308 9.87855 98.4297 8.40826 98.7337 6.80257V6.8007C98.7337 6.76627 98.7384 6.73277 98.7403 6.69926C98.8154 6.66092 98.8973 6.63753 98.9813 6.63039M97.5797 5.56573C97.7492 5.70184 97.8779 5.8819 97.952 6.08624C98.026 6.29059 98.0424 6.51134 97.9995 6.72439C97.6536 8.35429 96.7823 9.82559 95.5193 10.9123L95.4746 10.9635H95.3099C95.4029 10.8481 95.5007 10.7318 95.5993 10.6164C96.5256 9.57091 97.097 8.25894 97.2317 6.86864C97.2 5.66996 95.2596 6.20788 95.2708 6.2237C95.2329 7.80023 95.1951 9.37613 95.1572 10.9514C95.0493 10.9514 94.9413 10.9449 94.8334 10.944V5.31724C95.7487 5.07164 96.7215 5.15972 97.5779 5.56573M91.3285 5.56573C92.1848 5.15964 93.1577 5.07156 94.073 5.31724V10.944C93.9669 10.944 93.8608 10.9486 93.7548 10.9514L93.644 6.17344C93.6561 6.15762 91.712 5.61505 91.6803 6.81839C91.8173 8.2054 92.3893 9.51359 93.3146 10.5559C93.4272 10.688 93.537 10.8211 93.6468 10.9542L93.4346 10.9635L93.3899 10.9198C92.1269 9.83304 91.2556 8.36174 90.9097 6.73184C90.8654 6.51758 90.8813 6.29524 90.9555 6.08943C91.0298 5.88362 91.1595 5.70236 91.3304 5.56573M89.7762 10.6006C88.2518 9.10686 87.7697 7.85048 88.4491 7.14784H88.4547C88.6499 6.9629 88.8819 6.82129 89.1356 6.73228C89.3894 6.64327 89.659 6.60886 89.927 6.63133C90.011 6.63846 90.0929 6.66185 90.168 6.70019C90.168 6.7337 90.168 6.7672 90.1745 6.80163V6.81187C90.4785 8.41757 91.2775 9.88786 92.4593 11.0166L91.8441 11.0696C91.0019 11.145 90.6585 11.1831 90.4984 11.2148C90.2376 11.0713 90.007 10.8788 89.819 10.648L89.7762 10.6006Z" fill="#CC151A"/>
<path d="M90.6864 10.6817C90.9464 10.6482 91.2066 10.6172 91.4672 10.5886C91.5128 10.5644 89.2476 8.77479 89.5538 6.83903C89.5873 6.6166 88.2062 7.18244 88.9656 8.54957C89.4054 9.35749 89.9885 10.0787 90.6864 10.678" fill="#CC151A"/>
<path d="M98.125 10.7514C98.8557 10.1406 99.4686 9.40127 99.9333 8.56995C100.694 7.20189 99.2762 6.6407 99.3451 6.8594C99.7331 8.08879 97.2865 10.6379 97.346 10.6639C97.606 10.6894 97.8657 10.7191 98.125 10.7514Z" fill="#CC151A"/>
<path d="M99.8403 13.3052H89.068C89.045 13.3052 89.023 13.3143 89.0068 13.3305C88.9906 13.3467 88.9814 13.3688 88.9814 13.3917V14.8072C88.9814 14.8302 88.9906 14.8522 89.0068 14.8684C89.023 14.8847 89.045 14.8938 89.068 14.8938H99.8403C99.8633 14.8938 99.8853 14.8847 99.9015 14.8684C99.9177 14.8522 99.9269 14.8302 99.9269 14.8072V13.3917C99.9269 13.3688 99.9177 13.3467 99.9015 13.3305C99.8853 13.3143 99.8633 13.3052 99.8403 13.3052Z" fill="#CC151A"/>
</g>
</g>
<defs>
<linearGradient id="paint0_linear_12_678" x1="59.2024" y1="31.1484" x2="83.9892" y2="30.6531" gradientUnits="userSpaceOnUse">
<stop stop-color="white"/>
<stop offset="1" stop-color="#CC151A"/>
</linearGradient>
<clipPath id="clip0_12_678">
<rect width="158.694" height="35" fill="white"/>
</clipPath>
</defs>
</svg>
